<svg width="70" height="70" fill="none" xmlns="http://www.w3.org/2000/svg"><g clip-path="url(#clip0)" fill="#fff"><path d="M54.831 23.453V3.69A3.696 3.696 0 0051.14 0H18.692A3.696 3.696 0 0015 3.69v19.762a3.68 3.68 0 001.22 2.734A3.678 3.678 0 0015 28.921v33.43a3.696 3.696 0 003.692 3.692h.501v2.937a.957.957 0 00.957.957h6.836a.957.957 0 00.957-.957v-2.937h13.945v2.937a.957.957 0 00.958.957h6.835a.957.957 0 00.957-.957v-2.937h.502a3.696 3.696 0 003.691-3.691v-33.43a3.678 3.678 0 00-1.22-2.735 3.678 3.678 0 001.22-2.734zM26.03 68.023h-4.922v-1.98h4.922v1.98zm22.695 0h-4.921v-1.98h4.921v1.98zm4.193-39.102v33.43a1.78 1.78 0 01-1.777 1.778H18.692a1.78 1.78 0 01-1.778-1.777v-33.43a1.78 1.78 0 011.778-1.778H51.14a1.78 1.78 0 011.777 1.777zM18.692 25.23a1.78 1.78 0 01-1.778-1.777V3.69a1.78 1.78 0 011.778-1.777H51.14a1.78 1.78 0 011.777 1.777v19.762a1.78 1.78 0 01-1.777 1.777H18.692z"/><path d="M48.485 6.935h-3.554a.957.957 0 00-.957.957v11.485a.957.957 0 00.957.957h3.554a.957.957 0 00.957-.957V7.892a.957.957 0 00-.957-.957zm-.957 11.485h-1.64V8.85h1.64v9.57zM44.93 44.165h3.555a.958.958 0 00.957-.957V31.723a.957.957 0 00-.957-.957h-3.554a.957.957 0 00-.957.957v11.485a.957.957 0 00.957.957zm.958-11.485h1.64v9.57h-1.64v-9.57z"/></g><defs><clipPath id="clip0"><path fill="#fff" d="M0 0h70v70H0z"/></clipPath></defs></svg>