<svg width="70" height="70" fill="none" xmlns="http://www.w3.org/2000/svg"><g clip-path="url(#clip0)" fill="#fff"><path d="M68.834 15.167H43.167c-.644 0-1.167.522-1.167 1.166v28h-5.833v-1.166h1.167a1.167 1.167 0 000-2.334H25.667a1.167 1.167 0 000 2.334h1.167v1.166H15.167v-1.166h1.167a1.167 1.167 0 000-2.334H4.667a1.167 1.167 0 000 2.334h1.167v1.166H1.167C.523 44.333 0 44.856 0 45.5v23.333C0 69.478.523 70 1.167 70h67.667c.644 0 1.166-.522 1.166-1.167v-52.5c0-.644-.522-1.166-1.166-1.166zm-39.667 28h4.667v1.166h-4.667v-1.166zm-21 0h4.667v1.166H8.167v-1.166zm10.5 24.5H2.334v-14h16.333v14zm0-16.334H2.334v-4.666h16.333v4.666zM42 67.667H21v-21h21v21zm25.667 0H44.334v-31.5h23.333v31.5zm0-33.834H44.334V17.5h23.333v16.333z"/><path d="M24.5 65.333h14c.645 0 1.167-.522 1.167-1.166v-14c0-.645-.522-1.167-1.167-1.167h-14c-.644 0-1.166.522-1.166 1.167v14c0 .644.522 1.166 1.166 1.166zm1.167-14h11.667V63H25.667V51.333zm21-18.666c.644 0 1.167-.523 1.167-1.167v-4.667a1.167 1.167 0 00-2.334 0V31.5c0 .644.523 1.167 1.167 1.167zm0 11.666c.644 0 1.167-.522 1.167-1.166V38.5a1.167 1.167 0 00-2.334 0v4.667c0 .644.523 1.166 1.167 1.166zM2.75 20.729c.211.175.476.271.75.271h35a1.167 1.167 0 00.898-1.915l-11.667-14a1.167 1.167 0 00-.897-.418h-1.167v-3.5C25.667.522 25.145 0 24.5 0h-7c-.644 0-1.166.522-1.166 1.167v3.5h-1.167a1.17 1.17 0 00-.897.418l-11.667 14a1.167 1.167 0 00.148 1.644zM18.668 2.333h4.667v2.334h-4.667V2.333zM15.714 7h10.572l9.724 11.667H5.99L15.714 7z"/></g><defs><clipPath id="clip0"><path fill="#fff" d="M0 0h70v70H0z"/></clipPath></defs></svg>