<svg width="65" height="58" fill="none" xmlns="http://www.w3.org/2000/svg"><path d="M4.816 52.785v-.74H1v.74h1.496v4.691h.824v-4.69h1.496zm5.096 4.691v-5.43h-.824v2.318H6.882v-2.318h-.825v5.43h.825v-2.372h2.206v2.372h.824zm5.201 0v-.74h-2.649v-1.632h2.26v-.732h-2.26v-1.587h2.649v-.74H11.64v5.431h3.473zm7.31-2.105v-.831H20.44v.702h1.16v.305c0 .178-.02.335-.061.473a1.08 1.08 0 01-.603.664 1.254 1.254 0 01-.496.098c-.163 0-.313-.028-.45-.083a1.085 1.085 0 01-.52-.473 1.421 1.421 0 01-.099-.313 4.657 4.657 0 01-.046-.465c-.01-.184-.015-.412-.015-.687 0-.275.005-.5.015-.679a4.34 4.34 0 01.046-.457c.026-.127.059-.232.1-.313a1.09 1.09 0 01.167-.237 1.088 1.088 0 01.802-.335c.305 0 .554.084.748.252.193.162.325.394.397.694h.832a2.364 2.364 0 00-.214-.656 1.81 1.81 0 00-.992-.893A2.023 2.023 0 0020.44 52c-.29 0-.555.05-.794.153a1.935 1.935 0 00-.634.427 1.548 1.548 0 00-.305.42 2.048 2.048 0 00-.16.48 3.9 3.9 0 00-.054.58 34.415 34.415 0 000 1.411c.006.208.023.399.054.571.035.173.089.334.16.481.071.147.173.287.305.42.189.188.402.333.642.434.239.097.5.145.786.145.29 0 .56-.048.809-.145.25-.096.478-.254.687-.473.178-.193.303-.409.374-.648.076-.239.114-.534.114-.885zm4.965 2.105v-.74H24.77v-4.69h-.825v5.43h3.443zm5.245 0l-1.992-5.43h-.664l-1.992 5.43h.878l.374-1.09h2.144l.374 1.09h.878zm-1.48-1.792H29.48l.847-2.41.824 2.41zm5.953.244c0-.234-.038-.445-.114-.633a1.213 1.213 0 00-.329-.48 1.409 1.409 0 00-.404-.245 2.612 2.612 0 00-.61-.16l-.62-.091c-.264-.041-.467-.125-.61-.252a.667.667 0 01-.16-.221.842.842 0 01-.046-.282.79.79 0 01.252-.603c.173-.163.42-.244.74-.244.23 0 .44.03.634.092.198.055.382.165.55.328l.526-.52a2.205 2.205 0 00-.748-.472 2.74 2.74 0 00-.939-.145c-.285 0-.54.038-.763.114a1.622 1.622 0 00-.572.328 1.52 1.52 0 00-.36.511 1.633 1.633 0 00-.121.641c0 .442.132.788.397 1.038.244.228.587.373 1.03.434l.641.092c.163.025.285.053.367.084.081.03.157.079.229.145.142.127.213.315.213.564 0 .264-.099.47-.297.618-.194.142-.468.213-.825.213-.28 0-.532-.035-.755-.106a1.657 1.657 0 01-.634-.412l-.55.541c.26.265.542.45.848.557.305.107.664.16 1.076.16.285 0 .547-.035.786-.107.24-.07.445-.175.618-.312a1.439 1.439 0 00.55-1.175zm4.733 0c0-.234-.039-.445-.115-.633a1.21 1.21 0 00-.328-.48 1.41 1.41 0 00-.405-.245 2.616 2.616 0 00-.61-.16l-.618-.091c-.265-.041-.469-.125-.611-.252a.666.666 0 01-.16-.221.842.842 0 01-.046-.282.79.79 0 01.252-.603c.173-.163.42-.244.74-.244.229 0 .44.03.634.092.198.055.381.165.55.328l.526-.52a2.203 2.203 0 00-.748-.472 2.74 2.74 0 00-.94-.145c-.285 0-.54.038-.763.114a1.624 1.624 0 00-.573.328 1.524 1.524 0 00-.359.511 1.635 1.635 0 00-.122.641c0 .442.133.788.397 1.038.245.228.588.373 1.03.434l.642.092a1.9 1.9 0 01.366.084c.082.03.158.079.23.145.142.127.213.315.213.564 0 .264-.1.47-.298.618-.193.142-.468.213-.824.213-.28 0-.532-.035-.756-.106a1.657 1.657 0 01-.633-.412l-.55.541c.26.265.542.45.847.557.306.107.664.16 1.077.16.285 0 .547-.035.786-.107.239-.07.445-.175.618-.312a1.44 1.44 0 00.55-1.175zm7.404 1.548v-5.43h-.824v2.318h-2.206v-2.318h-.825v5.43h.825v-2.372h2.206v2.372h.824zm5.545-1.83v-3.6h-.825v3.562c0 .366-.104.653-.313.862-.203.208-.475.312-.816.312-.341 0-.614-.104-.817-.312-.204-.209-.306-.496-.306-.862v-3.562h-.824v3.6a2 2 0 00.145.77c.102.229.24.425.412.587.173.163.38.29.619.382.239.091.496.137.77.137.275 0 .532-.046.772-.137.239-.092.445-.219.618-.382a1.66 1.66 0 00.412-.587 1.91 1.91 0 00.153-.77zm4.974-2.861v-.74h-3.816v.74h1.496v4.691h.824v-4.69h1.496zm4.638 3.143c0-.234-.038-.445-.114-.633a1.21 1.21 0 00-.329-.48 1.407 1.407 0 00-.404-.245 2.614 2.614 0 00-.61-.16l-.619-.091c-.264-.041-.468-.125-.61-.252a.667.667 0 01-.16-.221.842.842 0 01-.047-.282.79.79 0 01.252-.603c.173-.163.42-.244.74-.244.23 0 .44.03.634.092.199.055.382.165.55.328l.526-.52a2.206 2.206 0 00-.748-.472 2.74 2.74 0 00-.938-.145c-.285 0-.54.038-.764.114a1.622 1.622 0 00-.572.328 1.52 1.52 0 00-.359.511 1.633 1.633 0 00-.122.641c0 .442.132.788.397 1.038.244.228.588.373 1.03.434l.641.092c.163.025.285.053.367.084.081.03.157.079.229.145.142.127.214.315.214.564 0 .264-.1.47-.298.618-.194.142-.468.213-.825.213a2.49 2.49 0 01-.755-.106 1.657 1.657 0 01-.634-.412l-.55.541c.26.265.543.45.848.557.305.107.664.16 1.076.16.285 0 .547-.035.786-.107.24-.07.446-.175.619-.312a1.439 1.439 0 00.55-1.175z" fill="#333"/><path d="M1.695 44.712L1 13.032 15.858 1l18.74 4.168L63.564 19.64v26.628l-28.97-5.094-18.995 2.316-13.903 1.222zM16 1v42.5m18.593-2.326l.006-36.006M49 50V2m.117 31.147l-4.147-3.315M55 45V8m-.115 20.661l5.61-6.899m-2.762 3.135h3.94" stroke="#333"/></svg>