<svg width="70" height="70" fill="none" xmlns="http://www.w3.org/2000/svg"><g clip-path="url(#clip0)" fill="#fff"><path d="M57.634 52.486a3.5 3.5 0 00-.127-4.793l-3.46-3.46a15.18 15.18 0 00-1.29-19.956L37.817 9.333l.301-.301a5.291 5.291 0 00-7.483-7.483l-6.134 6.134-6.618-6.617a3.641 3.641 0 00-5.15 5.15l6.618 6.617-6.517 6.517-6.617-6.617a3.641 3.641 0 00-5.15 5.15L7.685 24.5 1.55 30.636a5.291 5.291 0 007.483 7.483l.301-.301L24.277 52.76a15.156 15.156 0 0019.957 1.29l3.459 3.46a3.478 3.478 0 004.794.127L64.85 70H70v-5.15L57.633 52.487zM14.384 4.567a1.308 1.308 0 111.85-1.85l6.617 6.617-1.85 1.85-6.618-6.617zM2.716 16.233a1.308 1.308 0 111.85-1.85L11.184 21l-1.85 1.85-6.617-6.617zm4.968 19.934l-.301.301A2.959 2.959 0 013.2 32.284l6.134-6.134 5.15-5.15L21 14.484l5.15-5.15L32.284 3.2a2.959 2.959 0 014.183 4.183l-.3.301L7.684 36.167zM44.076 51.11c-5.015 5.004-13.134 5.004-18.15 0L10.984 36.167l25.183-25.183L51.11 25.926c5.004 5.015 5.004 13.135 0 18.15l-7.034 7.034zm6.916 4.75a1.167 1.167 0 01-1.65 0l-3.358-3.36 6.517-6.517 3.358 3.36a1.167 1.167 0 010 1.649l-4.867 4.867zm16.675 11.807h-1.85L54.15 56 56 54.15l11.667 11.667v1.85z"/><path d="M43.146 42.951l-3.5-18.666a1.167 1.167 0 00-1.97-.61l-3.416 3.416-1.677-4.19a1.167 1.167 0 00-1.908-.392l-5.834 5.833a1.17 1.17 0 00-.259 1.258l4.667 11.666a1.167 1.167 0 001.909.392L35 37.817l6.175 6.175a1.167 1.167 0 001.97-1.04zm-7.32-7.609a1.167 1.167 0 00-1.65 0l-3.416 3.416-3.723-9.309 4.038-4.039 1.676 4.191a1.167 1.167 0 001.909.392l3.102-3.102 2.399 12.785-4.336-4.334z"/></g><defs><clipPath id="clip0"><path fill="#fff" d="M0 0h70v70H0z"/></clipPath></defs></svg>