<svg width="70" height="70" fill="none" xmlns="http://www.w3.org/2000/svg"><path d="M58.917 0a3.5 3.5 0 00-3.5 3.5v1.167H29.75a5.84 5.84 0 00-5.833 5.833v5.833h-2.334a3.5 3.5 0 00-3.5 3.5v4.02A17.183 17.183 0 009.918 38.5v1.381a3.5 3.5 0 00-2.333 3.286V45.5c0 .644.522 1.167 1.166 1.167h37.334c.644 0 1.166-.523 1.166-1.167v-2.333a3.5 3.5 0 00-2.333-3.286V38.5a17.43 17.43 0 00-5.134-12.38 15.74 15.74 0 00-3.033-2.287v-4a3.5 3.5 0 00-3.5-3.5h-2.333v-3.5c0-.644.522-1.166 1.166-1.166h23.334V14a3.5 3.5 0 003.5 3.5h3.5V0h-3.5zm-14 43.167v1.166h-35v-1.166c0-.645.522-1.167 1.167-1.167H43.75c.645 0 1.167.522 1.167 1.167zM38.14 27.774A15.106 15.106 0 0142.584 38.5v1.167H12.25V38.5a14.892 14.892 0 017.319-12.833h15.704a13.6 13.6 0 012.867 2.107zm-4.89-9.107c.645 0 1.167.522 1.167 1.166v3.5h-14v-3.5c0-.644.522-1.166 1.166-1.166H33.25zm22.167-9.334H32.083a3.5 3.5 0 00-3.5 3.5v3.5H26.25V10.5a3.5 3.5 0 013.5-3.5h25.667v2.333zm4.666 5.834h-1.166A1.167 1.167 0 0157.75 14V3.5c0-.644.523-1.167 1.167-1.167h1.166v12.834zM27.417 49c-.644 0-1.167.522-1.167 1.167v4.666a1.167 1.167 0 002.334 0v-4.666c0-.645-.523-1.167-1.167-1.167zm0 9.333c-.644 0-1.167.523-1.167 1.167v4.667a1.167 1.167 0 002.334 0V59.5c0-.644-.523-1.167-1.167-1.167zm14-4.666c-.644 0-1.167.522-1.167 1.166V59.5a1.167 1.167 0 002.334 0v-4.667c0-.644-.523-1.166-1.167-1.166zm-9.333 0c-.645 0-1.167.522-1.167 1.166V59.5a1.167 1.167 0 002.333 0v-4.667c0-.644-.522-1.166-1.166-1.166zm-9.334 0c-.644 0-1.166.522-1.166 1.166V59.5a1.167 1.167 0 002.333 0v-4.667c0-.644-.523-1.166-1.167-1.166zm-9.333 0c-.644 0-1.167.522-1.167 1.166V59.5a1.167 1.167 0 002.334 0v-4.667c0-.644-.523-1.166-1.167-1.166zM18.084 49c-.645 0-1.167.522-1.167 1.167v4.666a1.167 1.167 0 002.333 0v-4.666c0-.645-.522-1.167-1.166-1.167zm18.666 0c-.644 0-1.166.522-1.166 1.167v4.666a1.167 1.167 0 002.333 0v-4.666c0-.645-.523-1.167-1.167-1.167zm0 9.333c-.644 0-1.166.523-1.166 1.167v4.667a1.167 1.167 0 002.333 0V59.5c0-.644-.523-1.167-1.167-1.167zm-18.666 0c-.645 0-1.167.523-1.167 1.167v4.667a1.167 1.167 0 002.333 0V59.5c0-.644-.522-1.167-1.166-1.167zM22.75 63c-.644 0-1.166.522-1.166 1.167v4.666a1.167 1.167 0 002.333 0v-4.666c0-.645-.523-1.167-1.167-1.167zm9.334 0c-.645 0-1.167.522-1.167 1.167v4.666a1.167 1.167 0 002.333 0v-4.666c0-.645-.522-1.167-1.166-1.167z" fill="#fff"/></svg>