<svg width="70" height="70" fill="none" xmlns="http://www.w3.org/2000/svg"><path d="M30.625 70c-8.846 0-16.041-7.198-16.041-16.042 0-4.765 2.167-9.336 5.833-12.372V10.208C20.417 4.58 24.997 0 30.625 0c5.63 0 10.209 4.58 10.209 10.208v31.378c3.666 3.036 5.833 7.607 5.833 12.372C46.667 62.802 39.472 70 30.625 70zm0-67.083c-4.019 0-7.291 3.272-7.291 7.291v32.084c0 .458-.216.89-.58 1.163-3.29 2.477-5.254 6.403-5.254 10.503 0 7.237 5.89 13.125 13.125 13.125 7.237 0 13.125-5.888 13.125-13.125 0-4.1-1.962-8.026-5.252-10.503a1.457 1.457 0 01-.58-1.163V10.208c0-4.019-3.273-7.291-7.293-7.291z" fill="#fff"/><path d="M30.625 61.25c-4.019 0-7.291-3.27-7.291-7.292s3.272-7.291 7.291-7.291c4.02 0 7.292 3.27 7.292 7.291 0 4.022-3.272 7.292-7.292 7.292zm0-11.667a4.38 4.38 0 00-4.375 4.375 4.38 4.38 0 004.375 4.375A4.38 4.38 0 0035 53.958a4.38 4.38 0 00-4.375-4.375z" fill="#fff"/><path d="M30.625 49.583a1.459 1.459 0 01-1.458-1.458V16.042a1.459 1.459 0 012.916 0v32.083c0 .805-.653 1.458-1.458 1.458zm23.333-37.916h-5.833a1.459 1.459 0 010-2.917h5.833a1.459 1.459 0 010 2.917zm0 11.666h-5.833a1.459 1.459 0 010-2.916h5.833a1.459 1.459 0 010 2.916zm0 11.667h-5.833a1.459 1.459 0 010-2.917h5.833a1.459 1.459 0 010 2.917z" fill="#fff"/></svg>