<svg width="70" height="70" fill="none" xmlns="http://www.w3.org/2000/svg"><g clip-path="url(#clip0)" fill="#fff"><path d="M50.167 32.667H49v-2.334h1.167a3.5 3.5 0 003.5-3.5V6.785A3.492 3.492 0 0052.5 0h-35a3.492 3.492 0 00-1.166 6.785v20.048a3.5 3.5 0 003.5 3.5H21v2.334h-1.166A5.84 5.84 0 0014 38.5c0 .644.523 1.167 1.167 1.167a19.717 19.717 0 0011.667 18.056v11.11c0 .645.522 1.167 1.166 1.167h14c.645 0 1.167-.522 1.167-1.167v-11.11a19.722 19.722 0 0011.667-18.056c.644 0 1.166-.523 1.166-1.167a5.84 5.84 0 00-5.833-5.833zM16.334 3.5c0-.644.522-1.167 1.166-1.167h35a1.167 1.167 0 010 2.334h-35A1.167 1.167 0 0116.334 3.5zm3.5 24.5a1.167 1.167 0 01-1.167-1.167V7h32.667v19.833c0 .645-.523 1.167-1.167 1.167H19.834zm26.833 2.333v2.334H23.334v-2.334h23.333zm-17.5 37.334v-9.04l.108.03c.117.034.234.061.35.094a16.705 16.705 0 001.923.436c.36.063.723.117 1.089.158.221.027.44.055.665.073.475.04.951.063 1.429.068.088 0 .175.013.263.013.09 0 .177-.012.265-.013a19.86 19.86 0 001.428-.068c.224-.018.446-.048.669-.073.361-.043.72-.095 1.079-.157.213-.037.427-.075.64-.116.424-.088.843-.194 1.258-.31.13-.037.261-.066.39-.104l.105-.028.006 9.037H29.167zm12.39-11.778a17.56 17.56 0 01-9.904.954 16.915 16.915 0 01-3.216-.957A17.413 17.413 0 0117.5 39.666h35A17.416 17.416 0 0141.557 55.89zM16.533 37.333a3.507 3.507 0 013.3-2.333h30.334a3.507 3.507 0 013.3 2.333H16.533z"/><path d="M30.334 10.5h-3.715a3.5 3.5 0 100 2.333h3.715a1.167 1.167 0 000-2.333zm-7 2.333a1.167 1.167 0 110-2.333 1.167 1.167 0 010 2.333z"/></g><defs><clipPath id="clip0"><path fill="#fff" d="M0 0h70v70H0z"/></clipPath></defs></svg>