<svg width="70" height="70" fill="none" xmlns="http://www.w3.org/2000/svg"><g clip-path="url(#clip0)" fill="#fff"><path d="M70 19.833a8.176 8.176 0 00-8.166-8.167h-35a7.67 7.67 0 00-2.119.29c-.436.106-11.96 4.45-18.791 7.03h-.01A7.953 7.953 0 002.4 21.052 8.072 8.072 0 000 26.833a8.16 8.16 0 003.976 7 8.167 8.167 0 00-3.976 7 8.167 8.167 0 003.982 7A8.159 8.159 0 008.167 63h35a8.091 8.091 0 003.487-.794.22.22 0 00.026 0l18.77-7.05a8.148 8.148 0 00.564-14.313 7.395 7.395 0 001.585-1.234A8.072 8.072 0 0070 33.833a8.187 8.187 0 00-3.978-6.993 7.44 7.44 0 001.58-1.23A8.072 8.072 0 0070 19.832zm-44.642-5.634a5.45 5.45 0 011.476-.2h35a5.84 5.84 0 015.833 5.834 5.755 5.755 0 01-1.712 4.122c-.396.412-.86.754-1.371 1.01-.064.034-.117.066-.177.096-1.573.583-4.344 1.624-8.639 3.236l-5.184 1.947a8.161 8.161 0 00-7.417-11.578H13.384c5.81-2.187 11.499-4.316 11.974-4.467zM2.334 26.833a5.76 5.76 0 011.717-4.128 5.617 5.617 0 012.56-1.487c.03-.01.064-.02.098-.033A5.682 5.682 0 018.167 21h35A5.84 5.84 0 0149 26.833a5.874 5.874 0 01-3.163 5.188 1.119 1.119 0 00-.1.044c-.798.4-1.678.605-2.57.601h-35a5.84 5.84 0 01-5.833-5.833zm0 14A5.844 5.844 0 018.167 35h35A5.84 5.84 0 0149 40.833a5.874 5.874 0 01-3.163 5.188 1.119 1.119 0 00-.1.044c-.798.4-1.678.605-2.57.601h-35a5.84 5.84 0 01-5.833-5.833zm5.833 19.833a5.833 5.833 0 010-11.666h35a5.833 5.833 0 110 11.666h-35zm59.5-12.833a5.759 5.759 0 01-1.71 4.122c-.42.425-.902.783-1.43 1.062l-13.952 5.232a8.123 8.123 0 00-3.104-10.344l15.4-5.777a5.818 5.818 0 014.796 5.705zm0-14a5.755 5.755 0 01-1.712 4.122c-.396.412-.86.754-1.371 1.01l-.179.097-13.823 5.184a8.139 8.139 0 00-3.111-10.34l9.113-3.424c2.662-1 4.73-1.776 6.3-2.363a5.833 5.833 0 014.783 5.714z"/><path d="M45.5 26.833c0-.644-.522-1.167-1.166-1.167H7A1.167 1.167 0 007 28h37.333c.644 0 1.167-.523 1.167-1.167zm0 14c0-.644-.522-1.167-1.166-1.167H7A1.167 1.167 0 007 42h37.333c.644 0 1.167-.523 1.167-1.167zm-1.166 12.833H7A1.167 1.167 0 107 56h37.333a1.167 1.167 0 100-2.334zM11.667 2.333c-.644 0-1.167.523-1.167 1.167v2.333a1.167 1.167 0 102.334 0V3.5c0-.644-.523-1.167-1.167-1.167zm-1.167 10.5a1.167 1.167 0 102.334 0V10.5a1.167 1.167 0 00-2.334 0v2.333zM9.334 7H7a1.167 1.167 0 100 2.333h2.333a1.167 1.167 0 000-2.333zM14 9.333h2.334a1.167 1.167 0 000-2.333H14a1.167 1.167 0 100 2.333zm53.908 54.592a1.167 1.167 0 00-1.65 1.65l1.75 1.75a1.167 1.167 0 001.65-1.65l-1.75-1.75zm-5.149-1.85a1.167 1.167 0 001.65-1.65l-1.75-1.75a1.167 1.167 0 00-1.65 1.65l1.75 1.75zm-1.75 5.25a1.166 1.166 0 001.65 0l1.75-1.75a1.167 1.167 0 00-1.65-1.65l-1.75 1.75a1.166 1.166 0 000 1.65zm7-8.65l-1.75 1.75a1.167 1.167 0 101.65 1.65l1.75-1.75a1.167 1.167 0 00-1.65-1.65z"/></g><defs><clipPath id="clip0"><path fill="#fff" d="M0 0h70v70H0z"/></clipPath></defs></svg>