<svg width="22" height="18" fill="none" xmlns="http://www.w3.org/2000/svg"><path d="M21.046 2.02a8.596 8.596 0 01-2.475.678A4.32 4.32 0 0020.466.315 8.624 8.624 0 0117.73 1.36a4.309 4.309 0 00-7.342 3.93A12.23 12.23 0 011.508.788 4.308 4.308 0 002.84 6.54a4.278 4.278 0 01-1.952-.539v.055a4.31 4.31 0 003.456 4.224 4.292 4.292 0 01-1.945.074 4.313 4.313 0 004.024 2.993 8.645 8.645 0 01-5.35 1.844c-.348 0-.692-.02-1.028-.06a12.187 12.187 0 006.604 1.935c7.924 0 12.258-6.565 12.258-12.259 0-.186-.004-.372-.012-.557a8.737 8.737 0 002.15-2.23z" fill="#E9ECE0"/></svg>