<svg width="48" height="48" fill="none" xmlns="http://www.w3.org/2000/svg"><g clip-path="url(#clip0)" fill="#E9ECE0"><path d="M19.153 16.8l-2.431 14.265h3.888L23.043 16.8h-3.89zm-5.691.015l-3.808 9.729-.406-1.469c-.751-1.77-2.883-4.312-5.386-5.914l3.482 11.897 4.114-.007 6.123-14.239-4.119.003z"/><path d="M7.772 17.836c-.226-.869-.881-1.128-1.694-1.159H.05l-.05.284c4.691 1.138 7.795 3.88 9.083 7.177l-1.311-6.302zm23.151 1.698a7.178 7.178 0 012.91.546l.351.165.526-3.092c-.77-.289-1.977-.599-3.483-.599-3.842 0-6.55 1.935-6.571 4.708-.025 2.049 1.929 3.193 3.405 3.876 1.515.7 2.023 1.145 2.016 1.77-.012.955-1.208 1.393-2.325 1.393-1.557 0-2.384-.215-3.661-.747l-.501-.228-.547 3.193c.91.399 2.589.742 4.332.76 4.087 0 6.743-1.912 6.771-4.875.017-1.621-1.02-2.858-3.267-3.873-1.36-.662-2.192-1.102-2.184-1.77 0-.593.706-1.227 2.228-1.227zm13.765-2.719h-3.004c-.933 0-1.627.254-2.037 1.184l-5.773 13.074h4.083s.666-1.758.817-2.143l4.979.006c.116.498.474 2.137.474 2.137h3.607l-3.146-14.258zm-4.795 9.195c.32-.82 1.549-3.987 1.549-3.987-.021.039.317-.825.518-1.362l.262 1.23.901 4.119h-3.23z"/></g><defs><clipPath id="clip0"><path fill="#fff" d="M0 0h47.834v47.834H0z"/></clipPath></defs></svg>