<svg width="71" height="70" fill="none" xmlns="http://www.w3.org/2000/svg"><g clip-path="url(#clip0)" fill="#fff"><path d="M48.56 40.98c-3.629-3.494-8.42-5.419-13.491-5.419-5.073 0-9.864 1.926-13.493 5.422a19.668 19.668 0 00-1.864 2.07c-1.33 1.708-1.17 4.159.369 5.706l.008.008a4.293 4.293 0 003.054 1.267 4.372 4.372 0 003.456-1.686c.264-.336.552-.661.857-.965a10.692 10.692 0 017.613-3.146 10.696 10.696 0 018.469 4.111 4.373 4.373 0 003.456 1.686 4.291 4.291 0 003.063-1.275c1.539-1.547 1.698-3.998.368-5.706a19.658 19.658 0 00-1.865-2.072zm.036 6.333l-.006.007c-.428.425-.995.66-1.597.66a2.33 2.33 0 01-1.84-.902 12.752 12.752 0 00-1.02-1.148 12.73 12.73 0 00-9.064-3.747c-3.43 0-6.65 1.33-9.066 3.747-.362.362-.705.748-1.02 1.148a2.33 2.33 0 01-1.84.901 2.252 2.252 0 01-1.602-.665c-.815-.815-.904-2.104-.208-2.999a17.668 17.668 0 011.669-1.853c3.243-3.125 7.53-4.846 12.067-4.846s8.822 1.72 12.065 4.845c.6.578 1.162 1.202 1.67 1.854.697.895.607 2.184-.208 2.998z"/><path d="M35.069 48.807a6.149 6.149 0 00-4.376 1.812 6.148 6.148 0 00-1.813 4.376c0 1.653.644 3.207 1.813 4.376a6.149 6.149 0 004.376 1.812 6.147 6.147 0 004.375-1.812 6.195 6.195 0 000-8.752 6.147 6.147 0 00-4.375-1.812zm2.922 9.11a4.107 4.107 0 01-2.922 1.212 4.107 4.107 0 01-2.924-1.211 4.107 4.107 0 01-1.21-2.923 4.11 4.11 0 011.21-2.923 4.107 4.107 0 012.924-1.211c1.104 0 2.142.43 2.922 1.21a4.138 4.138 0 010 5.847zm31.012-33.95c-.46-.502-.94-1.004-1.425-1.49-6.686-6.683-15.1-11.098-24.33-12.765a45.756 45.756 0 00-26.593 3.118 1.027 1.027 0 10.825 1.881c16.65-7.296 35.745-3.677 48.645 9.22.465.464.923.943 1.362 1.423a2.275 2.275 0 01-.082 3.15 2.273 2.273 0 01-1.675.673 2.24 2.24 0 01-1.62-.732c-.393-.43-.803-.86-1.218-1.274-7.414-7.415-17.295-11.497-27.823-11.497h-.003c-10.53 0-20.41 4.085-27.825 11.501-.414.415-.823.842-1.214 1.27-.42.459-.995.719-1.62.732a2.27 2.27 0 01-1.675-.672 2.275 2.275 0 01-.082-3.15c.438-.48.895-.957 1.359-1.42a44.205 44.205 0 0110.082-7.56 1.027 1.027 0 10-.984-1.803 46.249 46.249 0 00-11.973 9.395 4.326 4.326 0 00.146 5.99 4.314 4.314 0 003.173 1.274 4.277 4.277 0 003.09-1.4c.37-.405.758-.81 1.151-1.203 7.026-7.028 16.392-10.899 26.372-10.9h.003c9.978 0 19.344 3.87 26.37 10.896.393.393.782.8 1.156 1.208a4.277 4.277 0 003.09 1.4 4.368 4.368 0 003.173-1.274 4.326 4.326 0 00.145-5.99z"/><path d="M57.629 31.3a32.675 32.675 0 00-20.583-8.94 1.027 1.027 0 10-.122 2.052 30.617 30.617 0 0121.184 10.35 2.298 2.298 0 01-.096 3.136 2.26 2.26 0 01-1.687.667 2.283 2.283 0 01-1.657-.783 26.733 26.733 0 00-1.478-1.55c-4.87-4.706-11.306-7.297-18.12-7.298h-.001c-6.815 0-13.25 2.592-18.12 7.297a26.439 26.439 0 00-1.48 1.551 2.281 2.281 0 01-1.657.783 2.289 2.289 0 01-1.796-3.789 30.598 30.598 0 0121.2-10.363 1.028 1.028 0 00-.124-2.05 32.651 32.651 0 00-22.62 11.057 4.349 4.349 0 00.2 5.93 4.293 4.293 0 003.207 1.269 4.375 4.375 0 003.133-1.48 24.1 24.1 0 011.365-1.43c9.205-8.894 24.181-8.894 33.385 0 .472.457.931.938 1.363 1.43a4.376 4.376 0 003.134 1.48 4.292 4.292 0 003.206-1.269 4.357 4.357 0 00.186-5.946 33.397 33.397 0 00-2.022-2.103z"/></g><defs><clipPath id="clip0"><path fill="#fff" d="M0 0h70.137v70H0z"/></clipPath></defs></svg>