<svg width="36" height="36" fill="none" xmlns="http://www.w3.org/2000/svg"><path d="M19.7 13.594h-4.08V9.515a.68.68 0 00-1.36 0v4.079h-4.077a.68.68 0 000 1.359h4.078v4.078a.68.68 0 001.36 0v-4.078h4.077a.68.68 0 000-1.36z" fill="#fff"/><path d="M35.142 34.85l-10.1-10.504a14.228 14.228 0 004.173-10.073C29.215 6.403 22.812 0 14.94 0 7.071 0 .668 6.403.668 14.273c0 7.871 6.403 14.274 14.274 14.274 3.454 0 6.625-1.235 9.096-3.285l10.124 10.53a.678.678 0 10.98-.942zM2.028 14.272C2.028 7.153 7.82 1.36 14.94 1.36c7.121 0 12.914 5.793 12.914 12.914 0 7.121-5.793 12.914-12.914 12.914-7.12 0-12.913-5.793-12.913-12.914z" fill="#fff"/></svg>