<svg width="32" height="32" fill="none" xmlns="http://www.w3.org/2000/svg"><path d="M5.853 22.202c.334-.167.982-.49.982-1.64 0-.827-.502-2.056-2.467-2.056H.475v8.013h3.393c1.641 0 2.076-.279 2.533-.728.422-.41.69-1.015.69-1.648 0-.793-.256-1.574-1.238-1.94zm-3.77-2.309h1.92c.758 0 1.227.2 1.227.858 0 .638-.523.894-1.184.894H2.083v-1.752zm2.051 5.242H2.083v-2.143h2.131c.604 0 1.205.271 1.205.971-.002.813-.471 1.172-1.285 1.172zM.476 27.788v.728h1.24v3.377h.855v-3.377h1.243v-.728H.476zm27.59-6.001l3.27-3.282h-2.164l-3.058 3.257v-3.257H24.44v8.01h1.674v-2.71l.781-.804 2.476 3.515h2.154l-3.459-4.73zm-15.705-3.282h-1.93l-2.854 8.012h1.762l.557-1.65h2.957l.514 1.649h1.818l-2.824-8.011zm-2.019 4.976l1.027-3.168h.023l.992 3.168h-2.042zm9.487-20.676a10.05 10.05 0 00-1.705-1.625 7.86 7.86 0 00-1.043-.665C16.701.319 16.312.13 15.847 0a6 6 0 00.191 1.324c.094.404.221.783.369 1.147-.354.104-.784.25-1.268.438-.313.14-.656.266-1.002.453-.351.168-.707.372-1.068.6-.367.207-.709.501-1.068.755-.327.311-.686.58-.977.933-.301.338-.595.676-.822 1.06-.115.187-.248.36-.344.551-.092.194-.18.387-.266.575-.195.364-.284.756-.386 1.113a4.516 4.516 0 00-.197 1.021c-.027.319-.094.601-.078.861l.02.662c.011.363.014.57.014.57l.105-.562.121-.636c.037-.245.164-.505.252-.792.094-.287.203-.593.383-.887.164-.299.313-.622.555-.901l.332-.438c.117-.143.267-.266.396-.4.254-.277.564-.501.871-.723.293-.233.65-.39.959-.581.352-.141.662-.317 1.008-.419.33-.12.655-.221.973-.293.309-.09.62-.13.891-.188.174-.025.334-.046.488-.065-.018.046-.037.09-.053.137a8.211 8.211 0 00-.367 1.367c-.039.243-.071.489-.096.74-.02.255-.024.519-.006.797.261-.1.498-.213.723-.336a8.132 8.132 0 001.727-1.295 10.267 10.267 0 001.674-2.13l.059-.098a1.347 1.347 0 00-.131-1.555zM7.578 30.965c0-.766-.184-.892-.521-1.04.406-.137.635-.524.635-.979 0-.354-.199-1.159-1.291-1.159H4.325v4.103h.842v-1.605h.885c.635 0 .67.218.67.776 0 .422.033.636.09.828h.949v-.107c-.183-.068-.183-.218-.183-.817zm-1.409-1.369H5.166v-1.1h1.068c.502 0 .6.318.6.537-.001.404-.217.563-.665.563zm17.17-1.08v-.728h-2.92v4.106h.858v-1.726h1.806v-.726h-1.806v-.926h2.062zm1.416 2.649v-1.06h2v-.726h-2v-.862h2.179v-.727h-3.019v4.103h3.115v-.728h-2.275zm-6.064-1.612l-.998-.246c-.172-.041-.436-.11-.436-.43 0-.371.391-.49.715-.49.75 0 .819.433.842.616h.82c-.006-.503-.342-1.325-1.6-1.325-1.332 0-1.577.805-1.577 1.262 0 .904.639 1.055 1.303 1.207l.439.104c.433.105.743.189.743.511 0 .429-.453.529-.856.529-.75 0-.865-.434-.871-.663h-.82c0 .511.255 1.372 1.753 1.372.358 0 1.617-.112 1.617-1.343-.001-.737-.515-.968-1.074-1.104zm12.291 1.412c0-.766-.186-.892-.521-1.04.404-.137.637-.524.637-.979 0-.354-.201-1.159-1.293-1.159h-2.074v4.103h.842v-1.605h.885c.633 0 .67.218.67.776 0 .422.033.636.091.828h.946v-.107c-.183-.068-.183-.218-.183-.817zm-1.406-1.369h-1.004v-1.1h1.066c.504 0 .602.318.602.537 0 .404-.217.563-.664.563zm-8.431-11.088v5.578h-.021l-3.181-5.578H16.18v8.012h1.562l.002-5.712h.021l3.27 5.713h1.672v-8.013h-1.562zm-10.671 9.28h-.991L8.02 31.891h.904l.285-.847h1.514l.264.847h.932l-1.445-4.103zm-1.035 2.548l.527-1.622h.008l.512 1.622H9.439zm5.537-2.548l-.001 2.856h-.01l-1.631-2.856h-.902v4.103h.799v-2.927h.013l1.674 2.927h.859v-4.103h-.801zM21.957 5.66c-.019-.362-.035-.568-.035-.568s-.029.205-.09.564c-.029.177-.062.392-.101.639-.03.246-.149.509-.229.799-.083.29-.182.598-.354.898-.154.304-.293.63-.527.917-.104.147-.211.297-.317.449-.115.145-.259.273-.388.411-.244.283-.547.518-.848.748-.283.242-.637.408-.941.609-.346.151-.651.337-.994.448a7.73 7.73 0 01-.964.322c-.305.1-.613.149-.883.214a18.02 18.02 0 01-.486.08c.014-.047.033-.091.049-.138.144-.439.254-.897.326-1.378.031-.244.054-.491.072-.743.013-.255.009-.52-.016-.796a5.578 5.578 0 00-.713.357c-.215.133-.42.271-.621.413-.392.289-.746.6-1.064.933a10.261 10.261 0 00-1.609 2.179l-.057.098a1.346 1.346 0 00.178 1.551 10.15 10.15 0 001.752 1.573c.328.233.679.445 1.064.633.383.186.777.364 1.248.479-.025-.481-.123-.903-.23-1.316a7.58 7.58 0 00-.404-1.136 16.37 16.37 0 001.254-.475c.308-.148.647-.286.988-.483a9.843 9.843 0 001.045-.631c.36-.218.694-.522 1.047-.787.317-.319.668-.601.949-.961.291-.347.573-.692.789-1.083.11-.191.235-.368.327-.562.084-.197.168-.392.248-.583.184-.37.262-.765.354-1.124a4.55 4.55 0 00.166-1.025c.021-.319.076-.604.054-.863-.017-.255-.029-.478-.039-.662z" fill="#E9ECE0"/></svg>