<svg width="70" height="70" fill="none" xmlns="http://www.w3.org/2000/svg"><path d="M64.5 0H17.834c-.645 0-1.167.522-1.167 1.167v11.666a5.84 5.84 0 005.833 5.834h4.667v3.5H26A1.167 1.167 0 0024.906 21L6.239 19.833A1.167 1.167 0 005 21v4.667c0 .644.523 1.166 1.167 1.166h.072l18.667-1.166A1.167 1.167 0 0026 24.5h1.167v2.333c0 .645.522 1.167 1.167 1.167h2.333v3.5c0 .644.522 1.167 1.167 1.167H33v1.166a1.167 1.167 0 002.334 0v-1.166H36.5c.645 0 1.167-.523 1.167-1.167V28H40c.645 0 1.167-.522 1.167-1.167v-8.166H47v32.666H35.334a5.84 5.84 0 005.833-5.833v-7c0-.644-.523-1.167-1.167-1.167H28.334c-.645 0-1.167.523-1.167 1.167v1.167H26A1.167 1.167 0 0026 42h1.167v3.5A5.84 5.84 0 0033 51.333h-9.333a5.84 5.84 0 00-5.833 5.834v11.666c0 .645.522 1.167 1.166 1.167h45.5c.644 0 1.167-.522 1.167-1.167V1.167C65.667.522 65.144 0 64.5 0zM23.667 23.404L7.334 24.425v-2.184l16.333 1.021v.142zM29.5 45.5v-5.833h9.334V45.5a3.5 3.5 0 01-3.5 3.5H33a3.5 3.5 0 01-3.5-3.5zM47 67.667H20.167v-10.5a3.5 3.5 0 013.5-3.5H47v14zM35.334 30.333H33V28h2.334v2.333zm3.5-4.666H29.5v-7h9.334v7zm24.5 42h-14V17.5c0-.644-.523-1.167-1.167-1.167H22.5a3.5 3.5 0 01-3.5-3.5v-10.5h44.334v65.334z" fill="#fff"/><path d="M55.167 15.167a5.833 5.833 0 10-5.833-5.834 5.84 5.84 0 005.833 5.834zm0-7h-3.285a3.5 3.5 0 110 2.333h3.285a1.167 1.167 0 000-2.333zm-2.333 17.5c-.645 0-1.167.522-1.167 1.166v2.334a1.167 1.167 0 002.333 0v-2.334c0-.644-.522-1.166-1.166-1.166zm0 7c-.645 0-1.167.522-1.167 1.166v2.334a1.167 1.167 0 002.333 0v-2.334c0-.644-.522-1.166-1.166-1.166zm0 7c-.645 0-1.167.522-1.167 1.166v2.334a1.167 1.167 0 002.333 0v-2.334c0-.644-.522-1.166-1.166-1.166z" fill="#fff"/></svg>