<svg width="70" height="70" fill="none" xmlns="http://www.w3.org/2000/svg"><path d="M66.982 36.788l-3.089-9.503a29.302 29.302 0 00-8.053-12.522 29.303 29.303 0 00-13.175-6.935L35.883 6.26l-18.82-4.094a1.027 1.027 0 10-.438 2.007L35.42 8.262l.04.009c4.287.945 7.458 4.5 7.894 8.855.532 5.325 1.686 11.245 3.429 17.596 2.319 8.45 2.206 15.514 1.703 19.952-.396 3.49-1.087 5.946-1.443 7.045H33.328a1.027 1.027 0 100 2.055H47.19l2.174 3.645c.09.152.041.285.004.35a.336.336 0 01-.303.176H5.407a.337.337 0 01-.303-.176.337.337 0 01.004-.35l2.174-3.645h21.937a1.027 1.027 0 100-2.055H7.459c-1.657-5.48-2.288-10.358-1.98-15.287.288-4.59 1.352-8.656 2.478-12.961 1.402-5.362 2.853-10.906 2.998-18.068.08-3.964-2.334-9.13-4.374-12.765-.139-.346.045-.591.417-.56L12.612 3.3a1.027 1.027 0 10.437-2.007L7.435.07C5.459-.437 3.726 1.9 4.789 3.643c1.568 2.794 4.187 8.032 4.112 11.718-.14 6.919-1.56 12.343-2.931 17.59-2.247 8.59-4.37 16.71-.388 29.662l-2.238 3.754a2.376 2.376 0 00-.026 2.417A2.376 2.376 0 005.407 70h43.659c.875 0 1.656-.454 2.088-1.216a2.375 2.375 0 00-.025-2.417l-2.224-3.73c.355-1.041 1.158-3.702 1.612-7.643.534-4.635.664-12.009-1.753-20.816-1.547-5.638-2.62-10.92-3.196-15.73a15.707 15.707 0 019.549 9.354c.455 1.26 2.407.52 1.925-.718A17.759 17.759 0 0045.303 16.21a12.1 12.1 0 00-3.128-6.387l.028.007a27.247 27.247 0 0112.248 6.448A27.244 27.244 0 0161.94 27.92l3.09 9.503c.193.597.093 1.23-.276 1.738s-.94.799-1.568.799a1.946 1.946 0 01-1.816-1.261l-3.06-8.216a1.028 1.028 0 00-1.925.718l3.06 8.215a4.01 4.01 0 003.741 2.598c1.293 0 2.47-.6 3.23-1.646.76-1.045.966-2.35.567-3.58z" fill="#fff"/><path d="M32.522 50.892a4.509 4.509 0 004.504-4.504v-22.92a4.51 4.51 0 00-4.504-4.504 4.51 4.51 0 00-4.503 4.504v22.92a4.509 4.509 0 004.503 4.504zm0-29.877c1.353 0 2.453 1.1 2.453 2.453v22.92c0 1.352-1.1 2.453-2.453 2.453a2.456 2.456 0 01-2.453-2.453v-1.085h1.69a1.025 1.025 0 100-2.05h-1.69v-3.731h1.69a1.025 1.025 0 100-2.05h-1.69V33.74h1.69a1.025 1.025 0 100-2.051h-1.69v-3.73h1.69a1.025 1.025 0 100-2.051h-1.69v-2.441c0-1.353 1.1-2.453 2.453-2.453z" fill="#fff"/></svg>