<svg width="24" height="24" fill="none" xmlns="http://www.w3.org/2000/svg"><g clip-path="url(#clip0)" fill="#5B6460"><path d="M4.227 16.536c.242-.12.71-.354.71-1.185 0-.597-.363-1.484-1.782-1.484H.343v5.787h2.45c1.186 0 1.5-.201 1.83-.526a1.68 1.68 0 00.499-1.19c0-.573-.185-1.137-.895-1.402zm-2.723-1.668h1.387c.548 0 .886.145.886.62 0 .461-.377.646-.855.646H1.504v-1.266zm1.482 3.787H1.504v-1.548h1.54c.436 0 .87.195.87.701-.002.587-.34.847-.928.847zM.344 20.57v.527h.895v2.439h.618v-2.44h.898v-.525H.344zm19.927-4.334l2.362-2.37H21.07l-2.209 2.352v-2.352h-1.209v5.786h1.21v-1.958l.564-.58 1.788 2.538h1.556l-2.499-3.416zm-11.343-2.37H7.534l-2.061 5.787h1.272l.403-1.192h2.135l.372 1.191h1.313l-2.04-5.786zM7.47 17.46l.742-2.288h.016l.717 2.288H7.47zm6.852-14.934a7.258 7.258 0 00-1.232-1.173 5.671 5.671 0 00-.753-.48A4.605 4.605 0 0011.446.5c.005.35.066.656.138.957.068.291.16.565.266.828-.255.075-.566.18-.916.316-.226.102-.473.193-.723.328a7.474 7.474 0 00-.772.433c-.265.15-.512.362-.771.545-.236.225-.496.42-.706.674-.217.244-.43.488-.593.766-.084.135-.18.26-.249.398-.066.14-.13.28-.192.415-.14.263-.205.546-.279.804a3.261 3.261 0 00-.142.737c-.02.23-.068.435-.057.622l.015.478c.008.263.01.412.01.412l.076-.406.087-.46c.027-.176.119-.364.182-.571a2.96 2.96 0 01.277-.64c.118-.217.226-.45.4-.652.08-.103.16-.21.24-.316.085-.103.193-.192.287-.289.183-.2.407-.362.629-.522.211-.168.47-.282.692-.42.255-.102.478-.229.728-.302.239-.087.473-.16.703-.212.223-.065.448-.094.644-.136.125-.018.241-.033.352-.047-.013.034-.027.065-.038.1a5.94 5.94 0 00-.265.987 9.084 9.084 0 00-.07.534 4.017 4.017 0 00-.004.576 4.25 4.25 0 00.522-.243 5.877 5.877 0 001.247-.935c.48-.464.877-.982 1.21-1.539l.042-.07a.973.973 0 00-.094-1.124zM5.473 22.865c0-.553-.133-.644-.376-.75.293-.1.459-.38.459-.708 0-.256-.144-.837-.933-.837h-1.5v2.963h.609v-1.159h.64c.458 0 .483.158.483.56 0 .306.024.46.065.599h.686v-.078c-.133-.049-.133-.157-.133-.59zm-1.017-.988H3.73v-.795h.772c.362 0 .433.23.433.388 0 .292-.157.407-.48.407zm12.401-.78v-.526h-2.109v2.965h.62V22.29h1.304v-.525h-1.304v-.668h1.49zm1.023 1.913v-.766h1.444v-.524H17.88v-.623h1.574v-.525h-2.18v2.964h2.25v-.526H17.88zm-4.38-1.164l-.72-.178c-.125-.03-.316-.08-.316-.31 0-.268.283-.355.517-.355.541 0 .591.313.608.445h.592c-.004-.363-.247-.957-1.156-.957-.962 0-1.139.582-1.139.912 0 .653.462.762.942.872l.317.075c.312.076.536.136.536.369 0 .31-.327.382-.618.382-.542 0-.625-.313-.63-.479h-.591c0 .37.184.991 1.266.991.258 0 1.168-.08 1.168-.97-.001-.532-.372-.7-.776-.797zm8.877 1.019c0-.553-.134-.644-.376-.75.292-.1.46-.38.46-.708 0-.256-.145-.837-.934-.837H20.03v2.963h.608v-1.159h.64c.457 0 .484.158.484.56 0 .306.023.46.065.599h.684v-.078c-.133-.049-.133-.157-.133-.59zm-1.015-.988h-.725v-.795h.77c.364 0 .434.23.434.388 0 .292-.156.407-.48.407zm-6.09-8.009v4.029h-.015l-2.297-4.029h-1.274v5.787h1.129v-4.126h.016l2.362 4.127H16.4v-5.788h-1.129zM7.565 20.57H6.85l-1.056 2.964h.653l.206-.611h1.093l.19.611h.674l-1.044-2.963zm-.747 1.841l.38-1.171h.006l.37 1.171h-.756zm3.999-1.841l-.001 2.064h-.007L9.63 20.57h-.652v2.963h.577V21.42h.01l1.209 2.114h.62v-2.963h-.578zm5.042-15.982c-.014-.261-.025-.41-.025-.41s-.021.148-.065.407l-.073.462c-.022.178-.108.368-.166.577a2.85 2.85 0 01-.255.649c-.112.22-.212.455-.381.662l-.23.324c-.082.105-.186.197-.28.297-.175.205-.394.374-.612.54-.204.175-.46.295-.68.44-.25.11-.47.244-.717.324a5.585 5.585 0 01-.697.232c-.22.073-.442.108-.637.155-.125.022-.242.041-.351.058.01-.034.023-.066.035-.1.104-.317.183-.648.235-.995.023-.176.04-.355.052-.537.01-.184.007-.375-.011-.575a4.024 4.024 0 00-.515.258 5.897 5.897 0 00-1.217.972 7.412 7.412 0 00-1.162 1.574l-.041.07a.972.972 0 00.128 1.121c.376.417.787.805 1.266 1.136.236.169.49.322.768.458.277.134.561.262.901.345a4.65 4.65 0 00-.166-.95 5.475 5.475 0 00-.291-.82c.254-.084.56-.198.905-.344.223-.107.467-.206.714-.348.248-.128.502-.284.755-.456.26-.158.5-.377.756-.569.229-.23.482-.434.685-.694.21-.25.414-.5.57-.782.08-.138.17-.266.236-.406l.18-.421c.132-.267.189-.553.255-.812a3.3 3.3 0 00.12-.74c.015-.23.055-.436.039-.624-.012-.184-.02-.345-.028-.478z"/></g><defs><clipPath id="clip0"><path fill="#fff" transform="translate(0 .5)" d="M0 0h23.113v23.113H0z"/></clipPath></defs></svg>