<svg width="37" height="37" fill="none" xmlns="http://www.w3.org/2000/svg"><g clip-path="url(#clip0)" fill="#5B6460"><path d="M6.526 14.882a1.475 1.475 0 00-.542-.585 2.535 2.535 0 00-.862-.316 7.046 7.046 0 00-1.17-.092l-2.071.001a.519.519 0 00-.477.378L.011 20.337c-.05.205.084.377.3.377h.991a.508.508 0 00.476-.377l.34-1.473a.508.508 0 01.476-.377h.284c1.212-.001 2.151-.249 2.826-.745.678-.497 1.012-1.154 1.012-1.967 0-.356-.059-.655-.19-.893zm-2.139 1.982c-.3.22-.716.33-1.254.33h-.242c-.216 0-.349-.17-.302-.379l.299-1.288a.502.502 0 01.472-.377l.325-.002c.38 0 .669.066.862.193.192.126.288.326.286.59.006.404-.148.714-.446.933zm30.408-2.5l-.062.019-.083.011-.102-.016-.052-.05-.023-.08-.002-.119v-.441h.332v-.137h-.332v-.275h-.164v.275h-.111v.137h.111v.513l.077.255.225.08.095-.008.1-.019v-.145h-.009zm1.538-.743l-.237-.097-.175.035-.177.12-.104-.115-.167-.04-.161.036-.153.098v-.107H35v.964h.16v-.72l.135-.083.134-.034.11.02.054.056.024.092.008.12v.55h.16V13.9l-.002-.05-.003-.048.137-.087.136-.034.106.02.058.055.02.093.011.118v.55h.162v-.625l-.076-.27zM11.308 15.75c-.374-.212-.965-.317-1.773-.317-.399 0-.797.03-1.2.093-.296.045-.325.054-.508.094-.377.082-.436.458-.436.458l-.121.5c-.069.318.114.306.191.28.165-.05.256-.1.593-.176.321-.073.66-.128.929-.124.396 0 .7.042.902.127.2.087.299.236.299.45l-.017.141-.143.088c-.563.035-.97.087-1.463.159a4.536 4.536 0 00-1.257.346c-.378.166-.658.39-.854.673-.19.285-.284.631-.284 1.037 0 .382.137.698.404.942.268.24.622.357 1.045.357.268-.002.475-.022.622-.058l.48-.165.407-.226.375-.247.005.008-.038.159-.002.006v.002c-.04.193.076.352.265.37l.004.005h.92l.013-.006a.513.513 0 00.427-.371l.723-3.13.038-.255.017-.239c.003-.443-.188-.772-.563-.982zm-1.6 3.518l-.154.204-.39.201a1.389 1.389 0 01-.518.112c-.245 0-.436-.035-.565-.108l-.192-.371c0-.202.047-.362.146-.484l.42-.286c.18-.061.4-.112.654-.148.226-.028.674-.08.733-.08l.068.12c-.013.069-.14.6-.201.84zm19.612-3.514c-.377-.211-.967-.318-1.772-.318-.4 0-.798.031-1.199.096-.297.043-.327.053-.51.091-.377.082-.435.46-.435.46l-.122.498c-.068.319.112.304.195.28.166-.05.255-.098.588-.176.32-.072.662-.125.931-.124.395 0 .699.043.9.128.201.087.3.237.3.45l-.016.14-.142.09a15.71 15.71 0 00-1.463.157 4.537 4.537 0 00-1.259.346c-.376.167-.66.39-.853.675-.192.285-.285.63-.285 1.032 0 .385.136.701.406.944.27.239.62.359 1.043.359.266-.003.474-.02.622-.059l.479-.163.41-.226.371-.25.007.009-.034.16-.004.003.002.003c-.045.193.072.354.263.37l.002.005h.92l.015-.006a.508.508 0 00.422-.374l.725-3.125.038-.256.021-.24c0-.442-.188-.77-.566-.98zm-1.596 3.518l-.16.206-.387.2a1.405 1.405 0 01-.517.112c-.252 0-.438-.036-.564-.108l-.193-.37a.78.78 0 01.141-.486c.096-.118.243-.215.425-.285.178-.06.397-.11.653-.147.225-.028.672-.08.73-.081l.07.12a28.8 28.8 0 01-.198.84zm-3.189-4.368a1.534 1.534 0 00-.546-.586 2.435 2.435 0 00-.862-.317 6.815 6.815 0 00-1.166-.09h-2.074a.515.515 0 00-.473.378l-1.395 6.071c-.05.206.088.377.3.377l.992-.002a.514.514 0 00.477-.376l.336-1.474a.514.514 0 01.477-.376h.284c1.214 0 2.155-.25 2.832-.745.67-.5 1.009-1.155 1.009-1.97-.004-.354-.066-.654-.191-.89zm-2.139 1.986c-.299.215-.716.325-1.25.325h-.248a.297.297 0 01-.303-.378l.3-1.286a.504.504 0 01.474-.377l.322-.002c.38.002.667.065.862.192.194.127.286.327.288.591.002.403-.147.714-.445.935zm10.642-2.553c.046-.207-.084-.376-.297-.373h-.889c-.182 0-.346.136-.426.302l-.049.076-.045.197-1.241 5.643-.04.174v.004c-.04.186.074.326.25.353l.015.02h.922c.18 0 .35-.137.428-.306l.048-.072 1.327-6.017h-.003zm-14.991 1.172c-.235.002-1.19 0-1.19 0-.213 0-.487.172-.623.378 0 0-1.42 2.437-1.558 2.682l-.165-.002-.442-2.663c-.049-.21-.268-.389-.54-.389l-.889.002c-.213 0-.345.17-.296.378 0 0 .674 3.839.81 4.742.062.499-.009.588-.009.588l-.878 1.53c-.13.207-.06.377.153.377l1.027-.001c.214 0 .495-.169.622-.377l3.951-6.683c0 .001.38-.57.027-.562z"/></g><defs><clipPath id="clip0"><path fill="#fff" d="M0 0h36.409v36.409H0z"/></clipPath></defs></svg>