<svg width="35" height="36" fill="none" xmlns="http://www.w3.org/2000/svg"><g clip-path="url(#clip0)" fill="#5B6460"><path d="M13.834 12.856L12.078 23.16h2.808l1.757-10.304h-2.81zm-4.111.011l-2.75 7.027-.294-1.06c-.542-1.28-2.082-3.115-3.89-4.272l2.515 8.593 2.972-.006 4.422-10.284-2.975.002z"/><path d="M5.614 13.605c-.164-.628-.637-.815-1.224-.837H.036L0 12.973c3.388.822 5.63 2.802 6.56 5.183l-.946-4.551zm16.721 1.226a5.184 5.184 0 012.102.395l.253.119.38-2.234a7.248 7.248 0 00-2.516-.432c-2.775 0-4.73 1.397-4.746 3.4-.018 1.48 1.394 2.306 2.46 2.8 1.094.505 1.46.827 1.456 1.278-.009.69-.873 1.006-1.68 1.006-1.124 0-1.721-.155-2.644-.54l-.362-.164-.395 2.306c.658.288 1.87.536 3.13.55 2.951 0 4.87-1.382 4.89-3.522.012-1.17-.737-2.064-2.36-2.797-.982-.478-1.583-.796-1.577-1.279 0-.428.51-.886 1.609-.886zm9.942-1.964h-2.17c-.674 0-1.175.184-1.471.855l-4.17 9.444h2.95s.48-1.27.59-1.548l3.596.004c.083.36.342 1.544.342 1.544h2.605l-2.272-10.299zm-3.463 6.642l1.119-2.88c-.016.028.228-.596.374-.984l.189.889.65 2.975h-2.332z"/></g><defs><clipPath id="clip0"><path fill="#fff" transform="translate(0 .722)" d="M0 0h34.549v34.549H0z"/></clipPath></defs></svg>