<svg width="21" height="21" fill="none" xmlns="http://www.w3.org/2000/svg"><g clip-path="url(#clip0)" fill="#E9ECE0"><path d="M10.504 5.108a5.388 5.388 0 100 10.777 5.388 5.388 0 100-10.777zm0 8.886A3.497 3.497 0 1114 10.497a3.496 3.496 0 01-3.498 3.497z"/><path d="M14.83.066c-1.932-.09-6.718-.085-8.652 0-1.699.08-3.198.49-4.406 1.699-2.02 2.02-1.761 4.74-1.761 8.731 0 4.085-.228 6.743 1.761 8.732 2.027 2.027 4.788 1.761 8.732 1.761 4.046 0 5.442.003 6.873-.55 1.945-.756 3.413-2.494 3.557-5.617.09-1.933.085-6.718 0-8.652C20.76 2.484 18.782.248 14.83.066zm3.058 17.826c-1.324 1.324-3.16 1.206-7.41 1.206-4.375 0-6.13.065-7.41-1.22-1.474-1.466-1.207-3.823-1.207-7.396 0-4.834-.496-8.316 4.356-8.564 1.115-.04 1.443-.053 4.249-.053l.04.027c4.662 0 8.32-.489 8.54 4.362.05 1.107.062 1.44.062 4.242-.001 4.324.08 6.089-1.22 7.396z"/><path d="M16.105 6.155a1.26 1.26 0 100-2.519 1.26 1.26 0 000 2.519z"/></g><defs><clipPath id="clip0"><path fill="#fff" d="M0 0h21v21H0z"/></clipPath></defs></svg>