<svg width="72" height="66" fill="none" xmlns="http://www.w3.org/2000/svg"><path d="M5.355 62.757v-.926h-2.21v.781h1.292v.34c0 .199-.022.375-.068.528a1.205 1.205 0 01-.672.74c-.169.073-.353.11-.552.11-.18 0-.348-.032-.501-.094a1.21 1.21 0 01-.578-.527 1.578 1.578 0 01-.11-.349 5.174 5.174 0 01-.052-.518 14.218 14.218 0 01-.017-.765c0-.306.006-.558.017-.756.012-.204.029-.374.051-.51a1.45 1.45 0 01.111-.349 1.25 1.25 0 01.187-.264 1.21 1.21 0 01.892-.373c.34 0 .618.093.833.28.216.181.363.44.442.774h.927a2.634 2.634 0 00-.238-.731 2.015 2.015 0 00-1.105-.995A2.253 2.253 0 003.145 59c-.323 0-.617.057-.884.17-.26.108-.495.266-.705.476-.147.147-.26.303-.34.468-.08.164-.139.342-.179.535a4.33 4.33 0 00-.059.646 32.358 32.358 0 000 1.572c.006.233.025.445.06.638.04.193.099.371.178.535.08.165.193.32.34.468.21.21.448.371.714.485.266.107.558.161.875.161.323 0 .624-.054.901-.161a2.12 2.12 0 00.765-.527c.199-.216.338-.457.417-.723a3.28 3.28 0 00.127-.986zm5.954 2.346v-.825H8.394v-5.227h-.918v6.052h3.833zm6.266 0l-2.218-6.052h-.74L12.4 65.103h.977l.417-1.215h2.388l.417 1.215h.977zm-1.649-1.997h-1.861l.943-2.687.918 2.687zm7.055.271c0-.26-.042-.495-.127-.705a1.35 1.35 0 00-.366-.535 1.569 1.569 0 00-.45-.273 2.906 2.906 0 00-.68-.178l-.689-.102c-.294-.045-.521-.139-.68-.28a.739.739 0 01-.178-.247.939.939 0 01-.051-.315c0-.271.093-.495.28-.671.193-.181.468-.272.825-.272.255 0 .49.034.705.102.221.062.425.184.612.365l.587-.578a2.456 2.456 0 00-.833-.527A3.047 3.047 0 0020.89 59c-.317 0-.6.042-.85.127a1.798 1.798 0 00-.637.366c-.17.159-.303.349-.4.57a1.83 1.83 0 00-.136.713c0 .493.148.879.442 1.156.272.255.655.417 1.148.485l.714.102c.181.028.317.06.408.093.09.035.175.088.255.162.159.142.238.351.238.629 0 .295-.11.524-.332.688-.215.16-.521.239-.918.239a2.77 2.77 0 01-.841-.12 1.844 1.844 0 01-.706-.458l-.612.603c.29.295.604.501.944.62.34.12.74.179 1.198.179.318 0 .61-.04.876-.119.266-.08.496-.195.688-.349a1.607 1.607 0 00.612-1.309zm6.289 1.726v-6.052h-.918v2.584h-2.457v-2.584h-.918v6.052h.918V62.46h2.457v2.643h.918zm6.14-6.052h-1.002l-1.267 2.66-1.266-2.66h-1.003l1.81 3.561v2.491h.918v-2.49l1.81-3.562zm5.312.825v-.825h-4.25v.825h1.666v5.227h.919v-5.227h1.665zm5.522 0v-.825h-4.25v.825h1.666v5.227h.918v-5.227h1.666zm5.674 5.227v-.825h-2.95V62.46h2.517v-.816h-2.516v-1.767h2.95v-.825H48.05v6.052h3.867zm6.431 0l-1.394-2.677c.34-.097.626-.278.858-.544.233-.273.349-.627.349-1.063 0-.255-.045-.49-.136-.706a1.48 1.48 0 00-.374-.56 1.67 1.67 0 00-.595-.366 2.069 2.069 0 00-.774-.136h-2.346v6.052h.918v-2.55h1.148l1.275 2.55h1.07zm-1.105-4.275c0 .3-.096.532-.29.697-.186.164-.433.246-.739.246h-1.36v-1.895h1.36c.306 0 .553.085.74.255.193.164.289.396.289.697zm7.584 4.275v-6.052h-.918v4.25l-2.796-4.25h-.842v6.052h.918v-4.258l2.797 4.258h.841zm6.211 0v-.825h-2.95V62.46h2.516v-.816H68.09v-1.767h2.95v-.825h-3.87v6.052h3.868z" fill="#333"/><path fill-rule="evenodd" clip-rule="evenodd" d="M38.728 45.144L70.48 49.96V21.426L38.047 5.02 17.895.84 1.787 13.892V49.12l36.941-3.976zM1.007 49.989V13.52L17.69 0l20.617 4.278L71.26 20.946v29.923L38.711 45.93 1.007 49.989z" fill="#333"/><path fill-rule="evenodd" clip-rule="evenodd" d="M67.69 24.209l-6.505 6.765-.562-.541 6.505-6.765.562.54zm-17.996 8.527l5.724 4.424-.477.617-5.724-4.423.477-.618z" fill="#333"/><path fill-rule="evenodd" clip-rule="evenodd" d="M60.388 49.178V8.196h.781v40.982h-.78zM54.713 26.82V1.04h.781v25.78h-.78z" fill="#333"/><path fill-rule="evenodd" clip-rule="evenodd" d="M54.713 54.902V24.068h.781v30.834h-.78zM68.45 27.971h-4.423v-.78h4.423v.78zM17.399 47.746V.521h.78v47.225h-.78zm20.556-2.081V4.684h.78v40.98h-.78z" fill="#333"/></svg>