<svg width="36" height="39" fill="none" xmlns="http://www.w3.org/2000/svg"><path d="M15.065 14.229c-1.41-3.273-2.971-9.95-7.775-8.34C2.94 7.346.696 10.97 1.356 15.59c.839 5.867 3.97 11.317 7.542 15.904 2.728 2.759 4.373 3.886 8.057 6.163m-2.268-23.45c1.929-4.846 4.07-8.95 8.639-11.553 1.333-.76 4.155-1.697 5.763-1.419 1.754.303 3.688 1.803 4.502 3.277 1.142 2.068 1.61 3.647 1.435 6.059-.196 2.71-1.026 5.304-2.248 7.727-1.637 3.245-4.168 6.178-6.503 8.934-3.02 3.561-6.335 6.81-9.29 10.422" stroke="#5B6460" stroke-linecap="round" stroke-linejoin="round"/></svg>