<svg width="502" height="352" fill="none" xmlns="http://www.w3.org/2000/svg"><g clip-path="url(#clip0)"><path d="M123.392 262.77l-.452.301-.753-.753-.151-.452-.602-.653.402-.402.502.402.1.452.502.452.452.653zm-4.418 16.169l-4.819.251-4.016-4.369 3.815-.753 1.205-.854 1.104-1.757.352.602.301.101.552-.703v-.653l-.803-.803-1.104-.804-1.055-.301-.753.452.452-1.707 1.155-.804 1.205-.1.903.452-.351.1-.854.703.804.452.903.1.904-.2.753-.352v-.803h-.904l.904-.703-2.811-2.612-1.506-.853-1.557-.101 1.356-1.054 6.827 1.255.803 1.256 1.406.803.753-.1.652-.703h-1.004l-.451-.251-.402-.452.552-.854.703-.603-.904-.703 1.155-.451 1.606.502 1.506-.051.954-2.058-1.556.904-.853.1-.352-.703.301-1.255.753-.603 1.406-.703-.904-.603-1.355-.15-1.406.201-1.004.552.302-1.808-.553-.803-.903-.201-1.255.05-.803.452-.352.502-1.707-.351 1.356-1.155.452-.854-.251-1.556.853-.603 6.325-.201 5.472 1.908.452 7.432-2.259 10.896-8.233 3.566-4.217 4.469v0zM77.86 144.365l-.2.251-.352-.401.602-.402-.05.552zm1.054-10.846l-.351.552v-.954l.803-.552-.15.603-.302.351zm8.484-8.436l-.25.904-.854.402-.251-.352.502-.653.2.101.653-.402v0zm23.946-1.004l-.402.05.201-.653.351-.301.251.251-.401.653v0zm-47.64-.703l-.452.703-.15-.301.602-.402zm93.673 32.287v.954l.452 1.507.05 1.858-.151 1.958.051.954.2 1.105.352 1.305.703 1.507 1.104 3.013.753 4.067.251 1.155.753 1.757-3.012-.1-1.506-.552-1.355-.804-3.514-3.113.05-1.105-.201-.853-.803-.854-.803-1.406-.452-.502-.803-.753-.302-.553-.301-1.004-.703-2.46-.15-1.808.15-1.256.302-1.004 1.154-2.41.301-.803.051-.754-.101-.853-.853-2.863-.402-1.506-.301-.753-2.359-2.913-1.055-.652-.301-.402-.351-.803-1.255-1.607-2.661-5.474-.803-2.41-.351-.653-.502-.301h-1.657l-3.916 1.105-1.355-1.657-.301-.603-.101-.653.151-.753.502-.904 1.104-1.004.352-.452.1-.452-.15-1.105.251-1.707.15-1.255-.05-3.264-.502-1.456-1.205.853-.552.904-1.104 2.812-.804.703-4.367 1.456-1.556.051-3.263-.754-2.661.804-.903-.05.903-1.708.954-1.255-1.657-1.657-.602-1.155-.201-1.707-.602.452-.653.301-.652.1-.603-.1.251 1.557-.401.502-.653-.151-.502-.402-.402-1.004-.853-2.611-.602-.904.251 1.858-.101 1.557-.401 1.355-.653 1.256-.803 1.004-.452.402-.452.15-.401 1.507-.402 1.004-.402.452-1.757.151-.753-.302-1.204-1.908-2.661-2.46-1.908-1.005-.25-.954.853-1.807 1.004-.703 5.02-1.105 2.108-1.506 1.105-.352.502-.452.1-1.155v-1.305l.151-.954.351-.804.502-.552 1.004-.854-1.355.402-3.314 4.871-1.556 1.305-1.456.703-3.212.201v-.703l1.907-1.406.603-.803v-.804l-.954.05-.653.653-1.205 1.607-.903.352-.603-.402-.502-.653-.803-.1v.803l.552.854-.25.954-.653.853-2.51 1.005-.653-.352-.502-1.908-.05-1.757.15-1.356v-1.356l-.602-1.858-.853-3.917-.552-1.305-.553 1.004v1.758l.05 1.205.703 2.31.05.903-.3.854-.854 1.958-.502.754-.552.05-.653-1.055-.903-2.058-.352-.201-.301 2.862-.351.854-.502.401-.553-.05-.351-.452-.402-.854-1.004-3.464-.2-1.808.3-1.808 1.055-2.109-.402-.602-.451.552-.402.05-1.255-.803h-.753l-.251.201-.2.602v.653l.4 2.36.453 1.356 1.255 8.386-.653.703-.753-.201-.853-.402-.804-.1v-.653l.251-.904-.25-.753-.503-.502-.602-.151-1.506.452-.502-.1-.05-1.055-.352.1-1.154-.1v-.803l1.104-1.105 2.008-2.812 1.255-.603-.502-1.205-.753-.853-1.606-1.005-.251 2.461-.904 2.109-1.154 1.054-.904-.703-.301-1.205-.201-1.356-.301-1.104-.452-.452-.15.753-.201 3.465-.151 1.054-.954 1.256-2.76.652-1.256.754-2.51-1.256-1.355-1.356.15-1.606v-.703l-1.255.753-.753 2.159-.1 2.41.853 1.406v.854l-.552.602-1.054 1.708-.602.602-.703.251-3.062-.401-1.205-.553-.753-.1-.703-.352-.552-.803-.502-1.004-.552.1-.653.603.653.753-1.306.552-2.41 2.009-6.124 1.255-1.405-.803-.05 1.305-.201.402-.653.502-1.707 3.013-8.333 2.31-2.108-.251-1.858-1.256v-.803l.251-.904-.15-.753-.452-.753-.552-.603.803.101.351.2.402.452.1-2.008-.803-1.004-1.054.15-.452 1.456-1.104-1.657-6.978-2.912-12.901 1.406-1.657-.301-1.004-1.858 2.008-1.205 1.004-1.005.402-1.104.602-.754 2.66-1.707.804-.954.15-1.707v-1.959l.251-1.657 1.406-.954.803-1.054.653-.251 1.154.201 4.418 2.661 1.255.201.803.502 2.46 3.214 1.807 1.104 3.163.904.753 1.004.652 1.256.804 1.004 1.355.703 1.355-.1 2.56-1.306-2.058.05-1.104-.301-.853-.452-.753-1.004-.603-1.256-.703-1.154-.903-.452-2.26-2.511-1.254-2.159-1.406-1.959-.803-1.556 6.827 1.406 4.468 2.611 1.406.452-.854-1.708-1.255-1.406-1.255-1.004-2.008-.753-2.36-1.607-2.057-.753-1.004-.954-1.657-2.36-1.857-3.816-.151-1.406.05-1.356-.05-1.306-.452-1.305 1.908-1.708 1.958.151 19.176 10.746.402.552.803 1.657 1.255.954.301.553.452 1.958-.201 1.255-.452 1.155-.401 1.657.803.452 1.054-.853 1.857-2.612.201.553.703.954.502-1.055 2.46.653 1.104-.351v-.754l-.602-.451-.301-1.055.753-.05 2.058-1.456.703-.101.753.101.702-.051.603-.703-5.372.452-2.46-.803-1.807-1.155-.602-.753-.803-1.306-.452-1.205.452-.552 2.811-1.356.602.251.753.653 3.665-.502 1.205-1.105.903-.251 2.008.803.954.1.954-.903-.853-.753h-.402v-.653l2.159-1.507.652-.853-2.51.351-1.405.703-1.958 1.758-12.249-.301-2.41-1.005-1.556-1.506-2.41.904-.552-.502-.602-1.105-2.66-3.013-1.456-3.013-.954-3.615.15-3.364 1.908-2.21.904-.05 2.61 1.556 3.363.804.854.552 1.456 1.808.803.653.853.1 2.862-.853 5.622 2.26h1.857l3.213 2.41 1.757.753 1.607-.804-3.765-1.205-1.205-1.557-3.765-.351-1.155-.703-2.108-1.908-4.719-1.155-1.054-.803-2.46-3.365-1.255-.703-.602-1.054-.954-.452-2.109-1.959-1.857-2.61-.402-.905v-3.464l.251-1.808.703-1.356 1.858-.653 2.359.503 8.233 5.071 2.41.603 1.606-.904.2 1.757.553 1.457.803 1.054.904.352v-.704l-.753-1.154-1.406-3.515-.904-.703-1.054-.251-2.058-1.055-1.104-.251-.502-.352-1.406-1.958-2.66-2.41-1.507-2.16 1.456-1.205 3.966-.401 3.012.502 4.016 3.364-1.104-1.054-1.757-2.963-1.055-.602-4.317.1-1.104-.803v-.854l.452-.854.652-1.004.753-.854.803-.351 1.858-.1.703-.653.1-1.456 1.004-.553 7.128 2.059 4.619 3.465 1.355.301.904.753 1.154 1.707.804 2.009-.201 1.707.3 2.41 2.26-3.565.904-.401.451.301.452.653.653 1.406.803 1.205.1.602v1.657l.251 1.808.05 1.055-.3.853-.754 1.406-.15.251-2.058 3.867-.452 1.105h.3l.955-1.557 2.51-3.113.903-1.507.452-1.908.301-.803.452-.352.552.352.352.853.652 2.662.352.15.753-1.054.703-.603.702.703-.803 2.611-1.054 2.612-1.305 2.108-1.506 1.055 1.807-.1.853-.452.753-.954.854-2.863.652-1.707.502-.351.653 3.012-.301 3.114-.402 2.61.251 1.558 1.556-5.373-.1-2.511.2-2.862.352-2.662.502-1.908.352-.803.25-.201 3.063.301.3.352.152 1.506.25.904.402.602 1.757 1.858 1.607 3.114.3.401.05.503-.25 2.41-.15 1.255-.302 1.055-.351.552.3.703-2.308 6.528-.502 2.059.351.954.552-.201 1.105-4.268 3.012-8.135.3-2.21v-.803l.955-.2.602 1.054.552 1.607.703 1.406.301.05.552-.251.352.954v.904l-.251.853-.05.753.652.553.251-1.707.302-.854.35.251v.753l-.3 3.817-.402 1.255-1.054 2.109-.402 1.255v.703l1.707-1.004 1.807-6.227 1.456-1.154v-.804l-.954-1.055-.502-2.108-.351-2.511-.402-1.959-.652-1.556-.854-1.506-.953-1.156-.954-.401.451-1.456.201-1.406.251-1.256.653-1.104.904-.452.903-.05.753-.402.552-1.507h-.954l-2.208 1.155-.854.854-.853.301-3.815-1.908-2.51-2.661-10.793-4.72-3.213-3.415-1.857-4.971 2.108-1.406 6.727-1.808 1.456.05 4.819 1.557h1.205l.502.2.602 1.407 1.205 1.255.652.201.653-.703-.552-.904-.402-1.456h2.26l1.154-.301 1.957-1.607 2.26-.251 1.054-.854-6.175.954-1.857-.954-.904-.954.2-.15.704-.101.753-.803.502-.804.652-.703.753-.402.753.05v-.853l-1.004-.602-.602.25-1.807 1.909-2.31 1.255-2.66.301-2.159-.452-.351-.25-.1-1.256.401-.803.954-1.105.15-.804.252-2.31.2-.702.603-.703 2.158-.904-1.957.401-1.506 1.055-3.565 3.917-.853.502-1.908.301-.552-.653.301-1.506.703-1.557.653-.853v-.854l-1.556.653-.804.703-.753 1.004-1.807 3.264-.351.2-1.105 1.357-7.178-1.909-1.908-1.104-1.205-1.607-.753-.753-.3-.754.602-1.054 1.757-.1 2.158.853 1.958-.301 1.004-3.515-1.305-.201-1.406-1.105-1.355-1.606-.954-1.758 1.406-1.155 1.405.703 1.456 1.255 1.355.754-.351-1.306-.602-1.105 4.97-.853.35.15.252.452.401 1.406.251.452 1.004.251.402-.853-.15-1.105-.754-.603-.753-.301L72.64 11.6h4.569l.803.351 1.606 1.607 2.058.803 1.607 2.009.903.653 1.205-.201 1.757-2.11 1.054-.803-.25-1.556 1.756-.653 1.456 1.205 1.456 1.707 3.112 1.557.703-.15.2-1.407-.35-1.104-1.155-.854-.352-1.054 1.456.25 1.406 1.407 1.054 2.26.402 2.66.803 1.658 3.715 2.109 1.154 2.109-.652 1.154.552.653 1.958.452v.753l-.854-.25-.351.451-.05 1.005v1.205l.602 1.355.101.854-.703.804v.853l.602.753.603-.703.702-.552.753-.352h.703l.452.503.351.753.452.351 1.004-2.21.753-.2.402.753-.251 1.657 3.213-.351.803.351.401-.703.402-.05.753.753 1.857 3.063-.401.804-2.661 2.31.603.401.552-.3.602-.603.703-.352.653.15 2.158 1.808.552.854.352.301.452.05.903-.602.502-.1 2.862 1.506-.352 1.506.803.503.452 1.355v1.356l-.652.603.552 1.807.1.502.101 1.858.2 2.16.302.753.602.552.653-.1.803-.502.803-.201.552.803.101 1.557-.402 1.406-.552 1.305-.352 1.155.553-.15.753-.502.602-.653.251-.603.05-1.858-.05-.853-.954-2.26.552-.603 1.607-.853 2.058-.1.301.35.452 1.658.201.402.803.401-.502.854-1.004.803-.402.151-.301 1.105.201.803.853 1.507 1.155.954 4.92-1.356 1.305.351 1.104.603.803 1.305.553 2.36-6.376.603-1.255 1.055-4.769 1.406h-.703l.854 1.556 1.255-.15 2.56-1.406 4.267-.804 1.355.804-.552.954-1.958 1.406v.753l4.87-1.406 1.205 1.004.652 2.26.151 1.908-.552 1.456-1.356.854 2.159 1.506v.854l-2.209 5.272-.853 1.456-1.306 1.256-4.618 1.757v.854l.954.05 1.707-.301.753.25 2.409 1.558.753.703-3.765 4.519-1.305 1.054-6.175-.301-.451-.502-.954-1.758-.854-.652-.803-1.457-.552-1.556-.1-.954-1.105-1.557-1.405-.803-1.456.05-1.305.803.853.15 2.159 1.407.702.703.101.301.954 1.808.2.2.101 1.306-.151.904-.351.703-.552.904.702.753.402.553.151.602.251 1.456.502.804 1.556 1.506 7.58-.201 1.305.703.603 1.406-.452 1.256-2.36 3.766-.903 1.004v.753l2.209-1.255 2.761-2.511 2.409-.552 1.004 4.72-.954 4.017-2.309 3.867-2.66 2.812-2.159.853v.753l4.568-1.757 1.757-1.607 1.004-.351 1.004.2.653.603 1.305 2.159 1.707 1.657.452 1.105-.302 1.808.603.401.1.804-.1 1.155.05 1.355.251 2.411v1.707l-.201 2.159.05 1.105 1.757 5.674.603 1.105-.352.703.904.954.954 1.808.452 2.109-.402 1.908v.703l.753.652.251-.251v0zm175.299 146.123l-3.665.452v-.201l2.711-.653.803.151.151.251zm18.925-.502l-4.618.552 1.857-.552.251-.603 2.259.151.251.452v0zm7.379-1.406l-1.857.452.653-.553.853-.1.351.201v0zm-15.06-.703l-.2 1.004-.352-.201.201-1.355.251-.352.1.904v0zm15.261.15l-.401.101-.201-.352.351-.502 1.155-.904.201.151-1.105 1.506zm4.568-7.029l-2.56 3.816-.251-.251.151-.703 2.158-2.611.502-.251v0zm106.977-75.673l1.355.251.05.502-.201.402-.451.201-.553-.101-.301-.452-.301-.05.402-.753zm-145.48 86.167l-.1-1.155.2-17.976.251-2.059 1.657-6.327 21.084-45.243 8.634-17.625 1.105-3.866.954-4.168.251-1.456.15-1.808-.1-.954-.452-1.758-.1-.853-.251-.854-1.105-2.912-.05-.854.151-.854 1.204-2.711.653-1.004.351-.603.101-1.004-.301-1.205.1-1.356.301-1.607.201-.603.251-.351 1.155-.101 2.61-1.305.803-.201 1.858-.05.803-.201.803-.653 2.41-3.414 1.957-2.109.502-.402 3.012-.954.553-.452.652-.753 1.155-1.858.351-.854v-.602l-.803-.653-.151-.301-.05-.954.301-1.457.603-3.665v-2.36l-.101-1.406v-.904l.151-1.607-.151-.954.051-.804.301-1.556.552-1.456 1.255-1.959 1.355-2.812.502-.502 2.36-1.757.502-.603.351-.854.603-1.757.2-.904.051-.703-.251-1.305-.201-.754-1.305-2.259-.854-1.155-3.464-2.41-.2-.302-.452-.954v-1.004l.15-1.255.402-1.055.602-.703.904-1.757.803-.352.502-.452.552-.803.603-1.406.703-2.109.451-1.708.101-.803.301-2.661.251-.754.402-.502.652-.1 14.056 2.912.502-.1.101-.502.05-1.306.301-1.808 1.054-3.565.05-.954-.1-.853-.301-1.708-.101-1.104-.05-2.913-.201-1.406-.351-.853-.1-1.306.1-1.707.1-.754.251-.703.502-.351 9.438-2.611.351-.251.302-1.657.351-.703.703-.904.652-.552 2.41-1.457.602-.602.402-.804.602-2.56 4.067-.653 2.71-2.06 1.808-2.058 1.154-2.46 18.474-2.41 1.405-4.168 2.209-.553.452 2.46.05 1.256-.15.452-.553.603-.251.451.051 1.708-.051.502-1.004 2.712-.2.753-.502.502-2.962 3.665-3.313 2.561-1.055 1.306.101 1.958-.904 1.557-2.259 2.56 1.356-.1 1.204-.954 2.109-2.812-.703 2.26-1.305 2.51-.552 1.959 1.606.854 1.657-.502 3.564-2.06 9.739-2.66 3.514-1.959 1.857-.502 1.456 1.607-2.008 4.67-1.105 1.155.101.904.351.953.402.653 1.004.804 2.911 1.958.804 1.055-2.46.753-1.305 1.054-1.105 2.862-2.359 2.812-.904 2.31-3.464 4.168-.702 1.406-.502 1.657-.251 1.808.602-.854.954-2.41.452-.452.552-.301 1.506-1.607.452-.703.853-1.758 5.622-8.536 1.004-.703 1.205.301 3.615 2.712-.753-1.055-1.255-1.406-.502-1.205 9.939 5.976 1.305.201 4.97-1.256.854.101.502.552.351 1.306.05 1.154-.251.754-.602.2v.703l1.456-.05.602.201.452.653.05.753-.351 2.31.301.803.401.603.854.753 2.108-3.113 1.155-.904 1.355.352.251.451.101 1.758.251.05.652-.201.301.151 1.607 1.808.301.502.05 2.41-.652 1.507-.854 1.054-.452 1.004.101.603.552 2.109v.954l-.301.402-1.556 1.155.451.652v.854l-.15 1.004v1.205l-1.506 1.105-4.167-.602-1.807 1.004 1.155.954 3.514 1.255.15 1.808-1.054 1.205-1.456.653-2.259.05-.954.301-1.907 1.205-3.765.703-1.205.754.753 1.054 7.179-2.711 2.208.2 4.368-1.154 1.355.401 2.259 1.507 1.155 1.255.652 1.758-1.054.853-1.857 2.963-1.004.653-5.723 1.456h-6.074l-2.661.653h-2.761l1.406 1.154 5.271-1.154 6.978.803 3.112-.803h1.707l.452.401-.201.753-.703 1.206-.1.703v.903l-.201.503-1.757.803-1.506.151-1.406.552v.803l3.514-.753.803.753v.703l-.451.101-.402.301-.351.452-.352.653h1.406l.452.251.803 1.155.452-.301.753-1.507.351-.301.1-.452 1.306-2.561 1.857-2.209.151 1.556v2.31l-.151 2.209-.301 1.256v.803l.853.653.251 1.004-.301 1.306-.803 1.456-.904.854-1.907.602-.904.754.803 1.506.402 1.004-.151.452-.703.352-1.405 1.556-.703.352-3.263-.804-2.811.502-.904-.502-.452-1.004-.401-1.506-.452-1.306-.703-.602-.753-.252-1.506-1.004-2.359-.803-2.51-2.511-1.406-.552.251 1.155.502.903.552.553.502.301-1.606 1.858-9.287.352v.803l14.357 1.406.452.452.602.803.553 1.055.251 1.054.401.553 2.109 1.958 4.668 2.209.904 1.507-1.858 1.506-2.259-.351-3.965-1.908-4.518.753-2.761-1.205-.804.452 2.711 1.908 6.476 1.506 2.962 2.461.351.652.402.954.15.955-.451.351-.753.352-1.155 1.506-.602.351-4.719-1.857-1.356 1.205 4.92 2.008.803.804.05 1.155-1.305.401-5.17-.201-1.456-.602-.251.502-.402.402-.903.552v.803l1.405 1.758.703 1.155.703 1.456-.753.251-2.058 1.908-10.091 2.21-1.656-.553-.854-.552-.602-.703-1.305-4.168-1.155-1.205-1.255-2.46-.652-.553-3.565-.803.452.602.452.251 1.104-.05.603.502-.05 1.105-.302 1.205-.1.753.703.904 2.309 1.256.753.1-.1 2.059.652 1.707.854 1.406.602.653 2.259.753.853.954-.502 1.155.302.753-7.581-2.561-2.359 1.808.753.904 1.807.954.904 1.055.452 1.205-.101 1.004-.452.803-.853.603h-6.074l-.552.703.552 1.406.903 1.205.502-.05.452 1.105.954.703.904.05.2-.753 1.858-.553 2.811-4.218 1.406-1.054.251.552-.653 1.155-4.167 5.122-.602 1.205-.151 1.004-.15 2.159-.201.854-1.456 2.611-.201.954.201 1.758-.05.401-.703.854-.201 1.105-.502 1.607-.15.351-4.719.553-3.263 1.154-1.205.503 2.008-1.557 4.016-1.155 2.058-.854-1.154-.803-5.02-.803-.352.15-.05.452.05 1.406-1.455 1.507-.553.251-.2.251-.954 1.807-.502.553-2.51 1.657-1.054 1.054-.904 1.306-.351.05.401-.954v-.703h-.351l-.301 1.054-.703.904-.753.653-.552.251-.151.352.151.753.351.753.452.352.954-.101.451-.251.452-.452.201 1.507.402 1.406-1.004-.051-1.356 1.758-.903.452-2.109-.201-.903-.452-.904-.753-1.406-1.758-.903-.803-.904-.301-.401.301-.854 1.356-.452.452-.552-.151-.502-.402-.552-.15-.602.703.602.753-.502.502-.502.201-1.104-.05.853-2.863v-.652l-1.456.401-.703-.05-.301-.753-.201-1.607-.502-1.105-.602-.351-.552.552v.703l.652 1.055.151.703.151 1.104-.603-.452-1.305-.451-.602-.553v-.602l.451-1.507-.652-2.209-1.155-2.009-.954-.904-.953-1.004-1.808-.753-1.154-.301.803.652 1.556.653.904.452.502 1.155.803 2.561.402.904-.352.552-.401.201-.402-.201-.351-.552v.803l.903.804.151 1.657-.352 1.807-.702 1.507-1.155.602-2.51-.703-1.054.754.652.552.703.201h1.506l-1.154.954-2.912 1.105-2.61.251-2.761 1.004-1.155 1.004-.502-1.004-.151-.502-1.255 1.807-4.016 3.264 3.765-1.305.904.653-1.556 1.255-11.747 3.615-1.657 1.507H389v.653l-2.861 2.51-1.004.352-.452.251-1.556 1.858-1.055.803-.451.502-.352.904-.452-1.004-.451-.201-.452.452-.502.753v.703h.602v.653l-2.711 1.908-1.004.251.302-1.456-2.46 1.858-1.205 1.456-.703 1.707.753.051.603-.553.451-.602-1.204 2.41-.603.854-3.263 2.862-2.158 3.464-.302-.05.502-.803.251-1.205-6.877 5.674-6.074 1.808-.904-.251.352.451.451.051-.853.502-.753.201.151 1.104v1.406l-.251 1.256-.502.452-.201-.302-.101-.703v-1.406l-.1-.351-.853-.753-1.707-2.36-.452-.452-.703-.251-.401.301-.101.904v1.506l.151 1.908-.05 1.356-.302.603-.602-.352-.1-.904.251-2.611-.151-.904-.301-1.205-.352-.653-.15.653v2.762l-.05 1.305-.251 1.155.652.954-.251.704-.703.451-.903.101.502-2.31.05-1.004-.301-.904.351-1.255.552-.503v-.552l-.251-.552.251-2.762.051-1.507-.302-1.054-.502-.803-.502-.452-.251.552-.1 2.661.05 1.105.402.904-.753.703-.854-.05-.753.15-.451 1.256.552 1.054.201 1.205.351 1.105.753.803-.853 1.155-1.657.402-3.263-.1-.703-.201-1.606-1.256-.653.452-.602.703-.452-.05-.151-1.757-5.622 3.515-2.51.853v0z" fill="#E9ECE0" stroke="#fff" stroke-width="2" stroke-linecap="round" stroke-linejoin="round"/><path d="M278.008 186.595l-20.181 4.519-12.901 5.775-11.345-.05-11.898 3.615-1.305.101-1.104-.251-11.647-5.223 2.41-4.218 5.221-5.724.401-.753.301-.954v-1.457l-.351-1.054-.402-.201-13.403-.602-10.843-.252-2.159-1.154-.652-.051-14.558 4.419-.753-.1-1.707-1.758-.502-.201-3.765-.301-.653-.201-3.915-2.611-.402-1.105-.753-1.757-.251-1.155-.753-4.067-1.104-3.013-.703-1.507-.352-1.305-.2-1.105-.051-.954.151-1.958-.05-1.858-.452-1.507v-.954l.502-.401.351-1.507-.652-2.611-.151-1.757-.15-.804-.402-1.105-.753-1.657-.402-.954.703-1.205.251-.351-.15-.904.301-.703.452-.603.301-.703.251-1.657v-1.506l-.954-8.235-.201-3.465.603-1.557 1.405.804.954 1.958 1.406 4.62 1.305 2.661.201.753.301.804 1.556.502.653.552.301-.803-1.155-2.511-1.054-3.364-.853-3.565-.352-3.214-.15-2.611-.051-1.758.201-1.657.201-.602.552-1.005.201-.552.502-3.163.1-.703 1.406-2.712 5.12-4.067 2.812-3.766.803-.452.903-.251.603-.452.201-1.105.552-.1.452.351.853 1.255.803-.1.151.1.1.954-.452.653-.301 4.369-.05 2.259.351 1.607-.552 1.858v1.908l.452 1.155 1.004-.401-.452-2.009.101-1.808.552-.803 1.104.854.402.703v1.104l.201 1.256-.302 1.606.151.553.853.502.251.251.352.954.351 1.406.502.653.502.402.552.301.603.1.552-.1 1.004-.703.402-1.205.251-1.657.502-2.36-.502-.452-.703-1.507-.502-.301-1.556.151-.753-.251-.653-.703 1.506-.603 1.456-.1.602-.252 1.255-1.004.653-.251.552 1.055-.151 4.87.653 1.557-.201-1.758.452-1.305.301-1.255-.552-1.657.502-1.457 1.456-2.159.703-1.305.15-.804.101-1.808.2-.803.452-.402h.803l.954-.251-1.004-.251-.652-1.356-.051-1.506.603-.753.602-.452.452-1.105.251-1.607.1-1.757-.351-2.862-.904-2.612-1.104-2.058-1.054-1.155v-.804L192.417 82l-.502-3.213-1.155-3.616-1.707-3.916-.351-1.055-.251-3.816-.301-1.858-.502-1.456-.653-1.155-.803-.954.703-1.105.652-1.707.201-1.808-.602-1.456.903-.804 1.105-.2 1.907.25.452-.2.803-.954.452-.352.602-.2 1.607.2.853-.502 1.657-2.109.703-.452 2.208.804 1.055.1.953-.904.251 2.36.603 1.406.853.854 1.054.703-.301.853.502.452.301.854.452 1.657.603 1.707 1.907 3.666.251 1.004.201.854.201.703.552.502-.602 1.507.903 1.506 1.155 1.205.853 1.406-.1 2.059.803.753 2.46.402 1.807 1.255 1.054.05.803 1.256.603-.1.251.15.251.803.351 2.31 1.004 2.21.251.803.201 1.406.251 2.963.301 1.305 1.004 1.356 2.309.703.904 1.356.301-2.36.301-.854 1.406.2.803 1.106.301.3 1.406.352-.301.352-.151.502.151.904.401.05.804-.552.502-.653.401-1.557.552-3.163.302-3.214v-2.812l-.302-2.611-.652-2.712-1.255-3.866-.151-.703-2.66-3.013-.051-.803.201-1.055.402-.904.552-.351.853-.201.904-.603.853-.903.653-1.306-.502-.653-.402-.904-.351-1.104-.452-2.36v-.402l.603-1.155.853-1.055 2.56-1.406 6.074-1.004 2.109 1.607 1.154.2-.1-1.807.703-.753.401-.1.452.15-.301 1.507.904.351 1.506 1.657.953.201-.552-.552-.452-.603-.301-.854-.201-1.004h.302v-.703l-.954-.853v-.703l.452-.754.451-2.661.302-1.105.251.1 2.108 1.96.703 1.305.753 2.159 1.556 3.264.502.803 3.765 4.67.552 1.256.05.903-.803.703-.401.603v.552l.05 1.557-.101.351-.301.503-.602.451-.352.804.302.452.753.452.552.502.251.552.251.753.1 1.005v.954l-.05.803-.201.703-.301.703-1.155 1.959-.702.652-.402.15-1.606.152-.553.351-.401.854-.301 1.355-.051 1.155.101.754.251.652.401.452 1.707 1.306 2.209 2.36.954.301.401.452.452.753.703 1.909.301.954.101.703-.201.853-.05.804.15.602.954 1.657.151 1.708-.151.602-.251.502-1.958 1.557-.452.703-.1.502v1.356l-.351.904-.603 1.054-.15 1.205-.101.452-.502.753-.703.653-.15.904.15.753.352.553.301.251.653.201.652.602.854 1.456.451.302 1.506.251.402.301.653.703 1.054.803.652.854.804.854.301.552.1.854-.201.753-.251.452-.953 1.205-.251.502v1.657l-.251.904-.452 1.105-.201.703-.05.903.251.503.452.401.652.302.703.552.602.753.452 1.105.251 2.26.352.803.502.552.602.302 3.112.452.402.301.351.552.251 1.105.553 3.716.602 1.757.753 1.406 2.008 2.31 3.715 2.36.703.653.753 1.255.301 1.155.452 2.511.502 4.117.15 5.474v2.912l-.1 2.41-.201 2.009-1.104 7.08-2.008 8.687v0z" fill="#E9ECE0" stroke="#fff" stroke-width="2" stroke-linecap="round" stroke-linejoin="round"/><path d="M281.17 66.282l-.602.402-.552-.2-.402-.402-.251-.653-.1-.904-.251-1.356-.452-1.607.251-.401.903 1.004.804 1.356.652 1.456v1.305zm23.895-21.39l-.05 1.255-.351-.05-.251.602-.803-.301h-.753l-.051-1.055.452-.351 1.205-.251.602.15v0zM451.047 65.78l-2.209.553-1.405 4.168-18.474 2.41-1.155 2.46-1.807 2.059-2.711 2.059-4.066.653-.602 2.56-.402.804-.602.603-2.41 1.456-.652.552-.703.904-.352.703-.301 1.657-.351.251-9.438 2.611-.502.352-.251.703-.1.753-.101 1.707.101 1.306.351.853.201 1.406.05 2.913.101 1.104.301 1.708.1.853-.05.954-1.054 3.566-.301 1.807-.051 1.306-.1.502-.502.1-14.056-2.912-.653.1-.401.503-.251.753-.301 2.661-.101.804-.452 1.707-.702 2.109-.603 1.406-.552.803-.502.452-.803.352-.904 1.757-.602.703-.402 1.055-.15 1.255v1.004l.451.954.201.302 3.464 2.41.853 1.155 1.306 2.259.2.754.251 1.305-.05.703-.201.904-.602 1.758-.351.853-.502.603-2.36 1.757-.502.502-1.355 2.812-1.255 1.959-.552 1.456-.302 1.557-.05.803.151.954-.151 1.607v.904l.101 1.406v2.36l-.603 3.665-.301 1.457.05.954.151.301.803.653v.602l-.351.854-1.155 1.858-.653.753-.552.452-3.012.954-.502.402-1.958 2.109-2.409 3.414-.803.653-.804.201-1.857.05-.803.201-2.611 1.306-1.154.1-.251.352-.201.602-.301 1.607-.101 1.356.302 1.205-.101 1.004-.351.603-.653 1.004-1.205 2.712-.15.853.05.854 1.104 2.912.251.854.101.853.452 1.758.1.954-.151 1.808-.251 1.456-.953 4.168-1.105 3.866-8.634 17.625-25.703-15.516-22.891-13.558-13.002-7.582-4.518-2.762-4.216-4.017 2.008-8.687 1.104-7.08.201-2.009.1-2.41v-2.912l-.15-5.474-.502-4.117-.452-2.511-.301-1.155-.753-1.255-.703-.653-3.715-2.36-2.008-2.31-.753-1.406-.602-1.757-.553-3.716-.251-1.105-.351-.552-.402-.301-3.112-.452-.602-.302-.502-.552-.352-.803-.251-2.26-.452-1.105-.602-.753-.703-.552-.652-.302-.452-.401-.251-.502.05-.904.201-.703.452-1.105.251-.904v-1.657l.251-.502.953-1.205.251-.452.201-.753-.1-.854-.301-.552-.804-.854-.652-.854-1.054-.803-.653-.703-.402-.301-1.506-.251-.451-.302-.854-1.456-.652-.602-.653-.201-.301-.251-.352-.553-.15-.753.15-.904.703-.653.502-.753.101-.452.15-1.205.603-1.054.351-.904v-1.356l.1-.502.452-.703 1.958-1.557.251-.502.151-.602-.151-1.708-.954-1.657-.15-.602.05-.804.201-.853-.101-.703-.301-.954-.703-1.909-.452-.753-.401-.452-.954-.301-2.209-2.36-1.707-1.306-.401-.451-.251-.653-.101-.754.051-1.154.301-1.356.401-.854.553-.351 1.606-.151.402-.15.702-.653 1.155-1.959.301-.703.201-.703.05-.803v-.954l-.1-1.004-.251-.754-.251-.552-.552-.502-.753-.452-.302-.452.352-.803.602-.452.301-.503.101-.351-.05-1.557v-.552l.401-.603.803-.703-.05-.904-.552-1.255-3.765-4.67-.502-.803-1.556-3.264-.753-2.16-.703-1.305-2.108-1.958-.251-.1.451-.754 1.607-1.406 4.016-1.556 1.456.703-.302 3.615.854-.352.602-.954 1.054-2.46-.351-1.506.803-.703 1.255.25 2.259 1.105-.351 1.708-.753 2.46-.151 1.657.502-.05 3.263-3.415 1.356.302 1.054 1.355.954 1.457.853.703.402.803-.502 1.758-1.306 2.862.603.05.652-.15.603-.453.452-.602.552-.452.552.502.602.703.502.402.703.853.452 1.959.351 2.26.502 1.757-.853 3.314-.351 1.958.1.904 3.263.804 2.108 1.355 3.364.502.452.352.502.904.753 1.808 1.054.853.351 1.105.201 1.305.653 2.31.351.15.853-.1.402.1.301.403.452 1.355.151.904-.101 3.114.151 1.255.853 1.958.251.854v4.67l.151.703.401.301 1.306 1.958 2.158 2.26-.251 1.456.201 2.009.552 1.556.753.252.552-1.356v-2.059l-.401-1.958-.452-1.356-.351-.402-.954-.703-.251-.452-.201-1.255.1-.703.402-1.155v-1.004l-.151-1.557.151-1.205.251-.402.753-.753.251-.352.251-2.058-.151-1.758-1.355-5.272v-1.908l-.1-.402-.603.15-.251-.1-.903-2.008-.352-.352-.201-.603-.502.151-.351 1.055-.151.2-.602-.401-1.406-1.808-.502-.803.452-1.607-.201-1.456-.552-1.155-1.305-.854-.904-2.31-.602-1.054v-.804h.351v-.803l-1.255-3.164-.552-5.222.251-5.222 1.205-3.264.602-.251 4.067.25.652.403 1.054.954.653.2 1.908-.2.753.2-.151.603-.201.201 1.707 1.004 4.468-1.155 1.907.854.402.904.452 2.21.401.803.502.25 1.858-.25.803.502 1.456 2.109.803.452.653.552 1.757 2.812.552 1.205.753 3.264.502 1.456 1.456 1.105.803 1.155 1.154 2.26 1.557 4.62.652 1.456.151-2.11-.352-1.657-.602-1.506-.452-1.607.854.05 1.054-.3 1.004-.553.803-.754-4.167.252-1.104-.955 7.229-.1.552.552.301 1.256.653 2.059h.251l.251-.804.05-.803-.151-.804-.401-.653v-.703l.552-.502.552-.803.251-1.155-.15-1.456.753-.854.301-.552.201-.854.05-.602-.101-1.758.051-1.456.552-1.507 1.154-1.506 1.356-1.105 1.154-.451.452-.603.301-1.306v-1.355l-.15-.603-.502-.301.201-.804.953-1.607 1.205-1.305 2.811-1.055.452-1.958 1.205 1.155 4.568.452 1.205.854.904 2.008 1.757 4.82-.051.603.051 1.005h-.603v.753l.502.502.603.25.552-.15.552-.602-.301-.1-.703-.654 1.657-1.255 5.722-1.607.904.502-.703.252-.703.502-.652.853.602.402.803 1.607.352-.15.903-2.26.553-.904.552-.251 1.255 1.255.954 2.009 1.004 1.657 1.455.401v-.703l-1.455-1.104-.703-.804-.502-.803-.352-1.456v-1.105l-.2-.904-.804-.803 2.059-1.507 3.062-1.054 1.907-1.206h1.055l-4.016 2.36-1.255 1.407 3.965-1.607.954.05 1.105 1.004 1.757 2.712 1.204.2v-.853l-1.606-1.657-.803-1.255-.352-1.256.151-1.707.502-1.456.653-1.105.803-.753-.05-.703.15-.502.402-.904.301-1.105.151-1.054-.101-1.708-.351-.954-.402-.753-.753-1.707-.452-.653-.301-.05-.251-.452-.1-1.959-.101-.652-1.255-1.005-.301-.903.352-2.009h-.653l.653-1.607-.352-.351-.201-.452-.451-1.456h1.004v-.804l-.804-1.105-.853-3.615-1.305-1.506.401-1.557.954-1.406.954-.2.251.702.05.854.151.703.502.15.301-1.606.351-1.055.553-.502 1.305-.552.753.05v.904l-.251 1.255.15 1.054.402.804.502.351-.201-1.606-.15-.653.702-.251 1.356-1.155.401-.201.703.603.502.853.502.703.803.15-.652.704-.251.15.753.703.853-.15 1.155-.553v-.853l.502-.804.452-1.104.552-.703.401 1.607.502.2.502-.652.402-2.16.351-.552 1.004-.502h1.255l2.611 1.155.502-.301 2.108-.904 3.815 3.866 2.159.854-.602 1.054-.703.452-.603.703-.251 1.758h.603v.703l-.904.853.201.302.703 1.255-.552 1.004.652.201 1.607-.452 1.857.452.753-.452-.251 2.36h4.317l.854.302.702.803.452 1.004-.1 1.758.903 3.113-1.907 3.565-1.054 1.456-1.406 1.155.653 1.607.552-.653.552.352.602.703 1.506.653.151.803-.201 1.205-.351 1.557.703.602 3.313.151 1.606-.753.552.15.653 1.306.502-.2.402-.503.1 1.205.301 1.005.452.702 1.305.603 1.356 1.506 1.455 1.206.854 1.506.903 1.004 1.105-1.004-.402-.15-.251-.653.803-.603.553-1.255.401-1.758.101-2.21-.151-2.259-.201-1.607.301-1.104 1.306-.754h5.572l3.213-1.155.251-.853.05-1.055.251-.853 3.213-2.11.502-1.355.301-1.758.753-1.355 1.807-1.858 1.205-.904 3.865-.703 1.105.301 1.706 1.507 1.105.502 8.634-1.507-2.158 2.41-8.032 3.716-3.615 2.812-4.166 1.055-1.406 1.205-1.104 1.958 1.104.402.552.603.251.904.201.2 1.004 2.009.502 1.105-.201 1.355-.552 1.858-.402.854-4.317 4.268-.803.352-2.761.2-1.205 1.055-.853 2.51 1.405 1.105.703.302 2.661.2.602.854.251 2.11-.502.35-.803.904-.552.352.954.753 5.12.15 2.912 1.407 2.058-.201 3.765-3.415 2.309-.3 1.004.551.904 1.055.652 1.707.251 2.511.251 1.306.653.452.652.15.302.402.1 1.305v0zM298.238 3.364l-.853.653-.803-1.305-.101-1.909.502-.3 1.105 1.556.351.25-.201 1.055v0zM110.139 274.821l4.016 4.369 4.819-.251 5.874-.352 6.726.753-10.993 12.453-.804 1.356-.903 1.908-1.255.452-1.858.101-.602-.051-2.359.754-12.299-2.812-.954.703-.803 1.255-.854.854-.954-.703.653-.703h-1.105l-1.706 1.104-1.456.503-.853.853-.502.352-.502.1-4.368-.502-1.004.402-.753 1.155-.351.2-.553-.301-.702-1.356-.502-.351.3-1.055.603-1.355.05-1.155-.15-1.105-.402-.502-.502-.452-.502-.803.703-1.055.904-3.766.401-.854h2.008l.302-.351-.151-1.055h-.502l-1.004.703-.904-.201-.953-.753-.754-1.305-.35-1.959.702-2.008.2-.854.05-1.155-.1-3.967.252-.904.501-.703.553-.401.652.251 1.406 1.557 1.556 1.104 1.255 1.858 1.105 2.511.602 2.711h-.653l.753 1.105 1.105.352 4.417.2 1.105-.251.703-.703-.502-.753.25-.853.653-.754.552-.502.653-.301 2.159-.402 1.656-1.255.502-.201.552.201 1.205 1.054.603.201 1.154-.402 2.209-1.958v0z" fill="#E9ECE0" stroke="#fff" stroke-width="2" stroke-linecap="round" stroke-linejoin="round"/><path d="M179.214 351.498l-.653-.151-.2-.401.451-1.005h.653l.05 1.155-.301.402zm15.11-11.549l-.452.653-.301-.352-.251-.904-.251-.803-.351-1.155.15-1.155.904-.452 1.054-.1-.15.703.2.351.251 1.155-.351 1.105-.452.954v0zm114.707-29.978l-.301 1.155-.452.151-.05-.553-.351-.301-.502.05-2.008.703.15-.854 1.356-1.406.803-.502.301-.1.653.151.351.652.05.854v0zm39.307-79.941l-21.084 45.243-1.657 6.327-.251 2.059-.201 17.976.101 1.155-3.715 1.256-4.217 1.054.502-.753.251-.904v-1.105l-.251-1.054-.351 1.506-.552.954-.653.302-.653-.703.151 1.054.201.352v.753l-5.924 4.218.452-2.26 1.155-1.255 1.455-.552 1.306-.151v-.753l-3.012-1.557-1.055-1.255-.251 1.406.251 1.406-1.204.803-1.105-.201-1.154-.552-1.205-.05.903.753v.653h-1.104l-.552.201-.452.552-.753-.402-.803.603-.703 1.155-.251 1.104-.251 1.808-.602 1.255-.804.352-.853-.954-.602.854-.201.903.201.754.753.301.602-.251.904-.954.652-.201 3.615.402 1.204-.402-1.957 3.816-1.155 1.055-1.205-.703.301-.603h-1.857l.05.954-1.255-.15-.1.502.401.301.151.703-.151 1.155 3.364-.201.652-.552-1.154 3.464-1.607 3.164-2.108 2.31-4.618 2.109-3.012 2.259-2.812.703-1.506-2.109.603-.753 1.255-.452.502-.552.602-1.105.552-.502 1.456-.1v-.703l-1.305-.051-2.41.804-1.255-.05-3.062-1.959-.954-.201.302.754-.352.15-.301.553.452.602.954 1.758.753 1.004.251 1.456.1 1.406.151.653 1.907.151h1.054l.804.15-9.739 1.456-5.623 2.712-9.538 2.611-2.309-.05-8.735-2.712-3.664 1.005-.803-.452.401-.553-1.606-.401-.803-.452-.653-.603-.954 1.306-6.074-1.306-.602-.301-2.36-1.808-3.715-.753-5.321-3.615-7.279-1.959-1.456-1.305.653-.101.301-.402v-.502l-.602-.452-.552-.05-.753.653-.553.151-4.367-.754.151.503 4.518.954-11.948-.854-.803-1.255-.603.652-.2-.452-.452-.2.301 1.406-3.464.1-1.707-.452-6.877-5.825h.703l.703-.201.702-.652-.552-.101-1.054-.502-.552-.1.301-2.009-.853 1.205-.753.502-.804-.2-1.004-.904v-.603l1.557.603-.603-1.557-.853-.904-.904-.703-.803-1.004-.703-1.758-.401-1.205-.553-.653-1.104.101v.653l1.556 2.259.954 1.708.602 1.657-3.012-2.762-1.405-1.808-.854-2.41.603-.753-.301-.502-.653-1.607 1.305-1.456 1.406-.854 3.062-.502 1.456.703 2.51 2.661 1.506.201-.753-.954-1.105-1.958-.652-.653-3.464-2.059 1.406-2.561.2-1.004-.2-1.456-.502-.352-.402.352.151.803v.653l-.553 1.004-1.957 2.561-1.255 1.506-.854.904-1.104.352-.352.401-.05 1.005v1.155l-.1 1.004-.352 1.004-.2.201-2.059-1.155-2.008-1.757-1.506-.703-3.212-2.561h2.961l.553.301 1.104 1.055.653.05.1-.603.602-.15 1.506.05v-.703h-1.255v-.703h.653v-.653l-3.213.854-1.154-.201v-.653l1.556-2.009.452-3.113-.653-2.661-1.707-.653v.653l1.305.552-.15 1.406-.854 1.657-1.706 2.31-1.105.854-1.205.301-1.255-.753.653 2.109-1.807-1.959-4.117-2.761-5.773-2.21-2.008-1.406-1.104-.552-1.054-.804-.954-1.606.251-.804-.05-1.054-.452-2.411 3.514.251 1.958-.451 1.305-1.206h-3.414l-2.158-1.205-.753-.201-2.36.653-.502.402-.401.653-1.406 1.556-.502.352v.653l2.309 1.004 1.155 1.004.602 1.557-.953-.502-2.059-.352-2.108.251-1.255.553-.753 1.054.602 1.808-.2.05-.452.653-13.303 1.807-1.607-1.104-1.506-1.607-1.405-1.055-1.506-.2-6.325 2.309.903-1.908.803-1.355 10.994-12.454 1.757.101.352-.301.301-1.657.251-.603 1.104-1.255 1.054-1.657 1.908-3.666 3.916-7.884.401-1.155.352-1.456-.603-2.611-.15-.703.05-.703.15-.653.653-1.657.502-.954 10.843-11.147 3.213-4.168 6.727-6.327 5.271-6.327 1.104-.803 7.329-2.662 14.257-9.239 12.199-5.775 1.305-1.305.703-1.005.401-1.104.101-.854-.05-1.255-.101-1.607.05-1.356.703-2.511 11.647 5.223 1.104.251 1.305-.101 11.898-3.615 11.345.05 12.901-5.775 20.181-4.519 4.216 4.017 4.518 2.762 13.002 7.582 22.891 13.558 25.703 15.516v0z" fill="#E9ECE0" stroke="#fff" stroke-width="2" stroke-linecap="round" stroke-linejoin="round"/><path d="M154.415 241.379l-10.843 11.147-.502.954-.652 1.657-.151.653-.05.703.15.703.603 2.611-.352 1.456-.401 1.155-3.916 7.884-1.907 3.665-1.055 1.658-1.104 1.255-.251.602-.301 1.658-.352.301-1.757-.101-6.726-.753-5.874.352 4.217-4.469 8.233-3.566 2.259-10.896-.452-7.432-5.472-1.908-6.325.201 1.908-1.406 1.405-1.557.954-1.757.803-2.159.452-.653.753-.452 1.004-.251 2.008.301-.05-.401-.402-.352h-.351l1.807-1.557 1.004-.502 1.104-.201 6.225 1.708 1.054-.251.753-1.256 2.862-.954 4.217-.201 1.807-1.155.552-.1 2.058.352.402.251.652.502.251.753-.1.402-.151 1.406v0z" fill="#E9ECE0" stroke="#fff" stroke-width="2" stroke-linecap="round" stroke-linejoin="round"/><path d="M100.5 223.754l.302.15-.302.703-.652.251-.502.753-.201-.301-.05-.803-.201-.251.301-.502.452-.503h.703l.15.503v0zm-3.815-22.195l.703.854.703-.251.2.05.05.703-.3.15-.502-.15-.603-.402-.753-.904-.853-1.255-.402-.553-.2-1.104 1.957 2.862v0zm-.703-36.656l.05.502-2.71.502-.502-.151-.603.854-.1-.201.2-.703v-.703l.503.251 2.008-.703 1.154.352v0zm-6.927-4.268l.2.2-.1 1.105-1.004.653-.301-.201.653-.351-.753-1.306.351-.05.502-.553.452.503v0zm-5.773-.503l.652.352-.552.151-.1-.503v0zm8.132-1.054l-.1.452-.502.703-.452.05-.05.402-.301.05-.502-.653v-.653l.552.352.452-.251.903-.452v0zm-5.421-1.356l-1.105.753v-.652l.452-.553.05-.251.603.05v.653zm.803-1.356l-.954.251-.15-.401.451-.854 1.657-1.406.351.151-.05.301-.602.201-.201.351-.653.553-.1.301.25.552v0zm75.099 20.437l.402 1.105 3.915 2.611.653.201 3.765.301.502.201 1.707 1.758.753.1 14.558-4.419.652.051 2.159 1.154 10.843.252 13.403.602.402.201.351 1.054v1.457l-.301.954-.401.753-5.221 5.724-2.41 4.218-.703 2.511-.05 1.356.101 1.607.05 1.255-.101.854-.401 1.104-.703 1.005-1.305 1.305-12.199 5.775-14.257 9.239-7.329 2.662-1.104.803-5.271 6.327-6.727 6.327-3.213 4.168.151-1.406.1-.402-.251-.753-.652-.502-.402-.252-2.058-.351-.552.1-1.808 1.155-4.216.201-2.862.954.502-.853-2.008 1.205-1.104-.553v-.652l.803-.101.703-.602v-.703l-8.233-.553-3.865.954-3.414 3.114-.552 1.657-.402.552-.401.301-.854.302-.452.05-.702.301-2.059 1.507-.652.803-1.707 1.506-2.108-.251-4.117-1.556v-.804l1.908-1.155 1.807-1.707 1.506-2.159 1.004-.603.954.603.853-.904 2.008-.653.904-.602-4.066-.452-1.255.452-.854.602-.753.251-.652-.552-.854-1.808.603-.954.1-1.305v-1.457l.351-1.657.302-.1.401.301.301.05.201-1.858.251-.803.603-1.506.05-1.105 1.154-1.055 5.121-2.661 2.711-.251-.251-.954-.402-.552-.602-.151-.603.151v-.703l.803-.754 1.757-2.41 1.506-.703.753-.904.402-.351.653-.101 1.857.101-.151 1.908.904.301 1.155.05.602 1.055.602.803 3.765.251-.753-.602-1.606.15-.753-.2-.703-.754-.954-1.606-.853-.553 1.857-.803v-.653h-4.668v-.803l2.61-1.607.803-.854.753-.201 3.615.603v-.804l-3.514-.753h-1.155l-2.911 2.762-1.155.151v-.703l1.205-1.155.452-.804.251-1.004-1.808 1.958-.502.352-.451.552-.302 2.41-.552.553-.452.301-1.857 1.908-2.359.904-.703.603.251 1.406-1.356-.452-1.255.351-2.66 2.31-1.054 1.306-.703.401-.753-.301-.502-1.004.1-1.055.703-2.31-.904.302-.451 1.155-.151 1.657v1.607l-.151.502-1.104 2.058-.201.954-.05 1.356-.402.603h-1.606l-.402.753-.401.352-.803.301-.753-.352-.804-.954-.702-1.356-.402-1.657-.753 1.005-.803.401.652-1.305.553-1.657.15-1.607-.452-1.155.653-.753-.753-.653-.803-.1.652-1.457v-.652l-2.108 1.556-1.305.603-.954-.05-.853-1.306-.302-1.757.151-1.658.653-1.104v-.653l-.804-.151-.552-.753-.652-1.305-.603-.302-.652-.803-.603-.954-.452-.904 1.105.502 1.205 1.205 1.204.703 1.155-.904h-.954l.251-1.205.452-.803.502-.502.653-.402-.653-.703v-.753l5.271-2.662 1.305-1.707v-.703l-2.811 2.461-1.506.803-1.456.301-1.255.804-1.355 1.506-1.305.904-.904-.954.602-.452 1.255-1.808.904-.954.552-.803.452-1.105-.351-.703.401-.201.854-1.255-1.055-1.205-1.355-.402-2.912.151.653-1.456h-.904l.302-1.105.853-2.059.351-1.255-.451.1-.402.452-.351.703-.302.904-.3-1.004-.402-.402-.402.151-.452.552v.703l-2.51-.703-.703.351-1.355 1.507-.753.301v.804l.351.1.904.603-4.167.853-1.104-.853 1.054.2.552-.1.402-.452-.15-.603-.452-.853-.553-.804-.401-.351h-4.82l.703.803 2.41 1.457v.703h-1.255l-2.108-1.909-1.004-.251-5.673-.552h-5.422l-6.275-.452-2.61-2.812-2.51-.151-4.418 1.005v.301l-.803 1.406-.803.904-.502.351-.552.151-5.271-1.657.502-.452.502-.301-.201-.402-1.707.954-1.355 1.758-.201 2.109-.853 2.51-1.255 1.055-3.364.1-.954.251-2.008 1.155-.903.101-3.313-1.909-.703-1.004-.653-.301-.452-.502-.2-1.808-.251-.954-1.958-3.113-.803-1.657-.703-1.808-1.255-4.57.301-.803.904.954.853-.402 1.707-2.008.853-.553 4.92-1.406.954.101 3.664 2.41 5.02.904.402-.251.853-1.356.402-.502 1.907.1.452-.451 1.657-2.662 1.857-.653 4.117.754v-.804l-.251-.301-.402-1.205 1.908-.101.602.553-.301 1.858.602.452.352-.603.401-.703.502.05.15 1.004v1.507l.252.803.803-1.104.753.652.803-.401.653-1.005.301-1.054-.2-1.105-.302-1.406-.251-1.556.15-1.507 1.205-1.707 1.908-.352 3.715.603-.352 1.255-.552.804-1.305.954.351 1.456-.552.151-.351.401-.703 1.607 2.51 3.716-.251-1.607-.05-1.356.2-1.155.452-1.104.302-.201.853-.201.351-.251.302-.603.3-1.355.202-.653 1.255-1.657 1.305-.151 1.205 1.055 1.054 1.908.703-1.105.953-.703 2.812-.703 2.71-1.908-.753-.452-3.313.452v-.803l1.908-.402 3.413-3.565 1.808-.452-.603.753.803.251.753.502-.05.954.05.452-.602.904-1.406.803-.451.603.552.201.803-.05.753-.352.653-.602.3 2.109.402.853 1.506.703 2.008 1.908.753.302v-.653l-.552-.352-.502-.652-1.104-2.009 1.205-1.657.702-.502.904-.05.1-1.406.804-.402 3.815.15 3.715-.903 6.124 1.255 4.066 2.109.502-.251.653-1.004.452-.251h3.413l.904.401.954.753.953.352.904-.803 1.155.803 5.07-.803 1.205-1.005.05-1.356-.803-1.054-1.406-.251.452-1.406.552-.502.653-.251.853-.804.552-1.205 1.908-5.523.15-3.766-1.455-1.557-1.958.201-1.406 1.456v.753h.352v.804l-6.878 5.925-2.259.954-12.951-2.561-3.263-2.661-.452-.251-.904.552-4.116.653-1.205-.502-.904-1.055.703-.502 1.356-.402 1.004-.954.351.553.351.251h.854v-.804l-1.004-.753-1.155-.1-2.209.853.452-1.607.854-1.556 1.506-2.009 2.108-1.004.803-.954-.1-1.758.652-.301 1.657.301.402-.401 1.355-2.611 1.205-.955 5.07-1.456 4.267-3.314 1.657-2.109 2.861-1.506 1.054-1.155-.301-.201.05-.452.653.05 1.104 1.256.703.1-.402-1.707-.2-.553 2.811-1.657 5.873-1.858 2.811-1.707.804-.703 1.104-2.812.552-.904 1.205-.853.502 1.456.05 3.264-.15 1.255-.251 1.707.15 1.105-.1.452-.352.452-1.104 1.004-.502.904-.151.753.101.653.301.603 1.355 1.657 3.916-1.105h1.657l.502.301.351.653.803 2.41 2.661 5.474 1.255 1.607.351.803.301.402 1.055.652 2.359 2.913.301.753.402 1.506.853 2.863.101.853-.051.753-.301.804-1.154 2.41-.302 1.004-.15 1.256.15 1.808.703 2.46.301 1.004.302.553.803.753.452.502.803 1.406.803.854.201.853-.05 1.105 3.514 3.113 1.355.804 1.506.552 3.012.1v0z" fill="#E9ECE0" stroke="#fff" stroke-width="2" stroke-linecap="round" stroke-linejoin="round"/><circle cx="117.5" cy="274.5" r="3.5" fill="#5B6460"/><path d="M69.512 244.584c.24-.384.608-.576 1.104-.576.192 0 .368.048.528.144.112 1.744.168 3.464.168 5.16 0 1.696-.04 3.848-.12 6.456-.064 2.608-.104 4.296-.12 5.064-.384.256-.696.384-.936.384-.24 0-.424-.024-.552-.072a23.027 23.027 0 01-.144-2.592l.144-5.472a50.105 50.105 0 00-4.608-.192c-1.696 0-3.464.168-5.304.504-.128 3.168-.192 5.504-.192 7.008-.4.32-.728.48-.984.48-.24 0-.432-.04-.576-.12-.048-.784-.072-1.888-.072-3.312s.096-3.776.288-7.056c.208-3.296.32-5.2.336-5.712.208-.336.568-.504 1.08-.504.16 0 .312.032.456.096.048.448.072 1.016.072 1.704s-.048 1.744-.144 3.168c-.096 1.408-.144 2.384-.144 2.928 1.936-.32 3.728-.48 5.376-.48 1.648 0 3.104.056 4.368.168.048-.592.072-1.464.072-2.616 0-1.152-.032-2.672-.096-4.56zm12.527 9.504l-.12 2.76c0 1.392.16 2.328.48 2.808.192.32.456.48.792.48.096 0 .232-.024.408-.072.336-.096.616-.048.84.144-.112.56-.672.84-1.68.84-.688 0-1.144-.288-1.368-.864-.176-.432-.304-.968-.384-1.608a21.436 21.436 0 00-.192-1.344c-1.04 1.984-2.048 3.192-3.024 3.624-.496.224-1.072.336-1.728.336-.656 0-1.168-.312-1.536-.936-.352-.64-.528-1.568-.528-2.784 0-1.216.2-2.488.6-3.816.4-1.344.984-2.472 1.752-3.384.768-.928 1.608-1.392 2.52-1.392 1.312 0 2.184.544 2.616 1.632.368.928.552 2.12.552 3.576zm-5.88-.768a22.625 22.625 0 00-.504 2.472 14.455 14.455 0 00-.168 2.064c0 .592.12 1.104.36 1.536.256.432.584.648.984.648.864 0 1.696-.816 2.496-2.448.8-1.632 1.2-3.152 1.2-4.56 0-.912-.24-1.664-.72-2.256-.32-.384-.744-.576-1.272-.576-.512 0-.984.304-1.416.912-.416.592-.736 1.328-.96 2.208zm10.877 7.848c-.288 0-.432-2.424-.432-7.272 0-2.048-.008-3.288-.024-3.72h-1.008a4.233 4.233 0 00-.504-.024 3.08 3.08 0 01-.48-.072 4.738 4.738 0 01-.36-.12c-.24-.096-.36-.264-.36-.504 0-.304.496-.456 1.488-.456.432 0 .824.016 1.176.048.016-.32.024-.728.024-1.224.016-.512.032-.904.048-1.176.016-.288.032-.632.048-1.032.032-.4.072-.712.12-.936.064-.224.144-.472.24-.744.096-.288.224-.504.384-.648.16-.144.344-.288.552-.432.368-.272.976-.408 1.824-.408.864 0 1.496.216 1.896.648.416.416.784 1.128 1.104 2.136-.24.288-.52.432-.84.432-.112 0-.224-.016-.336-.048-.288-.768-.552-1.288-.792-1.56-.224-.272-.536-.408-.936-.408s-.704.072-.912.216a1.538 1.538 0 00-.456.552c-.24.48-.36 1.64-.36 3.48v1.008l2.04-.192c.8 0 1.2.184 1.2.552 0 .24-.192.4-.576.48-.384.08-.872.128-1.464.144-.576.016-.976.064-1.2.144-.032.448-.048 1.04-.048 1.776 0 .72.04 1.872.12 3.456.08 1.568.12 2.768.12 3.6 0 .832-.088 1.424-.264 1.776-.16.352-.504.528-1.032.528zm15.611-.84c-.288.304-.616.456-.984.456-.688 0-1.2-.368-1.536-1.104-.336-.736-.536-1.632-.6-2.688-.048-1.056-.08-2.112-.096-3.168s-.104-1.952-.264-2.688c-.144-.736-.424-1.104-.84-1.104-.56 0-1.04.504-1.44 1.512-.384 1.008-.656 2.128-.816 3.36-.448 3.44-.88 5.368-1.296 5.784-.288.144-.536.216-.744.216-.208 0-.384-.024-.528-.072-.336-1.472-.552-4.008-.648-7.608-.032-1.792-.064-2.952-.096-3.48.336-.224.624-.336.864-.336s.432.024.576.072c.08.688.12 2.096.12 4.224.016 2.128.032 3.352.048 3.672.08-.336.176-.88.288-1.632.128-.752.24-1.368.336-1.848a15.7 15.7 0 01.456-1.728c.208-.656.44-1.176.696-1.56.256-.4.608-.736 1.056-1.008a2.736 2.736 0 011.512-.432c.752 0 1.296.344 1.632 1.032.352.672.544 1.512.576 2.52.032 1.008.048 2.032.048 3.072.016 1.04.144 1.992.384 2.856.256.864.688 1.424 1.296 1.68zm9.134-6.24l-.12 2.76c0 1.392.16 2.328.48 2.808.192.32.456.48.792.48.096 0 .232-.024.408-.072.336-.096.616-.048.84.144-.112.56-.672.84-1.68.84-.688 0-1.144-.288-1.368-.864-.176-.432-.304-.968-.384-1.608a21.436 21.436 0 00-.192-1.344c-1.04 1.984-2.048 3.192-3.024 3.624-.496.224-1.072.336-1.728.336-.656 0-1.168-.312-1.536-.936-.352-.64-.528-1.568-.528-2.784 0-1.216.2-2.488.6-3.816.4-1.344.984-2.472 1.752-3.384.768-.928 1.608-1.392 2.52-1.392 1.312 0 2.184.544 2.616 1.632.368.928.552 2.12.552 3.576zm-5.88-.768a22.625 22.625 0 00-.504 2.472 14.455 14.455 0 00-.168 2.064c0 .592.12 1.104.36 1.536.256.432.584.648.984.648.864 0 1.696-.816 2.496-2.448.8-1.632 1.2-3.152 1.2-4.56 0-.912-.24-1.664-.72-2.256-.32-.384-.744-.576-1.272-.576-.512 0-.984.304-1.416.912-.416.592-.736 1.328-.96 2.208zm11.43 5.328l.072 1.368c0 .352-.104.6-.313.744a1.06 1.06 0 01-.599.192c-.192 0-.392-.032-.6-.096-.352-1.856-.624-4.168-.816-6.936a417.45 417.45 0 00-.312-4.704c.24-.224.488-.336.744-.336.272 0 .512.032.72.096.064.464.112 1.488.144 3.072.032 1.584.072 2.576.12 2.976.224-1.344.624-2.6 1.2-3.768.32-.656.736-1.176 1.248-1.56.528-.4 1.087-.6 1.679-.6.609 0 1.161.272 1.657.816.512.528.768 1.008.768 1.44 0 .16-.096.288-.288.384a1.67 1.67 0 01-.648.12.617.617 0 01-.528-.264 1.571 1.571 0 01-.264-.576 1.277 1.277 0 00-.312-.6c-.16-.176-.376-.264-.648-.264-.72 0-1.336.648-1.848 1.944-.784 1.936-1.176 4.12-1.176 6.552zm9.01 2.52c-.288 0-.432-2.424-.432-7.272 0-2.048-.008-3.288-.024-3.72h-1.008a4.233 4.233 0 00-.504-.024 3.08 3.08 0 01-.48-.072 4.738 4.738 0 01-.36-.12c-.24-.096-.36-.264-.36-.504 0-.304.496-.456 1.488-.456.432 0 .824.016 1.176.048.016-.32.024-.728.024-1.224.016-.512.032-.904.048-1.176.016-.288.032-.632.048-1.032.032-.4.072-.712.12-.936.064-.224.144-.472.24-.744.096-.288.224-.504.384-.648.16-.144.344-.288.552-.432.368-.272.976-.408 1.824-.408.864 0 1.496.216 1.896.648.416.416.784 1.128 1.104 2.136-.24.288-.52.432-.84.432-.112 0-.224-.016-.336-.048-.288-.768-.552-1.288-.792-1.56-.224-.272-.536-.408-.936-.408s-.704.072-.912.216a1.538 1.538 0 00-.456.552c-.24.48-.36 1.64-.36 3.48v1.008l2.04-.192c.8 0 1.2.184 1.2.552 0 .24-.192.4-.576.48-.384.08-.872.128-1.464.144-.576.016-.976.064-1.2.144-.032.448-.048 1.04-.048 1.776 0 .72.04 1.872.12 3.456.08 1.568.12 2.768.12 3.6 0 .832-.088 1.424-.264 1.776-.16.352-.504.528-1.032.528zm7.283-15.552c-.032.448-.36.672-.984.672-.512-.032-.768-.728-.768-2.088v-.48c.016-.416.288-.624.816-.624.304 0 .528.032.672.096.176.672.264 1.48.264 2.424zm-3.432 20.112c1.472 0 2.208-2.528 2.208-7.584 0-1.216-.048-2.736-.144-4.56-.08-1.824-.12-2.88-.12-3.168 0-.672.32-1.008.96-1.008.368 0 .552.208.552.624l-.024.672c0 .432.04 1.128.12 2.088.208 2.944.312 4.992.312 6.144 0 1.152-.056 2.144-.168 2.976a12.823 12.823 0 01-.528 2.472c-.256.816-.656 1.448-1.2 1.896-.544.464-1.2.696-1.968.696-.448 0-.848-.064-1.2-.192-.352-.112-.528-.264-.528-.456 0-.224.072-.392.216-.504a.991.991 0 01.456-.168c.144 0 .344.008.6.024.256.032.408.048.456.048zm7.54-14.688c.816-1.248 1.992-1.872 3.528-1.872s2.76.624 3.672 1.872c.928 1.248 1.392 2.672 1.392 4.272 0 1.584-.504 2.928-1.512 4.032s-2.288 1.656-3.84 1.656-2.68-.432-3.384-1.296c-.704-.88-1.056-2.112-1.056-3.696 0-2.064.4-3.72 1.2-4.968zm1.056 1.272a13.404 13.404 0 00-.48 1.872 11.558 11.558 0 00-.144 1.752c0 .528.04 1.016.12 1.464.08.432.216.864.408 1.296.192.416.48.752.864 1.008.384.24.84.36 1.368.36 1.072 0 1.968-.44 2.688-1.32.736-.88 1.104-1.944 1.104-3.192 0-1.248-.336-2.456-1.008-3.624-.656-1.184-1.464-1.776-2.424-1.776-.576 0-1.08.2-1.512.6-.432.4-.76.92-.984 1.56zm.168-6.696c.208 0 .456.072.744.216.288.128.432.296.432.504 0 .464-.208.8-.624 1.008-.4.208-.896.312-1.488.312s-.888-.184-.888-.552c0-.992.608-1.488 1.824-1.488zm3.384 1.512c0-.448.192-.816.576-1.104.4-.288.776-.432 1.128-.432.368 0 .696.088.984.264.304.16.456.352.456.576 0 .4-.256.704-.768.912-.496.208-.928.312-1.296.312-.72 0-1.08-.176-1.08-.528zm8.694 11.52l.072 1.368c0 .352-.104.6-.312.744a1.066 1.066 0 01-.6.192c-.192 0-.392-.032-.6-.096-.352-1.856-.624-4.168-.816-6.936a417.45 417.45 0 00-.312-4.704c.24-.224.488-.336.744-.336.272 0 .512.032.72.096.064.464.112 1.488.144 3.072.032 1.584.072 2.576.12 2.976.224-1.344.624-2.6 1.2-3.768.32-.656.736-1.176 1.248-1.56.528-.4 1.088-.6 1.68-.6.608 0 1.16.272 1.656.816.512.528.768 1.008.768 1.44 0 .16-.096.288-.288.384a1.67 1.67 0 01-.648.12.617.617 0 01-.528-.264 1.571 1.571 0 01-.264-.576 1.277 1.277 0 00-.312-.6c-.16-.176-.376-.264-.648-.264-.72 0-1.336.648-1.848 1.944-.784 1.936-1.176 4.12-1.176 6.552zm10.978-16.008c.512.24 1.024.504 1.536.792a13.8 13.8 0 011.488.936l2.76-1.608.912 1.296-2.376 1.368c1.088 1.024 1.976 2.288 2.664 3.792.704 1.504 1.056 3.232 1.056 5.184 0 2.272-.536 3.984-1.608 5.136-1.072 1.136-2.536 1.704-4.392 1.704-1.152 0-2.176-.232-3.072-.696a5.38 5.38 0 01-2.088-2.016c-.496-.88-.744-1.92-.744-3.12 0-1.792.504-3.2 1.512-4.224 1.024-1.024 2.4-1.536 4.128-1.536.848 0 1.584.112 2.208.336.64.224 1.152.576 1.536 1.056l.096-.048a8.444 8.444 0 00-1.176-2.52 11.739 11.739 0 00-1.8-2.064l-3.12 1.8-.912-1.32 2.688-1.536a16.85 16.85 0 00-1.056-.648 19.246 19.246 0 00-1.104-.624l.864-1.44zm2.088 8.712c-1.344 0-2.32.36-2.928 1.08-.592.704-.888 1.72-.888 3.048 0 1.168.304 2.136.912 2.904.608.752 1.576 1.128 2.904 1.128 1.328 0 2.296-.384 2.904-1.152.608-.784.912-1.912.912-3.384 0-.992-.312-1.84-.936-2.544-.624-.72-1.584-1.08-2.88-1.08zm10.643-1.608c-.416.784-.624 1.952-.624 3.504 0 2.336.44 4.2 1.32 5.592.512.816 1.12 1.224 1.824 1.224.72 0 1.296-.376 1.728-1.128.512-.928.768-2.208.768-3.84 0-2.048-.288-3.56-.864-4.536-.256-.464-.408-.8-.456-1.008-.032-.208.024-.36.168-.456.144-.096.384-.144.72-.144.976 0 1.616 1.008 1.92 3.024.096.56.144 1.12.144 1.68 0 1.456-.288 2.912-.864 4.368-.816 2-2.104 3-3.864 3-.928 0-1.72-.344-2.376-1.032-1.232-1.312-1.848-3.288-1.848-5.928 0-1.152.08-2.032.24-2.64.16-.608.296-1 .408-1.176a2.59 2.59 0 01.408-.528c.16-.16.336-.224.528-.192.208.032.448.104.72.216zm11.377 8.904l.072 1.368c0 .352-.104.6-.312.744a1.066 1.066 0 01-.6.192c-.192 0-.392-.032-.6-.096-.352-1.856-.624-4.168-.816-6.936a417.45 417.45 0 00-.312-4.704c.24-.224.488-.336.744-.336.272 0 .512.032.72.096.064.464.112 1.488.144 3.072.032 1.584.072 2.576.12 2.976.224-1.344.624-2.6 1.2-3.768.32-.656.736-1.176 1.248-1.56.528-.4 1.088-.6 1.68-.6.608 0 1.16.272 1.656.816.512.528.768 1.008.768 1.44 0 .16-.096.288-.288.384a1.67 1.67 0 01-.648.12.617.617 0 01-.528-.264 1.571 1.571 0 01-.264-.576 1.277 1.277 0 00-.312-.6c-.16-.176-.376-.264-.648-.264-.72 0-1.336.648-1.848 1.944-.784 1.936-1.176 4.12-1.176 6.552z" fill="#5B6460"/></g><defs><clipPath id="clip0"><path fill="#fff" d="M0 0h502v352H0z"/></clipPath></defs></svg>