<svg width="70" height="70" fill="none" xmlns="http://www.w3.org/2000/svg"><g clip-path="url(#clip0)" fill="#fff"><path d="M35 0C20.205 0 8.167 12.665 8.167 28.233c0 15.257 24.947 40.364 26.008 41.426a1.168 1.168 0 001.65 0c1.062-1.062 26.009-26.169 26.009-41.426C61.834 12.665 49.796 0 35 0zm0 67.163c-4.362-4.525-24.5-26.114-24.5-38.93 0-14.28 10.992-25.9 24.5-25.9 13.51 0 24.5 11.62 24.5 25.9 0 12.81-20.139 34.404-24.5 38.93z"/><path d="M35 5.833c-11.579 0-21 9.421-21 21 0 11.58 9.421 21 21 21 11.58 0 21-9.42 21-21 0-11.579-9.42-21-21-21zM35 45.5c-10.293 0-18.666-8.374-18.666-18.667 0-10.292 8.373-18.666 18.666-18.666 10.294 0 18.667 8.374 18.667 18.666C53.667 37.126 45.294 45.5 35 45.5zm0 11.667c-.644 0-1.166.522-1.166 1.166v10.5a1.167 1.167 0 002.333 0v-10.5c0-.644-.523-1.166-1.167-1.166z"/><path d="M37.334 18.667h-4.667c-.644 0-1.167.522-1.167 1.166V24.5c0 .644.523 1.167 1.167 1.167h4.667c1.93 0 3.5-1.57 3.5-3.5s-1.57-3.5-3.5-3.5zm0 4.666h-3.5V21h3.5a1.168 1.168 0 010 2.333z"/><path d="M37.334 14H28c-.644 0-1.166.523-1.166 1.167V38.5c0 .644.522 1.167 1.166 1.167h4.667c.644 0 1.166-.523 1.166-1.167v-8.167h3.5c4.504 0 8.167-3.663 8.167-8.166 0-4.504-3.663-8.167-8.166-8.167zm0 14h-4.667c-.644 0-1.167.523-1.167 1.167v8.166h-2.333v-21h8.166a5.84 5.84 0 015.834 5.834A5.84 5.84 0 0137.333 28zm31.5 39.667h-4.667a1.167 1.167 0 000 2.333h4.667a1.167 1.167 0 000-2.333zm-40.834 0H1.167a1.167 1.167 0 000 2.333H28a1.167 1.167 0 000-2.333zm28 0H42A1.167 1.167 0 0042 70h14a1.167 1.167 0 000-2.333z"/></g><defs><clipPath id="clip0"><path fill="#fff" d="M0 0h70v70H0z"/></clipPath></defs></svg>