<svg width="70" height="70" fill="none" xmlns="http://www.w3.org/2000/svg"><g clip-path="url(#clip0)"><path d="M70 32.667a10.492 10.492 0 00-3.69-7.993 9.201 9.201 0 001.356-4.84 9.347 9.347 0 00-8.248-9.27 9.21 9.21 0 00.082-1.23 9.312 9.312 0 00-16.908-5.408 9.304 9.304 0 00-15.183 0 9.32 9.32 0 00-16.827 6.638 9.347 9.347 0 00-8.248 9.27 9.201 9.201 0 001.357 4.84C-.723 28.436-1.252 35.063 2.51 39.477c.361.424.756.819 1.18 1.18A9.201 9.201 0 002.335 45.5a9.344 9.344 0 009.333 9.334h7v12.833h-3.5a1.167 1.167 0 000 2.333h39.666a1.167 1.167 0 100-2.333h-3.5V54.834h7a9.344 9.344 0 009.333-9.334 9.201 9.201 0 00-1.357-4.84A10.492 10.492 0 0070 32.667zM11.667 52.49a7.007 7.007 0 01-7-6.99A6.92 6.92 0 016.2 41.138a1.167 1.167 0 00-.259-1.695 8.167 8.167 0 010-13.552 1.167 1.167 0 00.259-1.695 6.92 6.92 0 01-1.532-4.362 7.007 7.007 0 017-7l.302.017c.378.018.74-.15.967-.452a1.16 1.16 0 00.195-1.05 7 7 0 0113.03-4.999c0 .012 0 .023-.009.035a9.184 9.184 0 00-.336 1.34c-.014.077-.024.157-.036.233a8.795 8.795 0 00-.032 2.602 9.347 9.347 0 00-8.248 9.274 9.202 9.202 0 001.357 4.84c-.02.02-.038.039-.06.058l-5.43-5.431a1.167 1.167 0 00-1.65 1.65l5.498 5.497a10.488 10.488 0 001.642 14.212 9.134 9.134 0 00-1.022 2.359l-4.177-4.177a1.167 1.167 0 00-1.65 1.65l5.518 5.517c.01.162.012.326.03.484.01.11.033.215.048.322.03.216.06.43.106.642.027.126.064.247.096.37.048.188.096.375.155.557.042.13.092.254.14.38.064.171.129.342.203.508.056.126.117.249.179.371a7.71 7.71 0 00.465.817 8.514 8.514 0 00.541.769 10.376 10.376 0 00.612.71c.118.125.247.245.375.364.065.06.124.129.19.187h-8.999zm22.166 15.177H21V54.834h12.833v12.833zM35 15.167c-.644 0-1.167.523-1.167 1.167v8.267l-5.3-5.3a1.167 1.167 0 00-1.65 1.65l6.95 6.95v15.95l-5.008-5.009a1.167 1.167 0 00-1.65 1.65l6.658 6.658v5.35h-7a7.007 7.007 0 01-7-7 6.92 6.92 0 011.532-4.362 1.167 1.167 0 00-.259-1.695 8.167 8.167 0 010-13.552 1.167 1.167 0 00.26-1.695 6.92 6.92 0 01-1.532-4.362 7.007 7.007 0 017-7l.302.017c.377.02.74-.149.967-.452a1.16 1.16 0 00.195-1.05 6.883 6.883 0 01-.175-3.298c0-.016 0-.034.007-.05.084-.421.207-.834.365-1.233A7 7 0 0135 2.334a7 7 0 016.505 4.434c.16.402.281.817.365 1.241 0 .016 0 .034.008.05.08.42.12.847.122 1.275a7.02 7.02 0 01-.297 2.015c-.11.36-.038.753.194 1.05.228.302.59.471.967.452l.303-.017a7.007 7.007 0 017 7 6.92 6.92 0 01-1.532 4.362 1.167 1.167 0 00.259 1.695 8.167 8.167 0 010 13.552 1.167 1.167 0 00-.26 1.695 6.92 6.92 0 011.532 4.362 7.007 7.007 0 01-7 7h-7V36.57c.088-.043.169-.097.242-.161l7.583-7.583a1.167 1.167 0 00-1.65-1.65l-6.174 6.175V16.334c0-.644-.523-1.166-1.167-1.166zm14 52.5H36.167V54.834H49v12.833zm14.746-26.604c.017.026.036.05.055.075a6.92 6.92 0 011.532 4.362 7.007 7.007 0 01-7 7h-9c.067-.058.127-.126.19-.186a7.899 7.899 0 00.656-.675 7.17 7.17 0 00.332-.4 8.448 8.448 0 00.541-.769c.075-.116.148-.233.217-.35.087-.154.17-.311.248-.466.061-.123.117-.245.179-.371.075-.166.139-.337.203-.508.048-.127.098-.25.14-.38.06-.182.107-.37.155-.557.032-.123.069-.245.096-.37.045-.212.076-.427.106-.642.015-.108.037-.213.049-.322A9.29 9.29 0 0052.5 45.5a9.201 9.201 0 00-1.357-4.84 10.48 10.48 0 003.662-7.482l4.353-4.352a1.167 1.167 0 00-1.65-1.65l-2.988 2.988a10.48 10.48 0 00-3.377-5.484 9.201 9.201 0 001.357-4.846 9.347 9.347 0 00-8.248-9.27 8.795 8.795 0 00-.035-2.603c-.012-.08-.023-.159-.037-.233a9.172 9.172 0 00-.336-1.34c0-.011 0-.023-.008-.035a7 7 0 0113.03 5c-.11.36-.038.752.194 1.05.228.3.59.47.967.451l.306-.02a7.007 7.007 0 017 7 6.92 6.92 0 01-1.532 4.362 1.167 1.167 0 00.26 1.695 8.167 8.167 0 010 13.552 1.167 1.167 0 00-.315 1.62z" fill="#fff"/></g><defs><clipPath id="clip0"><path fill="#fff" d="M0 0h70v70H0z"/></clipPath></defs></svg>