<?xml version="1.0" standalone="no"?>
<!DOCTYPE svg PUBLIC "-//W3C//DTD SVG 20010904//EN"
 "http://www.w3.org/TR/2001/REC-SVG-20010904/DTD/svg10.dtd">
<svg version="1.0" xmlns="http://www.w3.org/2000/svg"
 width="544.000000pt" height="544.000000pt" viewBox="0 0 544.000000 544.000000"
 preserveAspectRatio="xMidYMid meet">
<metadata>
Created by potrace 1.14, written by Peter Selinger 2001-2017
</metadata>
<g transform="translate(0.000000,544.000000) scale(0.100000,-0.100000)"
fill="#000000" stroke="none">
<path d="M1440 4791 l0 -490 -680 -487 -680 -486 0 -1544 0 -1544 680 0 680 0
0 -40 0 -40 80 0 80 0 0 40 0 40 1880 0 1880 0 0 1544 0 1544 -760 543 -760
544 0 273 0 272 -80 0 -80 0 0 -210 c0 -115 -3 -210 -6 -210 -4 0 -217 151
-475 335 -257 184 -473 335 -479 335 -6 0 -260 -178 -563 -395 l-552 -396 -3
431 -2 430 -80 0 -80 0 0 -489z m1200 -2111 l0 -2280 -520 0 -520 0 0 1909 0
1910 517 370 c285 204 519 371 520 371 2 0 3 -1026 3 -2280z m613 1960 l426
-305 1 -1967 0 -1968 -440 0 -440 0 0 2280 c0 1926 2 2280 14 2273 7 -4 205
-145 439 -313z m1277 -915 l670 -480 0 -1422 0 -1423 -680 0 -680 0 0 834 0
835 162 145 161 146 319 0 318 0 0 80 0 80 -227 0 -228 0 50 48 c28 26 93 86
144 133 l95 86 -50 56 c-27 31 -52 57 -56 57 -4 0 -151 -129 -325 -287 -175
-157 -328 -295 -340 -306 l-23 -20 0 962 c0 627 3 962 10 959 5 -1 311 -219
680 -483z m-3090 -632 l0 -1008 -240 240 -240 240 -57 -58 -58 -57 298 -298
297 -297 0 -728 0 -727 -600 0 -600 0 0 1423 0 1422 597 428 c329 235 599 427
600 427 2 0 3 -453 3 -1007z"/>
</g>
</svg>
