<svg width="502" height="352" viewBox="0 0 502 352" fill="none" xmlns="http://www.w3.org/2000/svg">
<g clip-path="url(#clip0)">
<path d="M123.392 262.77L122.94 263.071L122.187 262.318L122.036 261.866L121.434 261.213L121.836 260.811L122.338 261.213L122.438 261.665L122.94 262.117L123.392 262.77ZM118.974 278.939L114.155 279.19L110.139 274.821L113.954 274.068L115.159 273.214L116.263 271.457L116.615 272.059L116.916 272.16L117.468 271.457V270.804L116.665 270.001L115.561 269.197L114.506 268.896L113.753 269.348L114.205 267.641L115.36 266.837L116.565 266.737L117.468 267.189L117.117 267.289L116.263 267.992L117.067 268.444L117.97 268.544L118.874 268.344L119.627 267.992V267.189H118.723L119.627 266.486L116.816 263.874L115.31 263.021L113.753 262.92L115.109 261.866L121.936 263.121L122.739 264.377L124.145 265.18L124.898 265.08L125.55 264.377H124.546L124.095 264.126L123.693 263.674L124.245 262.82L124.948 262.217L124.044 261.514L125.199 261.063L126.805 261.565L128.311 261.514L129.265 259.456L127.709 260.36L126.856 260.46L126.504 259.757L126.805 258.502L127.558 257.899L128.964 257.196L128.06 256.593L126.705 256.443L125.299 256.644L124.295 257.196L124.597 255.388L124.044 254.585L123.141 254.384L121.886 254.434L121.083 254.886L120.731 255.388L119.024 255.037L120.38 253.882L120.832 253.028L120.581 251.472L121.434 250.869L127.759 250.668L133.231 252.576L133.683 260.008L131.424 270.904L123.191 274.47L118.974 278.939V278.939Z" fill="#E9ECE0" stroke="white" stroke-width="2" stroke-linecap="round" stroke-linejoin="round"/>
<path d="M77.8602 144.365L77.6593 144.616L77.3079 144.215L77.9103 143.813L77.8602 144.365ZM78.9143 133.519L78.5629 134.071V133.117L79.3662 132.565L79.2156 133.168L78.9143 133.519ZM87.3982 125.083L87.1472 125.987L86.2937 126.389L86.0427 126.037L86.5447 125.384L86.7456 125.485L87.3982 125.083V125.083ZM111.344 124.079L110.942 124.129L111.143 123.476L111.494 123.175L111.745 123.426L111.344 124.079V124.079ZM63.7038 123.376L63.2519 124.079L63.1013 123.778L63.7038 123.376ZM157.377 155.663V156.617L157.829 158.124L157.879 159.982L157.728 161.94L157.779 162.894L157.979 163.999L158.331 165.304L159.034 166.811L160.138 169.824L160.891 173.891L161.142 175.046L161.895 176.803L158.883 176.703L157.377 176.151L156.022 175.347L152.508 172.234L152.558 171.129L152.357 170.276L151.554 169.422L150.751 168.016L150.299 167.514L149.496 166.761L149.194 166.208L148.893 165.204L148.19 162.744L148.04 160.936L148.19 159.68L148.492 158.676L149.646 156.266L149.947 155.463L149.998 154.709L149.897 153.856L149.044 150.993L148.642 149.487L148.341 148.734L145.982 145.821L144.927 145.169L144.626 144.767L144.275 143.964L143.02 142.357L140.359 136.883L139.556 134.473L139.205 133.82L138.703 133.519H137.046L133.13 134.624L131.775 132.967L131.474 132.364L131.373 131.711L131.524 130.958L132.026 130.054L133.13 129.05L133.482 128.598L133.582 128.146L133.432 127.041L133.683 125.334L133.833 124.079L133.783 120.815L133.281 119.359L132.076 120.212L131.524 121.116L130.42 123.928L129.616 124.631L125.249 126.087L123.693 126.138L120.43 125.384L117.769 126.188L116.866 126.138L117.769 124.43L118.723 123.175L117.066 121.518L116.464 120.363L116.263 118.656L115.661 119.108L115.008 119.409L114.356 119.509L113.753 119.409L114.004 120.966L113.603 121.468L112.95 121.317L112.448 120.915L112.046 119.911L111.193 117.3L110.591 116.396L110.842 118.254L110.741 119.811L110.34 121.166L109.687 122.422L108.884 123.426L108.432 123.828L107.98 123.978L107.579 125.485L107.177 126.489L106.775 126.941L105.018 127.092L104.265 126.79L103.061 124.882L100.4 122.422L98.4923 121.417L98.2413 120.463L99.0947 118.656L100.099 117.953L105.119 116.848L107.227 115.342L108.332 114.99L108.834 114.538L108.934 113.383V112.078L109.085 111.124L109.436 110.32L109.938 109.768L110.942 108.914L109.587 109.316L106.273 114.187L104.717 115.492L103.261 116.195L100.049 116.396V115.693L101.956 114.287L102.559 113.484V112.68L101.605 112.73L100.952 113.383L99.7473 114.99L98.8437 115.342L98.2413 114.94L97.7393 114.287L96.9362 114.187V114.99L97.4883 115.844L97.2373 116.798L96.5847 117.651L94.0747 118.656L93.4222 118.304L92.9202 116.396L92.8699 114.639L93.0205 113.283V111.927L92.4182 110.069L91.5647 106.152L91.0126 104.847L90.4603 105.851V107.609L90.5106 108.814L91.2133 111.124L91.2636 112.027L90.9623 112.881L90.1089 114.839L89.6069 115.593L89.0547 115.643L88.4022 114.588L87.4986 112.53L87.1472 112.329L86.8459 115.191L86.4946 116.045L85.9926 116.446L85.4403 116.396L85.0889 115.944L84.6873 115.09L83.6833 111.626L83.4826 109.818L83.7837 108.01L84.8379 105.901L84.4363 105.299L83.9846 105.851L83.5829 105.901L82.3279 105.098H81.5749L81.3239 105.299L81.1232 105.901V106.554L81.5247 108.914L81.9766 110.27L83.2316 118.656L82.5789 119.359L81.8259 119.158L80.9726 118.756L80.1693 118.656V118.003L80.4203 117.099L80.1693 116.346L79.6673 115.844L79.0649 115.693L77.5589 116.145L77.0569 116.045L77.0067 114.99L76.6553 115.09L75.5007 114.99V114.187L76.6052 113.082L78.6132 110.27L79.8682 109.667L79.3662 108.462L78.6132 107.609L77.0067 106.604L76.7557 109.065L75.8522 111.174L74.6976 112.228L73.7939 111.525L73.4927 110.32L73.2919 108.964L72.9907 107.86L72.5389 107.408L72.3883 108.161L72.1876 111.626L72.0369 112.68L71.0832 113.936L68.3222 114.588L67.0672 115.342L64.5572 114.086L63.2018 112.73L63.3523 111.124V110.421L62.0973 111.174L61.3443 113.333L61.244 115.743L62.0973 117.149V118.003L61.5451 118.605L60.491 120.313L59.8886 120.915L59.1858 121.166L56.1236 120.765L54.9188 120.212L54.1658 120.112L53.463 119.76L52.9108 118.957L52.4088 117.953L51.8566 118.053L51.204 118.656L51.8566 119.409L50.5513 119.961L48.1418 121.97L42.0173 123.225L40.6118 122.422L40.5616 123.727L40.3608 124.129L39.7082 124.631L38.0013 127.644L29.6682 129.954L27.5598 129.703L25.7024 128.447V127.644L25.9534 126.74L25.8028 125.987L25.351 125.234L24.7988 124.631L25.602 124.732L25.9534 124.932L26.355 125.384L26.4554 123.376L25.6522 122.372L24.598 122.522L24.1462 123.978L23.0418 122.321L16.064 119.409L3.16255 120.815L1.50595 120.514L0.501953 118.656L2.50995 117.451L3.51395 116.446L3.91555 115.342L4.51795 114.588L7.17855 112.881L7.98175 111.927L8.13235 110.22V108.261L8.38335 106.604L9.78895 105.65L10.5922 104.596L11.2448 104.345L12.3994 104.546L16.817 107.207L18.072 107.408L18.8752 107.91L21.335 111.124L23.1422 112.228L26.3048 113.132L27.0578 114.136L27.7104 115.392L28.5136 116.396L29.869 117.099L31.2244 116.999L33.7846 115.693L31.7264 115.743L30.622 115.442L29.7686 114.99L29.0156 113.986L28.4132 112.73L27.7104 111.576L26.8068 111.124L24.5478 108.613L23.2928 106.454L21.8872 104.495L21.084 102.939L27.9112 104.345L32.379 106.956L33.7846 107.408L32.9312 105.7L31.6762 104.294L30.4212 103.29L28.4132 102.537L26.0538 100.93L23.9956 100.177L22.9916 99.2229L21.335 96.8628L19.4776 93.0466L19.327 91.6406L19.3772 90.2848L19.327 88.9792L18.8752 87.6737L20.7828 85.9664L22.7406 86.117L41.917 96.8628L42.3186 97.4152L43.1218 99.0722L44.3768 100.026L44.678 100.579L45.1298 102.537L44.929 103.792L44.4772 104.947L44.0756 106.604L44.8788 107.056L45.933 106.203L47.7903 103.591L47.9911 104.144L48.694 105.098L49.196 104.043L51.6558 104.696L52.7601 104.345V103.591L52.1578 103.14L51.8566 102.085L52.6096 102.035L54.6678 100.579L55.3706 100.478L56.1236 100.579L56.8263 100.528L57.4288 99.8254L52.0573 100.277L49.5976 99.4739L47.7903 98.319L47.188 97.5658L46.3848 96.2602L45.933 95.0551L46.3848 94.5028L49.196 93.147L49.7983 93.398L50.5513 94.0508L54.216 93.5487L55.4208 92.444L56.3243 92.1929L58.3323 92.9963L59.2861 93.0968L60.24 92.1929L59.3866 91.4397H58.985V90.7869L61.1436 89.2805L61.7961 88.4269L59.2861 88.7784L57.8806 89.4814L55.9228 91.2388L43.674 90.9376L41.2643 89.9333L39.7082 88.4269L37.2986 89.3307L36.7463 88.8286L36.144 87.7239L33.4833 84.711L32.0276 81.6982L31.0738 78.0828L31.2244 74.7185L33.132 72.509L34.0356 72.4588L36.646 74.0155L40.0093 74.8189L40.8628 75.3712L42.3186 77.1789L43.1218 77.8317L43.9752 77.9321L46.8366 77.0785L52.459 79.3381H54.3163L57.5291 81.7484L59.2861 82.5016L60.8926 81.6982L57.1276 80.4931L55.9228 78.9364L52.1578 78.5849L51.0031 77.8819L48.8948 75.9738L44.176 74.8189L43.1218 74.0155L40.662 70.6511L39.407 69.9481L38.8046 68.8936L37.8508 68.4417L35.7423 66.4834L33.885 63.8722L33.4833 62.9684V59.5036L33.7343 57.6959L34.4372 56.3401L36.2946 55.6874L38.654 56.1895L46.8868 61.2611L49.2963 61.8637L50.9028 60.9598L51.1036 62.7173L51.6558 64.1735L52.459 65.228L53.3626 65.5795V64.8765L52.6096 63.7216L51.204 60.2066L50.3003 59.5036L49.2461 59.2526L47.188 58.1981L46.0836 57.947L45.5816 57.5955L44.176 55.6371L41.5153 53.2269L40.0093 51.0677L41.4652 49.8625L45.431 49.4608L48.443 49.963L52.459 53.3273L51.3546 52.2728L49.5976 49.3102L48.5433 48.7076L44.2262 48.808L43.1218 48.0046V47.151L43.5736 46.2973L44.2262 45.2931L44.9792 44.4394L45.7823 44.0879L47.6398 43.9875L48.3426 43.3347L48.443 41.8785L49.447 41.3262L56.5753 43.3849L61.1938 46.8497L62.5491 47.151L63.4528 47.9042L64.6073 49.6115L65.4106 51.62L65.2097 53.3273L65.5109 55.7376L67.7699 52.1724L68.6736 51.7707L69.1253 52.072L69.5772 52.7247L70.2297 54.1307L71.0329 55.3359L71.1333 55.9384V57.5955L71.3843 59.4032L71.4346 60.4577L71.1333 61.3113L70.3803 62.7173L70.2297 62.9684L68.1716 66.8349L67.7197 67.9396H68.0209L68.9747 66.3829L71.4847 63.2697L72.3883 61.7632L72.8402 59.8551L73.1413 59.0517L73.5932 58.7002L74.1453 59.0517L74.4967 59.9053L75.1493 62.5667L75.5007 62.7173L76.2537 61.6628L76.9566 61.0603L77.6593 61.7632L76.8562 64.3744L75.8019 66.9855L74.4967 69.0945L72.9907 70.149L74.7979 70.0486L75.6513 69.5966L76.4043 68.6426L77.2577 65.7804L77.9103 64.0731L78.4123 63.7216L79.0649 66.7344L78.7637 69.8477L78.3622 72.4588L78.6132 74.0155L80.1693 68.6426L80.0689 66.1319L80.2697 63.2697L80.6212 60.6083L81.1232 58.7002L81.4746 57.8968L81.7256 57.6959L84.7877 57.9972L85.0889 58.3487L85.2396 59.8551L85.4906 60.759L85.8922 61.3615L87.6492 63.2195L89.2556 66.3327L89.5567 66.7344L89.6069 67.2366L89.3559 69.6468L89.2053 70.9022L88.9042 71.9567L88.5527 72.509L88.8539 73.212L86.5447 79.7398L86.0427 81.7986L86.3942 82.7527L86.9463 82.5518L88.0507 78.2836L91.0627 70.149L91.3639 67.9396V67.1361L92.3177 66.9353L92.9202 67.9898L93.4723 69.5966L94.1752 71.0026L94.4763 71.0528L95.0285 70.8018L95.3799 71.7558V72.6597L95.1289 73.5133L95.0787 74.2665L95.7313 74.8189L95.9823 73.1116L96.2835 72.258L96.6349 72.509V73.2622L96.3337 77.0785L95.9322 78.3339L94.8779 80.4428L94.4763 81.6982V82.4012L96.1832 81.3969L97.9903 75.1704L99.4462 74.0155V73.212L98.4923 72.1575L97.9903 70.0486L97.6389 67.5379L97.2373 65.5795L96.5847 64.0229L95.7313 62.5165L94.7775 61.3615L93.8237 60.9598L94.2755 59.5036L94.4763 58.0976L94.7273 56.8423L95.3799 55.7376L96.2835 55.2856L97.1872 55.2354L97.9402 54.8337L98.4923 53.3273H97.5385L95.3297 54.4822L94.4763 55.3359L93.6229 55.6371L89.8077 53.729L87.2977 51.0677L76.5047 46.3476L73.2919 42.933L71.4346 37.9618L73.5429 36.5558L80.2697 34.7481L81.7256 34.7983L86.5447 36.355H87.7496L88.2516 36.5558L88.8539 37.9618L90.0587 39.2172L90.7113 39.418L91.3639 38.715L90.8117 37.8112L90.4102 36.355H92.6692L93.8237 36.0537L95.7815 34.4468L98.0405 34.1958L99.0947 33.3421L92.9202 34.2962L91.0627 33.3421L90.1592 32.3881L90.3599 32.2374L91.0627 32.137L91.8157 31.3336L92.3177 30.5302L92.9703 29.8272L93.7233 29.4254L94.4763 29.4757V28.622L93.4723 28.0195L92.8699 28.2705L91.0627 30.1787L88.7536 31.434L86.0929 31.7353L83.9343 31.2834L83.5829 31.0323L83.4826 29.7769L83.8842 28.9735L84.8379 27.8688L84.9886 27.0654L85.2396 24.7555L85.4403 24.0526L86.0427 23.3496L88.2013 22.4457L86.2436 22.8474L84.7376 23.9019L81.1733 27.8186L80.3199 28.3207L78.4123 28.622L77.8602 27.9692L78.1613 26.4628L78.8642 24.9062L79.5167 24.0526V23.1989L77.9606 23.8517L77.1573 24.5547L76.4043 25.559L74.5972 28.8229L74.2457 29.0237L73.1413 30.3795L65.9627 28.4714L64.0551 27.3667L62.8503 25.7598L62.0973 25.0066L61.7961 24.2534L62.3986 23.1989L64.1556 23.0985L66.3142 23.9521L68.2719 23.6508L69.2759 20.1359L67.9707 19.935L66.5652 18.8303L65.2097 17.2235L64.2559 15.466L65.6616 14.311L67.0672 15.014L68.5229 16.2694L69.8783 17.0226L69.5269 15.717L68.9246 14.6123L73.8943 13.7587L74.2457 13.9093L74.4967 14.3613L74.8983 15.7672L75.1493 16.2192L76.1533 16.4702L76.5549 15.6166L76.4043 14.5119L75.6513 13.9093L74.8983 13.608L72.6393 11.5995H77.2076L78.0107 11.951L79.6172 13.5578L81.6753 14.3613L83.2817 16.3698L84.1853 17.0226L85.3902 16.8217L87.1472 14.7128L88.2013 13.9093L87.9503 12.3527L89.7073 11.6999L91.1632 12.9051L92.6189 14.6123L95.7313 16.169L96.4342 16.0183L96.6349 14.6123L96.2835 13.5076L95.1289 12.654L94.7775 11.5995L96.2333 11.8506L97.6389 13.2565L98.6932 15.5162L99.0947 18.1775L99.8979 19.8346L103.613 21.9436L104.767 24.0526L104.115 25.2075L104.667 25.8603L106.625 26.3122V27.0654L105.771 26.8143L105.42 27.2662L105.37 28.2705V29.4757L105.972 30.8314L106.073 31.6851L105.37 32.4885V33.3421L105.972 34.0953L106.575 33.3924L107.277 32.84L108.03 32.4885H108.733L109.185 32.9906L109.536 33.7438L109.988 34.0953L110.992 31.8859L111.745 31.6851L112.147 32.4383L111.896 34.0953L115.109 33.7438L115.912 34.0953L116.313 33.3924L116.715 33.3421L117.468 34.0953L119.325 37.1584L118.924 37.9618L116.263 40.2717L116.866 40.6734L117.418 40.3721L118.02 39.7695L118.723 39.418L119.376 39.5687L121.534 41.3764L122.086 42.23L122.438 42.5313L122.89 42.5815L123.793 41.9789L124.295 41.8785L127.157 43.3849L126.805 44.8914L127.608 45.3935L128.06 46.7493V48.105L127.408 48.7076L127.96 50.5153L128.06 51.0175L128.161 52.8754L128.361 55.0346L128.663 55.7878L129.265 56.3401L129.918 56.2397L130.721 55.7376L131.524 55.5367L132.076 56.3401L132.177 57.8968L131.775 59.3028L131.223 60.6083L130.871 61.7632L131.424 61.6126L132.177 61.1105L132.779 60.4577L133.03 59.8551L133.08 57.9972L133.03 57.1436L132.076 54.8839L132.628 54.2814L134.235 53.4277L136.293 53.3273L136.594 53.6788L137.046 55.3359L137.247 55.7376L138.05 56.1393L137.548 56.9929L136.544 57.7963L136.142 57.947L135.841 59.0517L136.042 59.8551L136.895 61.3615L138.05 62.3156L142.97 60.9598L144.275 61.3113L145.379 61.9139L146.182 63.2195L146.735 65.5795L140.359 66.1821L139.104 67.2366L134.335 68.6426H133.632L134.486 70.1992L135.741 70.0486L138.301 68.6426L142.568 67.8391L143.923 68.6426L143.371 69.5966L141.413 71.0026V71.7558L146.283 70.3498L147.488 71.3541L148.14 73.6137L148.291 75.5219L147.739 76.9781L146.383 77.8317L148.542 79.3381V80.1918L146.333 85.4642L145.48 86.9204L144.174 88.1758L139.556 89.9333V90.7869L140.51 90.8371L142.217 90.5359L142.97 90.7869L145.379 92.3436L146.132 93.0466L142.367 97.5658L141.062 98.6203L134.887 98.319L134.436 97.8169L133.482 96.0594L132.628 95.4066L131.825 93.9504L131.273 92.3938L131.173 91.4397L130.068 89.8831L128.663 89.0796L127.207 89.1299L125.902 89.9333L126.755 90.0839L128.914 91.4899L129.616 92.1929L129.717 92.4942L130.671 94.3019L130.871 94.5028L130.972 95.8083L130.821 96.7122L130.47 97.4152L129.918 98.319L130.62 99.0722L131.022 99.6246L131.173 100.227L131.424 101.683L131.926 102.487L133.482 103.993L141.062 103.792L142.367 104.495L142.97 105.901L142.518 107.157L140.158 110.923L139.255 111.927V112.68L141.464 111.425L144.225 108.914L146.634 108.362L147.638 113.082L146.684 117.099L144.375 120.966L141.715 123.778L139.556 124.631V125.384L144.124 123.627L145.881 122.02L146.885 121.669L147.889 121.869L148.542 122.472L149.847 124.631L151.554 126.288L152.006 127.393L151.704 129.201L152.307 129.602L152.407 130.406L152.307 131.561L152.357 132.916L152.608 135.327V137.034L152.407 139.193L152.457 140.298L154.214 145.972L154.817 147.077L154.465 147.78L155.369 148.734L156.323 150.542L156.775 152.651L156.373 154.559V155.262L157.126 155.914L157.377 155.663V155.663Z" fill="#E9ECE0" stroke="white" stroke-width="2" stroke-linecap="round" stroke-linejoin="round"/>
<path d="M332.676 301.786L329.011 302.238V302.037L331.722 301.384L332.525 301.535L332.676 301.786ZM351.601 301.284L346.983 301.836L348.84 301.284L349.091 300.681L351.35 300.832L351.601 301.284V301.284ZM358.98 299.878L357.123 300.33L357.776 299.777L358.629 299.677L358.98 299.878V299.878ZM343.92 299.175L343.72 300.179L343.368 299.978L343.569 298.623L343.82 298.271L343.92 299.175V299.175ZM359.181 299.325L358.78 299.426L358.579 299.074L358.93 298.572L360.085 297.668L360.286 297.819L359.181 299.325ZM363.749 292.296L361.189 296.112L360.938 295.861L361.089 295.158L363.247 292.547L363.749 292.296V292.296ZM470.726 216.623L472.081 216.874L472.131 217.376L471.93 217.778L471.479 217.979L470.926 217.878L470.625 217.426L470.324 217.376L470.726 216.623ZM325.246 302.79L325.146 301.635L325.346 283.659L325.597 281.6L327.254 275.273L348.338 230.03L356.972 212.405L358.077 208.539L359.031 204.371L359.282 202.915L359.432 201.107L359.332 200.153L358.88 198.395L358.78 197.542L358.529 196.688L357.424 193.776L357.374 192.922L357.525 192.068L358.729 189.357L359.382 188.353L359.733 187.75L359.834 186.746L359.533 185.541L359.633 184.185L359.934 182.578L360.135 181.975L360.386 181.624L361.541 181.523L364.151 180.218L364.954 180.017L366.812 179.967L367.615 179.766L368.418 179.113L370.828 175.699L372.785 173.59L373.287 173.188L376.299 172.234L376.852 171.782L377.504 171.029L378.659 169.171L379.01 168.317V167.715L378.207 167.062L378.056 166.761L378.006 165.807L378.307 164.35L378.91 160.685V158.325L378.809 156.919V156.015L378.96 154.408L378.809 153.454L378.86 152.65L379.161 151.094L379.713 149.638L380.968 147.679L382.323 144.867L382.825 144.365L385.185 142.608L385.687 142.005L386.038 141.151L386.641 139.394L386.841 138.49L386.892 137.787L386.641 136.482L386.44 135.728L385.135 133.469L384.281 132.314L380.817 129.904L380.617 129.602L380.165 128.648V127.644L380.315 126.389L380.717 125.334L381.319 124.631L382.223 122.874L383.026 122.522L383.528 122.07L384.08 121.267L384.683 119.861L385.386 117.752L385.837 116.044L385.938 115.241L386.239 112.58L386.49 111.826L386.892 111.324L387.544 111.224L401.6 114.136L402.102 114.036L402.203 113.534L402.253 112.228L402.554 110.42L403.608 106.855L403.658 105.901L403.558 105.048L403.257 103.34L403.156 102.236L403.106 99.3232L402.905 97.9172L402.554 97.0636L402.454 95.758L402.554 94.0507L402.654 93.2975L402.905 92.5945L403.407 92.243L412.845 89.6319L413.196 89.3808L413.498 87.7238L413.849 87.0208L414.552 86.1169L415.204 85.5646L417.614 84.1084L418.216 83.5058L418.618 82.7024L419.22 80.1415L423.287 79.4887L425.997 77.4299L427.805 75.3711L428.959 72.9107L447.433 70.5004L448.838 66.3326L451.047 65.7803L451.499 68.2408L451.549 69.4961L451.399 69.948L450.846 70.5506L450.595 71.0025L450.646 72.7098L450.595 73.2119L449.591 75.9235L449.391 76.6767L448.889 77.1788L445.927 80.8445L442.614 83.4054L441.559 84.7109L441.66 86.6693L440.756 88.2259L438.497 90.7868L439.853 90.6864L441.057 89.7323L443.166 86.9204L442.463 89.18L441.158 91.6907L440.606 93.649L442.212 94.5027L443.869 94.0005L447.433 91.9418L457.172 89.2804L460.686 87.3221L462.543 86.8199L463.999 88.4268L461.991 93.0967L460.886 94.2516L460.987 95.1555L461.338 96.1095L461.74 96.7623L462.744 97.5657L465.655 99.5241L466.459 100.579L463.999 101.332L462.694 102.386L461.589 105.248L459.23 108.06L458.326 110.37L454.862 114.538L454.16 115.944L453.658 117.601L453.407 119.409L454.009 118.555L454.963 116.145L455.415 115.693L455.967 115.392L457.473 113.785L457.925 113.082L458.778 111.324L464.4 102.788L465.404 102.085L466.609 102.386L470.224 105.098L469.471 104.043L468.216 102.637L467.714 101.432L477.653 107.408L478.958 107.609L483.928 106.353L484.782 106.454L485.284 107.006L485.635 108.312L485.685 109.466L485.434 110.22L484.832 110.42V111.123L486.288 111.073L486.89 111.274L487.342 111.927L487.392 112.68L487.041 114.99L487.342 115.793L487.743 116.396L488.597 117.149L490.705 114.036L491.86 113.132L493.215 113.484L493.466 113.935L493.567 115.693L493.818 115.743L494.47 115.542L494.771 115.693L496.378 117.501L496.679 118.003L496.729 120.413L496.077 121.92L495.223 122.974L494.771 123.978L494.872 124.581L495.424 126.69V127.644L495.123 128.046L493.567 129.201L494.018 129.853V130.707L493.868 131.711V132.916L492.362 134.021L488.195 133.419L486.388 134.423L487.543 135.377L491.057 136.632L491.207 138.44L490.153 139.645L488.697 140.298L486.438 140.348L485.484 140.649L483.577 141.854L479.812 142.557L478.607 143.311L479.36 144.365L486.539 141.654L488.747 141.854L493.115 140.7L494.47 141.101L496.729 142.608L497.884 143.863L498.536 145.621L497.482 146.474L495.625 149.437L494.621 150.09L488.898 151.546H482.824L480.163 152.199H477.402L478.808 153.353L484.079 152.199L491.057 153.002L494.169 152.199H495.876L496.328 152.6L496.127 153.353L495.424 154.559L495.324 155.262V156.165L495.123 156.668L493.366 157.471L491.86 157.622L490.454 158.174V158.977L493.968 158.224L494.771 158.977V159.68L494.32 159.781L493.918 160.082L493.567 160.534L493.215 161.187H494.621L495.073 161.438L495.876 162.593L496.328 162.292L497.081 160.785L497.432 160.484L497.532 160.032L498.838 157.471L500.695 155.262L500.846 156.818V159.128L500.695 161.337L500.394 162.593V163.396L501.247 164.049L501.498 165.053L501.197 166.359L500.394 167.815L499.49 168.669L497.583 169.271L496.679 170.025L497.482 171.531L497.884 172.535L497.733 172.987L497.03 173.339L495.625 174.895L494.922 175.247L491.659 174.443L488.848 174.945L487.944 174.443L487.492 173.439L487.091 171.933L486.639 170.627L485.936 170.025L485.183 169.773L483.677 168.769L481.318 167.966L478.808 165.455L477.402 164.903L477.653 166.058L478.155 166.961L478.707 167.514L479.209 167.815L477.603 169.673L468.316 170.025V170.828L482.673 172.234L483.125 172.686L483.727 173.489L484.28 174.544L484.531 175.598L484.932 176.151L487.041 178.109L491.709 180.318L492.613 181.825L490.755 183.331L488.496 182.98L484.531 181.072L480.013 181.825L477.252 180.62L476.448 181.072L479.159 182.98L485.635 184.486L488.597 186.947L488.948 187.599L489.35 188.553L489.5 189.508L489.049 189.859L488.296 190.211L487.141 191.717L486.539 192.068L481.82 190.211L480.464 191.416L485.384 193.424L486.187 194.228L486.237 195.383L484.932 195.784L479.762 195.583L478.306 194.981L478.055 195.483L477.653 195.885L476.75 196.437V197.24L478.155 198.998L478.858 200.153L479.561 201.609L478.808 201.86L476.75 203.768L466.659 205.978L465.003 205.425L464.149 204.873L463.547 204.17L462.242 200.002L461.087 198.797L459.832 196.337L459.18 195.784L455.615 194.981L456.067 195.583L456.519 195.834L457.623 195.784L458.226 196.286L458.176 197.391L457.874 198.596L457.774 199.349L458.477 200.253L460.786 201.509L461.539 201.609L461.439 203.668L462.091 205.375L462.945 206.781L463.547 207.434L465.806 208.187L466.659 209.141L466.157 210.296L466.459 211.049L458.878 208.488L456.519 210.296L457.272 211.2L459.079 212.154L459.983 213.209L460.435 214.414L460.334 215.418L459.882 216.221L459.029 216.824H452.955L452.403 217.527L452.955 218.933L453.858 220.138L454.36 220.088L454.812 221.193L455.766 221.896L456.67 221.946L456.87 221.193L458.728 220.64L461.539 216.422L462.945 215.368L463.196 215.92L462.543 217.075L458.376 222.197L457.774 223.402L457.623 224.406L457.473 226.565L457.272 227.419L455.816 230.03L455.615 230.984L455.816 232.742L455.766 233.143L455.063 233.997L454.862 235.102L454.36 236.709L454.21 237.06L449.491 237.613L446.228 238.767L445.023 239.27L447.031 237.713L451.047 236.558L453.105 235.704L451.951 234.901L446.931 234.098L446.579 234.248L446.529 234.7L446.579 236.106L445.124 237.613L444.571 237.864L444.371 238.115L443.417 239.922L442.915 240.475L440.405 242.132L439.351 243.186L438.447 244.492L438.096 244.542L438.497 243.588V242.885H438.146L437.845 243.939L437.142 244.843L436.389 245.496L435.837 245.747L435.686 246.099L435.837 246.852L436.188 247.605L436.64 247.957L437.594 247.856L438.045 247.605L438.497 247.153L438.698 248.66L439.1 250.066L438.096 250.015L436.74 251.773L435.837 252.225L433.728 252.024L432.825 251.572L431.921 250.819L430.515 249.061L429.612 248.258L428.708 247.957L428.307 248.258L427.453 249.614L427.001 250.066L426.449 249.915L425.947 249.513L425.395 249.363L424.793 250.066L425.395 250.819L424.893 251.321L424.391 251.522L423.287 251.472L424.14 248.609V247.957L422.684 248.358L421.981 248.308L421.68 247.555L421.479 245.948L420.977 244.843L420.375 244.492L419.823 245.044V245.747L420.475 246.802L420.626 247.505L420.777 248.609L420.174 248.157L418.869 247.706L418.267 247.153V246.551L418.718 245.044L418.066 242.835L416.911 240.826L415.957 239.922L415.004 238.918L413.196 238.165L412.042 237.864L412.845 238.516L414.401 239.169L415.305 239.621L415.807 240.776L416.61 243.337L417.012 244.241L416.66 244.793L416.259 244.994L415.857 244.793L415.506 244.241V245.044L416.409 245.848L416.56 247.505L416.208 249.312L415.506 250.819L414.351 251.421L411.841 250.718L410.787 251.472L411.439 252.024L412.142 252.225H413.648L412.494 253.179L409.582 254.284L406.972 254.535L404.211 255.539L403.056 256.543L402.554 255.539L402.403 255.037L401.148 256.844L397.132 260.108L400.897 258.803L401.801 259.456L400.245 260.711L388.498 264.326L386.841 265.833H389V266.486L386.139 268.996L385.135 269.348L384.683 269.599L383.127 271.457L382.072 272.26L381.621 272.762L381.269 273.666L380.817 272.662L380.366 272.461L379.914 272.913L379.412 273.666V274.369H380.014V275.022L377.303 276.93L376.299 277.181L376.601 275.725L374.141 277.583L372.936 279.039L372.233 280.746L372.986 280.797L373.589 280.244L374.04 279.642L372.836 282.052L372.233 282.906L368.97 285.768L366.812 289.232L366.51 289.182L367.012 288.379L367.263 287.174L360.386 292.848L354.312 294.656L353.408 294.405L353.76 294.856L354.211 294.907L353.358 295.409L352.605 295.61L352.756 296.714V298.12L352.505 299.376L352.003 299.828L351.802 299.526L351.701 298.823V297.417L351.601 297.066L350.748 296.313L349.041 293.953L348.589 293.501L347.886 293.25L347.485 293.551L347.384 294.455V295.961L347.535 297.869L347.485 299.225L347.183 299.828L346.581 299.476L346.481 298.572L346.732 295.961L346.581 295.057L346.28 293.852L345.928 293.199L345.778 293.852V296.614L345.728 297.919L345.477 299.074L346.129 300.028L345.878 300.732L345.175 301.183L344.272 301.284L344.774 298.974L344.824 297.97L344.523 297.066L344.874 295.811L345.426 295.308V294.756L345.175 294.204L345.426 291.442L345.477 289.935L345.175 288.881L344.673 288.078L344.171 287.626L343.92 288.178L343.82 290.839L343.87 291.944L344.272 292.848L343.519 293.551L342.665 293.501L341.912 293.651L341.461 294.907L342.013 295.961L342.214 297.166L342.565 298.271L343.318 299.074L342.465 300.229L340.808 300.631L337.545 300.531L336.842 300.33L335.236 299.074L334.583 299.526L333.981 300.229L333.529 300.179L333.378 298.422L327.756 301.937L325.246 302.79V302.79Z" fill="#E9ECE0" stroke="white" stroke-width="2" stroke-linecap="round" stroke-linejoin="round"/>
<path d="M278.008 186.595L257.827 191.114L244.926 196.889L233.581 196.839L221.683 200.454L220.378 200.555L219.274 200.304L207.627 195.081L210.037 190.863L215.258 185.139L215.659 184.386L215.96 183.432V181.975L215.609 180.921L215.207 180.72L201.804 180.118L190.961 179.866L188.802 178.712L188.15 178.661L173.592 183.08L172.839 182.98L171.132 181.222L170.63 181.021L166.865 180.72L166.212 180.519L162.297 177.908L161.895 176.803L161.142 175.046L160.891 173.891L160.138 169.824L159.034 166.811L158.331 165.304L157.979 163.999L157.779 162.894L157.728 161.94L157.879 159.982L157.829 158.124L157.377 156.617V155.663L157.879 155.262L158.23 153.755L157.578 151.144L157.427 149.387L157.277 148.583L156.875 147.478L156.122 145.821L155.72 144.867L156.423 143.662L156.674 143.311L156.524 142.407L156.825 141.704L157.277 141.101L157.578 140.398L157.829 138.741V137.235L156.875 129L156.674 125.535L157.277 123.978L158.682 124.782L159.636 126.74L161.042 131.36L162.347 134.021L162.548 134.774L162.849 135.578L164.405 136.08L165.058 136.632L165.359 135.829L164.204 133.318L163.15 129.954L162.297 126.389L161.945 123.175L161.795 120.564L161.744 118.806L161.945 117.149L162.146 116.547L162.698 115.542L162.899 114.99L163.401 111.827L163.501 111.124L164.907 108.412L170.027 104.345L172.839 100.579L173.642 100.127L174.545 99.8756L175.148 99.4237L175.349 98.319L175.901 98.2185L176.353 98.57L177.206 99.8254L178.009 99.7249L178.16 99.8254L178.26 100.779L177.808 101.432L177.507 105.801L177.457 108.06L177.808 109.667L177.256 111.525V113.433L177.708 114.588L178.712 114.187L178.26 112.178L178.361 110.37L178.913 109.567L180.017 110.421L180.419 111.124V112.228L180.62 113.484L180.318 115.09L180.469 115.643L181.322 116.145L181.573 116.396L181.925 117.35L182.276 118.756L182.778 119.409L183.28 119.811L183.832 120.112L184.435 120.212L184.987 120.112L185.991 119.409L186.393 118.204L186.644 116.547L187.146 114.187L186.644 113.735L185.941 112.228L185.439 111.927L183.883 112.078L183.13 111.827L182.477 111.124L183.983 110.521L185.439 110.421L186.041 110.169L187.296 109.165L187.949 108.914L188.501 109.969L188.35 114.839L189.003 116.396L188.802 114.638L189.254 113.333L189.555 112.078L189.003 110.421L189.505 108.964L190.961 106.805L191.664 105.5L191.814 104.696L191.915 102.888L192.115 102.085L192.567 101.683H193.37L194.324 101.432L193.32 101.181L192.668 99.8254L192.617 98.319L193.22 97.5657L193.822 97.1138L194.274 96.0091L194.525 94.4023L194.625 92.6448L194.274 89.7826L193.37 87.1714L192.266 85.1127L191.212 83.9578V83.1543L192.417 81.9994L191.915 78.7857L190.76 75.1703L189.053 71.2536L188.702 70.1991L188.451 66.3829L188.15 64.5249L187.648 63.0687L186.995 61.9138L186.192 60.9598L186.895 59.855L187.547 58.1478L187.748 56.3401L187.146 54.8839L188.049 54.0804L189.154 53.8796L191.061 54.1307L191.513 53.9298L192.316 52.9757L192.768 52.6242L193.37 52.4234L194.977 52.6242L195.83 52.1221L197.487 50.0131L198.19 49.5612L200.398 50.3646L201.453 50.465L202.406 49.5612L202.657 51.9212L203.26 53.3272L204.113 54.1809L205.167 54.8839L204.866 55.7375L205.368 56.1894L205.669 57.0431L206.121 58.7001L206.724 60.4074L208.631 64.073L208.882 65.0773L209.083 65.9309L209.284 66.6339L209.836 67.1361L209.234 68.6425L210.137 70.1489L211.292 71.354L212.145 72.76L212.045 74.8188L212.848 75.572L215.308 75.9737L217.115 77.2291L218.169 77.2793L218.972 78.5346L219.575 78.4342L219.826 78.5849L220.077 79.3883L220.428 81.6981L221.432 83.9075L221.683 84.711L221.884 86.117L222.135 89.0796L222.436 90.3851L223.44 91.7409L225.749 92.4439L226.653 93.7997L226.954 91.4396L227.255 90.586L228.661 90.7869L229.464 91.8916L229.765 92.1928L231.171 92.5443L230.87 92.8958L230.719 93.398L230.87 94.3018L231.271 94.352L232.075 93.7997L232.577 93.1469L232.978 91.5903L233.53 88.4268L233.832 85.2131V82.4011L233.53 79.79L232.878 77.0784L231.623 73.212L231.472 72.509L228.812 69.4961L228.761 68.6927L228.962 67.6382L229.364 66.7344L229.916 66.3829L230.769 66.182L231.673 65.5794L232.526 64.6756L233.179 63.37L232.677 62.7172L232.275 61.8134L231.924 60.7087L231.472 58.3486V57.9469L232.075 56.792L232.928 55.7375L235.488 54.3315L241.562 53.3272L243.671 54.9341L244.825 55.1349L244.725 53.3272L245.428 52.574L245.829 52.4736L246.281 52.6242L245.98 54.1307L246.884 54.4821L248.39 56.1392L249.343 56.3401L248.791 55.7877L248.339 55.1851L248.038 54.3315L247.837 53.3272H248.139V52.6242L247.185 51.7706V51.0676L247.637 50.3144L248.088 47.653L248.39 46.5483L248.641 46.6488L250.749 48.6071L251.452 49.9127L252.205 52.0719L253.761 55.3358L254.263 56.1392L258.028 60.8091L258.58 62.0645L258.63 62.9683L257.827 63.6713L257.426 64.2739V64.8262L257.476 66.3829L257.375 66.7344L257.074 67.2365L256.472 67.6884L256.12 68.4918L256.422 68.9438L257.175 69.3957L257.727 69.8978L257.978 70.4502L258.229 71.2034L258.329 72.2077V73.1617L258.279 73.9652L258.078 74.6682L257.777 75.3712L256.622 77.3295L255.92 77.9823L255.518 78.1329L253.912 78.2836L253.359 78.6351L252.958 79.4887L252.657 80.8445L252.606 81.9994L252.707 82.7526L252.958 83.4054L253.359 83.8573L255.066 85.1629L257.275 87.5229L258.229 87.8242L258.63 88.2762L259.082 89.0294L259.785 90.9375L260.086 91.8916L260.187 92.5946L259.986 93.4482L259.936 94.2516L260.086 94.8542L261.04 96.5112L261.191 98.2185L261.04 98.8211L260.789 99.3232L258.831 100.88L258.379 101.583L258.279 102.085V103.441L257.928 104.345L257.325 105.399L257.175 106.604L257.074 107.056L256.572 107.809L255.869 108.462L255.719 109.366L255.869 110.119L256.221 110.672L256.522 110.923L257.175 111.124L257.827 111.726L258.681 113.182L259.132 113.484L260.638 113.735L261.04 114.036L261.693 114.739L262.747 115.542L263.399 116.396L264.203 117.25L264.504 117.802L264.604 118.656L264.403 119.409L264.152 119.861L263.199 121.066L262.948 121.568V123.225L262.697 124.129L262.245 125.234L262.044 125.937L261.994 126.84L262.245 127.343L262.697 127.744L263.349 128.046L264.052 128.598L264.654 129.351L265.106 130.456L265.357 132.716L265.709 133.519L266.211 134.071L266.813 134.373L269.925 134.825L270.327 135.126L270.678 135.678L270.929 136.783L271.482 140.499L272.084 142.256L272.837 143.662L274.845 145.972L278.56 148.332L279.263 148.985L280.016 150.24L280.317 151.395L280.769 153.906L281.271 158.023L281.421 163.497V166.409L281.321 168.819L281.12 170.828L280.016 177.908L278.008 186.595V186.595Z" fill="#E9ECE0" stroke="white" stroke-width="2" stroke-linecap="round" stroke-linejoin="round"/>
<path d="M281.17 66.2825L280.568 66.6842L280.016 66.4834L279.614 66.0817L279.363 65.4289L279.263 64.525L279.012 63.1692L278.56 61.5624L278.811 61.1607L279.714 62.165L280.518 63.5207L281.17 64.9769V66.2825V66.2825ZM305.065 44.8914L305.015 46.1467L304.664 46.0965L304.413 46.6991L303.61 46.3978H302.857L302.806 45.3433L303.258 44.9918L304.463 44.7407L305.065 44.8914V44.8914ZM451.047 65.7804L448.838 66.3327L447.433 70.5005L428.959 72.9108L427.804 75.3712L425.997 77.43L423.286 79.4888L419.22 80.1416L418.618 82.7025L418.216 83.5059L417.614 84.1085L415.204 85.5647L414.552 86.117L413.849 87.0209L413.497 87.7239L413.196 89.3809L412.845 89.632L403.407 92.2431L402.905 92.5946L402.654 93.2976L402.554 94.0508L402.453 95.7581L402.554 97.0637L402.905 97.9173L403.106 99.3233L403.156 102.236L403.257 103.34L403.558 105.048L403.658 105.901L403.608 106.855L402.554 110.421L402.253 112.228L402.202 113.534L402.102 114.036L401.6 114.136L387.544 111.224L386.891 111.324L386.49 111.827L386.239 112.58L385.938 115.241L385.837 116.045L385.385 117.752L384.683 119.861L384.08 121.267L383.528 122.07L383.026 122.522L382.223 122.874L381.319 124.631L380.717 125.334L380.315 126.389L380.165 127.644V128.648L380.616 129.602L380.817 129.904L384.281 132.314L385.134 133.469L386.44 135.728L386.64 136.482L386.891 137.787L386.841 138.49L386.64 139.394L386.038 141.152L385.687 142.005L385.185 142.608L382.825 144.365L382.323 144.867L380.968 147.679L379.713 149.638L379.161 151.094L378.859 152.651L378.809 153.454L378.96 154.408L378.809 156.015V156.919L378.91 158.325V160.685L378.307 164.35L378.006 165.807L378.056 166.761L378.207 167.062L379.01 167.715V168.317L378.659 169.171L377.504 171.029L376.851 171.782L376.299 172.234L373.287 173.188L372.785 173.59L370.827 175.699L368.418 179.113L367.615 179.766L366.811 179.967L364.954 180.017L364.151 180.218L361.54 181.524L360.386 181.624L360.135 181.976L359.934 182.578L359.633 184.185L359.532 185.541L359.834 186.746L359.733 187.75L359.382 188.353L358.729 189.357L357.524 192.069L357.374 192.922L357.424 193.776L358.528 196.688L358.779 197.542L358.88 198.395L359.332 200.153L359.432 201.107L359.281 202.915L359.03 204.371L358.077 208.539L356.972 212.405L348.338 230.03L322.635 214.514L299.744 200.956L286.742 193.374L282.224 190.612L278.008 186.595L280.016 177.908L281.12 170.828L281.321 168.819L281.421 166.409V163.497L281.271 158.023L280.769 153.906L280.317 151.395L280.016 150.24L279.263 148.985L278.56 148.332L274.845 145.972L272.837 143.662L272.084 142.256L271.482 140.499L270.929 136.783L270.678 135.678L270.327 135.126L269.925 134.825L266.813 134.373L266.211 134.071L265.709 133.519L265.357 132.716L265.106 130.456L264.654 129.351L264.052 128.598L263.349 128.046L262.697 127.744L262.245 127.343L261.994 126.841L262.044 125.937L262.245 125.234L262.697 124.129L262.948 123.225V121.568L263.199 121.066L264.152 119.861L264.403 119.409L264.604 118.656L264.504 117.802L264.203 117.25L263.399 116.396L262.747 115.542L261.693 114.739L261.04 114.036L260.638 113.735L259.132 113.484L258.681 113.182L257.827 111.726L257.175 111.124L256.522 110.923L256.221 110.672L255.869 110.119L255.719 109.366L255.869 108.462L256.572 107.809L257.074 107.056L257.175 106.604L257.325 105.399L257.928 104.345L258.279 103.441V102.085L258.379 101.583L258.831 100.88L260.789 99.3233L261.04 98.8212L261.191 98.2186L261.04 96.5113L260.086 94.8543L259.936 94.2517L259.986 93.4483L260.187 92.5946L260.086 91.8916L259.785 90.9376L259.082 89.0294L258.63 88.2762L258.229 87.8243L257.275 87.523L255.066 85.163L253.359 83.8574L252.958 83.4055L252.707 82.7527L252.606 81.9995L252.657 80.8446L252.958 79.4888L253.359 78.6352L253.912 78.2837L255.518 78.133L255.92 77.9824L256.622 77.3296L257.777 75.3712L258.078 74.6682L258.279 73.9653L258.329 73.1618V72.2078L258.229 71.2035L257.978 70.4503L257.727 69.8979L257.175 69.3958L256.422 68.9439L256.12 68.4919L256.472 67.6885L257.074 67.2366L257.375 66.7344L257.476 66.3829L257.426 64.8263V64.274L257.827 63.6714L258.63 62.9684L258.58 62.0645L258.028 60.8092L254.263 56.1393L253.761 55.3359L252.205 52.072L251.452 49.9128L250.749 48.6072L248.641 46.6488L248.39 46.5484L248.841 45.7952L250.448 44.3892L254.464 42.8326L255.92 43.5356L255.618 47.151L256.472 46.7995L257.074 45.8454L258.128 43.3849L257.777 41.8785L258.58 41.1755L259.835 41.4266L262.094 42.5313L261.743 44.2386L260.99 46.6991L260.839 48.3561L261.341 48.3059L264.604 44.8914L265.96 45.1926L267.014 46.5484L267.968 48.0046L268.821 48.7076L269.223 49.511L268.721 51.2685L267.415 54.1307L268.018 54.1809L268.67 54.0303L269.273 53.5784L269.725 52.9758L270.277 52.5239L270.829 53.026L271.431 53.729L271.933 54.1307L272.636 54.9844L273.088 56.9427L273.439 59.2023L273.941 60.9598L273.088 64.274L272.737 66.2323L272.837 67.1361L276.1 67.9396L278.208 69.2954L281.572 69.7975L282.024 70.149L282.526 71.0528L283.279 72.8605L284.333 73.7142L284.684 74.8189L284.885 76.1245L285.538 78.4343L285.889 78.5849L286.742 78.4845L287.144 78.5849L287.445 78.9867L287.897 80.3424L288.048 81.2463L287.947 84.3595L288.098 85.6149L288.951 87.5732L289.202 88.4269V93.0968L289.353 93.7998L289.754 94.1011L291.06 96.0594L293.218 98.319L292.967 99.7752L293.168 101.784L293.72 103.34L294.473 103.592L295.025 102.236V100.177L294.624 98.2186L294.172 96.8628L293.821 96.4611L292.867 95.7581L292.616 95.3062L292.415 94.0508L292.515 93.3478L292.917 92.1929V91.1886L292.766 89.632L292.917 88.4269L293.168 88.0252L293.921 87.272L294.172 86.9205L294.423 84.8617L294.272 83.1042L292.917 77.8317V75.9236L292.817 75.5219L292.214 75.6725L291.963 75.5721L291.06 73.5635L290.708 73.212L290.507 72.6095L290.005 72.7601L289.654 73.8146L289.503 74.0155L288.901 73.6138L287.495 71.806L286.993 71.0026L287.445 69.3958L287.244 67.9396L286.692 66.7847L285.387 65.931L284.483 63.6212L283.881 62.5667V61.7633H284.232V60.9598L282.977 57.7963L282.425 52.5741L282.676 47.3518L283.881 44.0879L284.483 43.8369L288.55 44.0879L289.202 44.4896L290.256 45.4437L290.909 45.6446L292.817 45.4437L293.57 45.6446L293.419 46.2471L293.218 46.448L294.925 47.4523L299.393 46.2973L301.3 47.151L301.702 48.0548L302.154 50.2643L302.555 51.0677L303.057 51.3187L304.915 51.0677L305.718 51.5698L307.174 53.6788L307.977 54.1307L308.63 54.6831L310.387 57.4951L310.939 58.7002L311.692 61.9641L312.194 63.4203L313.65 64.525L314.453 65.6799L315.607 67.9396L317.164 72.5593L317.816 74.0155L317.967 71.9065L317.615 70.2494L317.013 68.743L316.561 67.1361L317.415 67.1864L318.469 66.8851L319.473 66.3327L320.276 65.5795L316.109 65.8306L315.005 64.8765L322.234 64.7761L322.786 65.3284L323.087 66.5838L323.74 68.6426H323.991L324.242 67.8391L324.292 67.0357L324.141 66.2323L323.74 65.5795V64.8765L324.292 64.3744L324.844 63.571L325.095 62.416L324.945 60.9598L325.698 60.1062L325.999 59.5538L326.2 58.7002L326.25 58.0976L326.149 56.3401L326.2 54.8839L326.752 53.3775L327.906 51.8711L329.262 50.7664L330.416 50.3145L330.868 49.7119L331.169 48.4063V47.0506L331.019 46.448L330.517 46.1467L330.718 45.3433L331.671 43.7364L332.876 42.4309L335.687 41.3764L336.139 39.418L337.344 40.573L341.912 41.0249L343.117 41.8785L344.021 43.8871L345.778 48.7076L345.727 49.3102L345.778 50.3145H345.175V51.0677L345.677 51.5698L346.28 51.8209L346.832 51.6702L347.384 51.0677L347.083 50.9672L346.38 50.3145L348.037 49.0591L353.759 47.4523L354.663 47.9544L353.96 48.2055L353.257 48.7076L352.605 49.5613L353.207 49.963L354.01 51.5698L354.362 51.4192L355.265 49.1595L355.818 48.2557L356.37 48.0046L357.625 49.26L358.579 51.2685L359.583 52.9256L361.038 53.3273V52.6243L359.583 51.5196L358.88 50.7162L358.378 49.9128L358.026 48.4565V47.3518L357.826 46.448L357.022 45.6446L359.081 44.1381L362.143 43.0837L364.05 41.8785H365.105L361.089 44.2386L359.834 45.6446L363.799 44.0377L364.753 44.0879L365.858 45.0922L367.615 47.8038L368.819 48.0046V47.151L367.213 45.4939L366.41 44.2386L366.058 42.9832L366.209 41.2759L366.711 39.8197L367.364 38.715L368.167 37.9618L368.117 37.2588L368.267 36.7567L368.669 35.8528L368.97 34.7481L369.121 33.6936L369.02 31.9864L368.669 31.0323L368.267 30.2791L367.514 28.5718L367.062 27.919L366.761 27.8688L366.51 27.4169L366.41 25.4585L366.309 24.8058L365.054 23.8015L364.753 22.8976L365.105 20.8891H364.452L365.105 19.2822L364.753 18.9307L364.552 18.4788L364.101 17.0226H365.105V16.2192L364.301 15.1145L363.448 11.4991L362.143 9.99264L362.544 8.43601L363.498 7.03001L364.452 6.82916L364.703 7.53215L364.753 8.38579L364.904 9.08879L365.406 9.23943L365.707 7.63258L366.058 6.57809L366.611 6.07595L367.916 5.5236L368.669 5.57381V6.47766L368.418 7.73301L368.568 8.7875L368.97 9.59093L369.472 9.94243L369.271 8.33558L369.121 7.6828L369.823 7.43173L371.179 6.27681L371.58 6.07595L372.283 6.67852L372.785 7.53215L373.287 8.23515L374.09 8.38579L373.438 9.08879L373.187 9.23943L373.94 9.94243L374.793 9.79178L375.948 9.23943V8.38579L376.45 7.58237L376.902 6.47766L377.454 5.77467L377.855 7.38151L378.357 7.58237L378.859 6.92959L379.261 4.77039L379.612 4.21803L380.616 3.71589H381.871L384.482 4.87081L384.984 4.56953L387.092 3.66568L390.907 7.53215L393.066 8.38579L392.464 9.44029L391.761 9.89221L391.158 10.5952L390.907 12.3527H391.51V13.0557L390.606 13.9093L390.807 14.2106L391.51 15.466L390.958 16.4702L391.61 16.6711L393.217 16.2192L395.074 16.6711L395.827 16.2192L395.576 18.5792H399.893L400.747 18.8805L401.449 19.6839L401.901 20.6882L401.801 22.4457L402.704 25.559L400.797 29.1242L399.743 30.5804L398.337 31.7353L398.99 33.3421L399.542 32.6894L400.094 33.0409L400.696 33.7439L402.202 34.3966L402.353 35.2001L402.152 36.4052L401.801 37.9618L402.504 38.5644L405.817 38.715L407.423 37.9618L407.975 38.1125L408.628 39.418L409.13 39.2172L409.532 38.715L409.632 39.9202L409.933 40.9245L410.385 41.6274L411.69 42.23L413.046 43.7364L414.501 44.9416L415.355 46.448L416.258 47.4523L417.363 46.448L416.961 46.2973L416.71 45.6446L417.513 45.042L418.066 43.7866L418.467 42.0292L418.568 39.8197L418.417 37.5601L418.216 35.9533L418.517 34.8486L419.823 34.0954H425.395L428.608 32.9404L428.859 32.0868L428.909 31.0323L429.16 30.1787L432.373 28.0697L432.875 26.7139L433.176 24.9564L433.929 23.6006L435.736 21.7427L436.941 20.8389L440.806 20.1359L441.911 20.4371L443.617 21.9436L444.722 22.4457L453.356 20.9393L451.198 23.3496L443.166 27.0654L439.551 29.8774L435.385 30.9319L433.979 32.137L432.875 34.0954L433.979 34.4971L434.531 35.0996L434.782 36.0035L434.983 36.2043L435.987 38.2129L436.489 39.3176L436.288 40.6734L435.736 42.5313L435.334 43.3849L431.017 47.6531L430.214 48.0046L427.453 48.2055L426.248 49.26L425.395 51.7707L426.8 52.8754L427.503 53.1767L430.164 53.3775L430.766 54.2312L431.017 56.3401L430.515 56.6916L429.712 57.5955L429.16 57.947L430.114 58.7002L435.234 58.8508L438.146 60.2568L440.204 60.056L443.969 56.6414L446.278 56.3401L447.282 56.8925L448.186 57.947L448.838 59.6543L449.089 62.165L449.34 63.4705L449.993 63.9225L450.645 64.0731L450.947 64.4748L451.047 65.7804V65.7804ZM298.238 3.36439L297.385 4.01718L296.582 2.71161L296.481 0.803481L296.983 0.502197L298.088 2.05883L298.439 2.3099L298.238 3.36439V3.36439Z" fill="#E9ECE0" stroke="white" stroke-width="2" stroke-linecap="round" stroke-linejoin="round"/>
<path d="M110.139 274.821L114.155 279.19L118.974 278.939L124.848 278.587L131.574 279.34L120.581 291.793L119.777 293.149L118.874 295.057L117.619 295.509L115.761 295.61L115.159 295.559L112.8 296.313L100.501 293.501L99.5467 294.204L98.7435 295.459L97.8901 296.313L96.9363 295.61L97.5889 294.907H96.4845L94.7777 296.011L93.3219 296.514L92.4685 297.367L91.9665 297.719L91.4645 297.819L87.0971 297.317L86.0931 297.719L85.3401 298.874L84.9887 299.074L84.4365 298.773L83.7337 297.417L83.2317 297.066L83.5329 296.011L84.1353 294.656L84.1855 293.501L84.0349 292.396L83.6333 291.894L83.1313 291.442L82.6293 290.639L83.3321 289.584L84.2357 285.818L84.6373 284.964H86.6453L86.9465 284.613L86.7959 283.558H86.2939L85.2899 284.261L84.3863 284.06L83.4325 283.307L82.6795 282.002L82.3281 280.043L83.0309 278.035L83.2317 277.181L83.2819 276.026L83.1815 272.059L83.4325 271.155L83.9345 270.452L84.4867 270.051L85.1393 270.302L86.5449 271.859L88.1011 272.963L89.3561 274.821L90.4605 277.332L91.0629 280.043H90.4103L91.1633 281.148L92.2677 281.5L96.6853 281.7L97.7897 281.449L98.4925 280.746L97.9905 279.993L98.2415 279.14L98.8941 278.386L99.4463 277.884L100.099 277.583L102.258 277.181L103.914 275.926L104.416 275.725L104.968 275.926L106.173 276.98L106.776 277.181L107.93 276.779L110.139 274.821V274.821Z" fill="#E9ECE0" stroke="white" stroke-width="2" stroke-linecap="round" stroke-linejoin="round"/>
<path d="M179.214 351.498L178.561 351.347L178.361 350.946L178.812 349.941H179.465L179.515 351.096L179.214 351.498ZM194.324 339.949L193.872 340.602L193.571 340.25L193.32 339.346L193.069 338.543L192.718 337.388L192.868 336.233L193.772 335.781L194.826 335.681L194.676 336.384L194.876 336.735L195.127 337.89L194.776 338.995L194.324 339.949V339.949ZM309.031 309.971L308.73 311.126L308.278 311.277L308.228 310.724L307.877 310.423L307.375 310.473L305.367 311.176L305.517 310.322L306.873 308.916L307.676 308.414L307.977 308.314L308.63 308.465L308.981 309.117L309.031 309.971V309.971ZM348.338 230.03L327.254 275.273L325.597 281.6L325.346 283.659L325.145 301.635L325.246 302.79L321.531 304.046L317.314 305.1L317.816 304.347L318.067 303.443V302.338L317.816 301.284L317.465 302.79L316.913 303.744L316.26 304.046L315.607 303.343L315.758 304.397L315.959 304.749V305.502L310.035 309.72L310.487 307.46L311.642 306.205L313.097 305.653L314.403 305.502V304.749L311.391 303.192L310.336 301.937L310.085 303.343L310.336 304.749L309.132 305.552L308.027 305.351L306.873 304.799L305.668 304.749L306.571 305.502V306.155H305.467L304.915 306.356L304.463 306.908L303.71 306.506L302.907 307.109L302.204 308.264L301.953 309.368L301.702 311.176L301.1 312.431L300.296 312.783L299.443 311.829L298.841 312.683L298.64 313.586L298.841 314.34L299.594 314.641L300.196 314.39L301.1 313.436L301.752 313.235L305.367 313.637L306.571 313.235L304.614 317.051L303.459 318.106L302.254 317.403L302.555 316.8H300.698L300.748 317.754L299.493 317.604L299.393 318.106L299.794 318.407L299.945 319.11L299.794 320.265L303.158 320.064L303.81 319.512L302.656 322.976L301.049 326.14L298.941 328.45L294.323 330.559L291.311 332.818L288.499 333.521L286.993 331.412L287.596 330.659L288.851 330.207L289.353 329.655L289.955 328.55L290.507 328.048L291.963 327.948V327.245L290.658 327.194L288.248 327.998L286.993 327.948L283.931 325.989L282.977 325.788L283.279 326.542L282.927 326.692L282.626 327.245L283.078 327.847L284.032 329.605L284.785 330.609L285.036 332.065L285.136 333.471L285.287 334.124L287.194 334.275H288.248L289.052 334.425L279.313 335.881L273.69 338.593L264.152 341.204L261.843 341.154L253.108 338.442L249.444 339.447L248.641 338.995L249.042 338.442L247.436 338.041L246.633 337.589L245.98 336.986L245.026 338.292L238.952 336.986L238.35 336.685L235.99 334.877L232.275 334.124L226.954 330.509L219.675 328.55L218.219 327.245L218.872 327.144L219.173 326.742V326.24L218.571 325.788L218.019 325.738L217.266 326.391L216.713 326.542L212.346 325.788L212.497 326.291L217.015 327.245L205.067 326.391L204.264 325.136L203.661 325.788L203.461 325.336L203.009 325.136L203.31 326.542L199.846 326.642L198.139 326.19L191.262 320.365H191.965L192.668 320.164L193.37 319.512L192.818 319.411L191.764 318.909L191.212 318.809L191.513 316.8L190.66 318.005L189.907 318.507L189.103 318.307L188.099 317.403V316.8L189.656 317.403L189.053 315.846L188.2 314.942L187.296 314.239L186.493 313.235L185.79 311.477L185.389 310.272L184.836 309.619L183.732 309.72V310.373L185.288 312.632L186.242 314.34L186.844 315.997L183.832 313.235L182.427 311.427L181.573 309.017L182.176 308.264L181.875 307.762L181.222 306.155L182.527 304.699L183.933 303.845L186.995 303.343L188.451 304.046L190.961 306.707L192.467 306.908L191.714 305.954L190.609 303.996L189.957 303.343L186.493 301.284L187.899 298.723L188.099 297.719L187.899 296.263L187.397 295.911L186.995 296.263L187.146 297.066V297.719L186.593 298.723L184.636 301.284L183.381 302.79L182.527 303.694L181.423 304.046L181.071 304.447L181.021 305.452V306.607L180.921 307.611L180.569 308.615L180.369 308.816L178.31 307.661L176.302 305.904L174.796 305.201L171.584 302.64H174.545L175.098 302.941L176.202 303.996L176.855 304.046L176.955 303.443L177.557 303.293L179.063 303.343V302.64H177.808V301.937H178.461V301.284L175.248 302.138L174.094 301.937V301.284L175.65 299.275L176.102 296.162L175.449 293.501L173.742 292.848V293.501L175.047 294.053L174.897 295.459L174.043 297.116L172.337 299.426L171.232 300.28L170.027 300.581L168.772 299.828L169.425 301.937L167.618 299.978L163.501 297.217L157.728 295.007L155.72 293.601L154.616 293.049L153.562 292.245L152.608 290.639L152.859 289.835L152.809 288.781L152.357 286.37L155.871 286.621L157.829 286.17L159.134 284.964H155.72L153.562 283.759L152.809 283.558L150.449 284.211L149.947 284.613L149.546 285.266L148.14 286.822L147.638 287.174V287.827L149.947 288.831L151.102 289.835L151.704 291.392L150.751 290.89L148.692 290.538L146.584 290.789L145.329 291.342L144.576 292.396L145.178 294.204L144.978 294.254L144.526 294.907L131.223 296.714L129.616 295.61L128.11 294.003L126.705 292.948L125.199 292.748L118.874 295.057L119.777 293.149L120.58 291.794L131.574 279.34L133.331 279.441L133.683 279.14L133.984 277.483L134.235 276.88L135.339 275.625L136.393 273.968L138.301 270.302L142.217 262.418L142.618 261.263L142.97 259.807L142.367 257.196L142.217 256.493L142.267 255.79L142.417 255.137L143.07 253.48L143.572 252.526L154.415 241.379L157.628 237.211L164.355 230.884L169.626 224.557L170.73 223.754L178.059 221.092L192.316 211.853L204.515 206.078L205.82 204.773L206.523 203.768L206.924 202.664L207.025 201.81L206.975 200.555L206.874 198.948L206.924 197.592L207.627 195.081L219.274 200.304L220.378 200.555L221.683 200.454L233.581 196.839L244.926 196.889L257.827 191.114L278.008 186.595L282.224 190.612L286.742 193.374L299.744 200.956L322.635 214.514L348.338 230.03V230.03Z" fill="#E9ECE0" stroke="white" stroke-width="2" stroke-linecap="round" stroke-linejoin="round"/>
<path d="M154.415 241.379L143.572 252.526L143.07 253.48L142.418 255.137L142.267 255.79L142.217 256.493L142.367 257.196L142.97 259.807L142.618 261.263L142.217 262.418L138.301 270.302L136.394 273.967L135.339 275.625L134.235 276.88L133.984 277.482L133.683 279.14L133.331 279.441L131.574 279.34L124.848 278.587L118.974 278.939L123.191 274.47L131.424 270.904L133.683 260.008L133.231 252.576L127.759 250.668L121.434 250.869L123.342 249.463L124.747 247.906L125.701 246.149L126.504 243.99L126.956 243.337L127.709 242.885L128.713 242.634L130.721 242.935L130.671 242.534L130.269 242.182H129.918L131.725 240.625L132.729 240.123L133.833 239.922L140.058 241.63L141.112 241.379L141.865 240.123L144.727 239.169L148.944 238.968L150.751 237.813L151.303 237.713L153.361 238.065L153.763 238.316L154.415 238.818L154.666 239.571L154.566 239.973L154.415 241.379V241.379Z" fill="#E9ECE0" stroke="white" stroke-width="2" stroke-linecap="round" stroke-linejoin="round"/>
<path d="M100.5 223.754L100.802 223.904L100.5 224.607L99.8478 224.858L99.3458 225.611L99.145 225.31L99.0948 224.507L98.894 224.256L99.1952 223.754L99.647 223.251H100.35L100.5 223.754V223.754ZM96.6852 201.559L97.388 202.413L98.0908 202.162L98.2916 202.212L98.3418 202.915L98.0406 203.065L97.5386 202.915L96.9362 202.513L96.1832 201.609L95.3298 200.354L94.9282 199.801L94.7274 198.697L96.6852 201.559V201.559ZM95.9824 164.903L96.0326 165.405L93.3218 165.907L92.8198 165.756L92.2174 166.61L92.117 166.409L92.3178 165.706V165.003L92.8198 165.254L94.8278 164.551L95.9824 164.903V164.903ZM89.0548 160.635L89.2556 160.835L89.1552 161.94L88.1512 162.593L87.85 162.392L88.5026 162.041L87.7496 160.735L88.101 160.685L88.603 160.132L89.0548 160.635V160.635ZM83.2818 160.132L83.9344 160.484L83.3822 160.635L83.2818 160.132V160.132ZM91.4142 159.078L91.3138 159.53L90.8118 160.233L90.36 160.283L90.3098 160.685L90.0086 160.735L89.5066 160.082V159.429L90.0588 159.781L90.5106 159.53L91.4142 159.078V159.078ZM85.9926 157.722L84.8882 158.475V157.823L85.34 157.27L85.3902 157.019L85.9926 157.069V157.722ZM86.7958 156.366L85.842 156.617L85.6914 156.216L86.1432 155.362L87.7998 153.956L88.1512 154.107L88.101 154.408L87.4986 154.609L87.2978 154.96L86.6452 155.513L86.5448 155.814L86.7958 156.366V156.366ZM161.895 176.803L162.297 177.908L166.212 180.519L166.865 180.72L170.63 181.021L171.132 181.222L172.839 182.98L173.592 183.08L188.15 178.661L188.802 178.712L190.961 179.866L201.804 180.118L215.207 180.72L215.609 180.921L215.96 181.975V183.432L215.659 184.386L215.258 185.139L210.037 190.863L207.627 195.081L206.924 197.592L206.874 198.948L206.975 200.555L207.025 201.81L206.924 202.664L206.523 203.768L205.82 204.773L204.515 206.078L192.316 211.853L178.059 221.092L170.73 223.754L169.626 224.557L164.355 230.884L157.628 237.211L154.415 241.379L154.566 239.973L154.666 239.571L154.415 238.818L153.763 238.316L153.361 238.064L151.303 237.713L150.751 237.813L148.943 238.968L144.727 239.169L141.865 240.123L142.367 239.27L140.359 240.475L139.255 239.922V239.27L140.058 239.169L140.761 238.567V237.864L132.528 237.311L128.663 238.265L125.249 241.379L124.697 243.036L124.295 243.588L123.894 243.889L123.04 244.191L122.588 244.241L121.886 244.542L119.827 246.049L119.175 246.852L117.468 248.358L115.36 248.107L111.243 246.551V245.747L113.151 244.592L114.958 242.885L116.464 240.726L117.468 240.123L118.422 240.726L119.275 239.822L121.283 239.169L122.187 238.567L118.121 238.115L116.866 238.567L116.012 239.169L115.259 239.42L114.607 238.868L113.753 237.06L114.356 236.106L114.456 234.801V233.344L114.807 231.687L115.109 231.587L115.51 231.888L115.811 231.938L116.012 230.08L116.263 229.277L116.866 227.771L116.916 226.666L118.07 225.611L123.191 222.95L125.902 222.699L125.651 221.745L125.249 221.193L124.647 221.042L124.044 221.193V220.49L124.847 219.736L126.604 217.326L128.11 216.623L128.863 215.719L129.265 215.368L129.918 215.267L131.775 215.368L131.624 217.276L132.528 217.577L133.683 217.627L134.285 218.682L134.887 219.485L138.652 219.736L137.899 219.134L136.293 219.284L135.54 219.084L134.837 218.33L133.883 216.724L133.03 216.171L134.887 215.368V214.715H130.219V213.912L132.829 212.305L133.632 211.451L134.385 211.25L138 211.853V211.049L134.486 210.296H133.331L130.42 213.058L129.265 213.209V212.506L130.47 211.351L130.922 210.547L131.173 209.543L129.365 211.501L128.863 211.853L128.412 212.405L128.11 214.815L127.558 215.368L127.106 215.669L125.249 217.577L122.89 218.481L122.187 219.084L122.438 220.49L121.082 220.038L119.827 220.389L117.167 222.699L116.113 224.005L115.41 224.406L114.657 224.105L114.155 223.101L114.255 222.046L114.958 219.736L114.054 220.038L113.603 221.193L113.452 222.85V224.457L113.301 224.959L112.197 227.017L111.996 227.971L111.946 229.327L111.544 229.93H109.938L109.536 230.683L109.135 231.035L108.332 231.336L107.579 230.984L106.775 230.03L106.073 228.674L105.671 227.017L104.918 228.022L104.115 228.423L104.767 227.118L105.32 225.461L105.47 223.854L105.018 222.699L105.671 221.946L104.918 221.293L104.115 221.193L104.767 219.736V219.084L102.659 220.64L101.354 221.243L100.4 221.193L99.5466 219.887L99.2454 218.13L99.396 216.472L100.049 215.368V214.715L99.2454 214.564L98.6932 213.811L98.0406 212.506L97.4382 212.204L96.7856 211.401L96.1832 210.447L95.7314 209.543L96.8358 210.045L98.0406 211.25L99.2454 211.953L100.4 211.049H99.4462L99.6972 209.844L100.149 209.041L100.651 208.539L101.304 208.137L100.651 207.434V206.681L105.922 204.019L107.227 202.312V201.609L104.416 204.07L102.91 204.873L101.454 205.174L100.199 205.978L98.8438 207.484L97.5386 208.388L96.635 207.434L97.2374 206.982L98.4924 205.174L99.396 204.22L99.9482 203.417L100.4 202.312L100.049 201.609L100.45 201.408L101.304 200.153L100.249 198.948L98.894 198.546L95.9824 198.697L96.635 197.241H95.7314L96.0326 196.136L96.886 194.077L97.2374 192.822L96.7856 192.922L96.384 193.374L96.0326 194.077L95.7314 194.981L95.4302 193.977L95.0286 193.575L94.627 193.726L94.1752 194.278V194.981L91.6652 194.278L90.9624 194.629L89.607 196.136L88.854 196.437V197.241L89.2054 197.341L90.109 197.944L85.9424 198.797L84.838 197.944L85.8922 198.144L86.4444 198.044L86.846 197.592L86.6954 196.989L86.2436 196.136L85.6914 195.332L85.2898 194.981H80.4706L81.1734 195.784L83.583 197.241V197.944H82.328L80.2196 196.035L79.2156 195.784L73.543 195.232H68.1214L61.8464 194.78L59.236 191.968L56.726 191.817L52.3084 192.822V193.123L51.5052 194.529L50.702 195.433L50.2 195.784L49.6478 195.935L44.3768 194.278L44.8788 193.826L45.3808 193.525L45.18 193.123L43.4732 194.077L42.1178 195.835L41.917 197.944L41.0636 200.454L39.8086 201.509L36.4452 201.609L35.4914 201.86L33.4834 203.015L32.5798 203.116L29.2666 201.207L28.5638 200.203L27.9112 199.902L27.4594 199.4L27.2586 197.592L27.0076 196.638L25.0498 193.525L24.2466 191.868L23.5438 190.06L22.2888 185.49L22.59 184.687L23.4936 185.641L24.347 185.239L26.0538 183.231L26.9072 182.678L31.8268 181.272L32.7806 181.373L36.4452 183.783L41.4652 184.687L41.8668 184.436L42.7202 183.08L43.1218 182.578L45.0294 182.678L45.4812 182.227L47.1378 179.565L48.9952 178.912L53.1116 179.666V178.862L52.8606 178.561L52.459 177.356L54.3666 177.255L54.969 177.808L54.6678 179.666L55.2702 180.118L55.6216 179.515L56.0232 178.812L56.5252 178.862L56.6758 179.866V181.373L56.9268 182.176L57.73 181.072L58.483 181.724L59.2862 181.323L59.9388 180.318L60.24 179.264L60.0392 178.159L59.738 176.753L59.487 175.197L59.6376 173.69L60.8424 171.983L62.75 171.631L66.4648 172.234L66.1134 173.489L65.5612 174.293L64.256 175.247L64.6074 176.703L64.0552 176.854L63.7038 177.255L63.001 178.862L65.511 182.578L65.26 180.971L65.2098 179.615L65.4106 178.46L65.8624 177.356L66.1636 177.155L67.017 176.954L67.3684 176.703L67.6696 176.1L67.9708 174.745L68.1716 174.092L69.4266 172.435L70.7318 172.284L71.9366 173.339L72.9908 175.247L73.6936 174.142L74.6474 173.439L77.4586 172.736L80.1694 170.828L79.4164 170.376L76.1032 170.828V170.025L78.0108 169.623L81.4244 166.058L83.2316 165.606L82.6292 166.359L83.4324 166.61L84.1854 167.112L84.1352 168.066L84.1854 168.518L83.583 169.422L82.1774 170.225L81.7256 170.828L82.2778 171.029L83.081 170.979L83.834 170.627L84.4866 170.025L84.7878 172.134L85.1894 172.987L86.6954 173.69L88.7034 175.598L89.4564 175.9V175.247L88.9042 174.895L88.4022 174.243L87.2978 172.234L88.5026 170.577L89.2054 170.075L90.109 170.025L90.2094 168.619L91.0126 168.217L94.8278 168.367L98.5426 167.464L104.667 168.719L108.733 170.828L109.235 170.577L109.888 169.573L110.34 169.322H113.753L114.657 169.723L115.611 170.476L116.564 170.828L117.468 170.025L118.623 170.828L123.693 170.025L124.898 169.02L124.948 167.664L124.145 166.61L122.739 166.359L123.191 164.953L123.743 164.451L124.396 164.2L125.249 163.396L125.801 162.191L127.709 156.668L127.859 152.902L126.404 151.345L124.446 151.546L123.04 153.002V153.755H123.392V154.559L116.514 160.484L114.255 161.438L101.304 158.877L98.0406 156.216L97.5888 155.965L96.6852 156.517L92.5688 157.17L91.364 156.668L90.4604 155.613L91.1632 155.111L92.5186 154.709L93.5226 153.755L93.874 154.308L94.2254 154.559H95.0788V153.755L94.0748 153.002L92.9202 152.902L90.7114 153.755L91.1632 152.148L92.0166 150.592L93.5226 148.583L95.631 147.579L96.4342 146.625L96.3338 144.867L96.9864 144.566L98.643 144.867L99.0446 144.466L100.4 141.855L101.605 140.9L106.675 139.444L110.942 136.13L112.599 134.021L115.46 132.515L116.514 131.36L116.213 131.159L116.263 130.707L116.916 130.757L118.02 132.013L118.723 132.113L118.321 130.406L118.121 129.853L120.932 128.196L126.805 126.338L129.616 124.631L130.42 123.928L131.524 121.116L132.076 120.212L133.281 119.359L133.783 120.815L133.833 124.079L133.683 125.334L133.432 127.041L133.582 128.146L133.482 128.598L133.13 129.05L132.026 130.054L131.524 130.958L131.373 131.711L131.474 132.364L131.775 132.967L133.13 134.624L137.046 133.519H138.703L139.205 133.82L139.556 134.473L140.359 136.883L143.02 142.357L144.275 143.964L144.626 144.767L144.927 145.169L145.982 145.821L148.341 148.734L148.642 149.487L149.044 150.993L149.897 153.856L149.998 154.709L149.947 155.462L149.646 156.266L148.492 158.676L148.19 159.68L148.04 160.936L148.19 162.744L148.893 165.204L149.194 166.208L149.496 166.761L150.299 167.514L150.751 168.016L151.554 169.422L152.357 170.276L152.558 171.129L152.508 172.234L156.022 175.347L157.377 176.151L158.883 176.703L161.895 176.803V176.803Z" fill="#E9ECE0" stroke="white" stroke-width="2" stroke-linecap="round" stroke-linejoin="round"/>
<circle cx="117.5" cy="274.5" r="3.5" fill="#5B6460"/>
<path d="M69.512 244.584C69.752 244.2 70.12 244.008 70.616 244.008C70.808 244.008 70.984 244.056 71.144 244.152C71.256 245.896 71.312 247.616 71.312 249.312C71.312 251.008 71.272 253.16 71.192 255.768C71.128 258.376 71.088 260.064 71.072 260.832C70.688 261.088 70.376 261.216 70.136 261.216C69.896 261.216 69.712 261.192 69.584 261.144C69.488 260.296 69.44 259.432 69.44 258.552L69.584 253.08C68.208 252.952 66.672 252.888 64.976 252.888C63.28 252.888 61.512 253.056 59.672 253.392C59.544 256.56 59.48 258.896 59.48 260.4C59.08 260.72 58.752 260.88 58.496 260.88C58.256 260.88 58.064 260.84 57.92 260.76C57.872 259.976 57.848 258.872 57.848 257.448C57.848 256.024 57.944 253.672 58.136 250.392C58.344 247.096 58.456 245.192 58.472 244.68C58.68 244.344 59.04 244.176 59.552 244.176C59.712 244.176 59.864 244.208 60.008 244.272C60.056 244.72 60.08 245.288 60.08 245.976C60.08 246.664 60.032 247.72 59.936 249.144C59.84 250.552 59.792 251.528 59.792 252.072C61.728 251.752 63.52 251.592 65.168 251.592C66.816 251.592 68.272 251.648 69.536 251.76C69.584 251.168 69.608 250.296 69.608 249.144C69.608 247.992 69.576 246.472 69.512 244.584ZM82.0391 254.088L81.9191 256.848C81.9191 258.24 82.0791 259.176 82.3991 259.656C82.5911 259.976 82.8551 260.136 83.1911 260.136C83.2871 260.136 83.4231 260.112 83.5991 260.064C83.9351 259.968 84.2151 260.016 84.4391 260.208C84.3271 260.768 83.7671 261.048 82.7591 261.048C82.0711 261.048 81.6151 260.76 81.3911 260.184C81.2151 259.752 81.0871 259.216 81.0071 258.576C80.9271 257.92 80.8631 257.472 80.8151 257.232C79.7751 259.216 78.7671 260.424 77.7911 260.856C77.2951 261.08 76.7191 261.192 76.0631 261.192C75.4071 261.192 74.8951 260.88 74.5271 260.256C74.1751 259.616 73.9991 258.688 73.9991 257.472C73.9991 256.256 74.1991 254.984 74.5991 253.656C74.9991 252.312 75.5831 251.184 76.3511 250.272C77.1191 249.344 77.9591 248.88 78.8711 248.88C80.1831 248.88 81.0551 249.424 81.4871 250.512C81.8551 251.44 82.0391 252.632 82.0391 254.088ZM76.1591 253.32C75.9351 254.184 75.7671 255.008 75.6551 255.792C75.5431 256.56 75.4871 257.248 75.4871 257.856C75.4871 258.448 75.6071 258.96 75.8471 259.392C76.1031 259.824 76.4311 260.04 76.8311 260.04C77.6951 260.04 78.5271 259.224 79.3271 257.592C80.1271 255.96 80.5271 254.44 80.5271 253.032C80.5271 252.12 80.2871 251.368 79.8071 250.776C79.4871 250.392 79.0631 250.2 78.5351 250.2C78.0231 250.2 77.5511 250.504 77.1191 251.112C76.7031 251.704 76.3831 252.44 76.1591 253.32ZM87.0363 261.168C86.7483 261.168 86.6043 258.744 86.6043 253.896C86.6043 251.848 86.5963 250.608 86.5803 250.176H86.1003C85.8763 250.176 85.7003 250.176 85.5723 250.176C85.4443 250.16 85.2763 250.152 85.0683 250.152C84.8763 250.136 84.7163 250.112 84.5883 250.08C84.4763 250.048 84.3563 250.008 84.2283 249.96C83.9883 249.864 83.8683 249.696 83.8683 249.456C83.8683 249.152 84.3643 249 85.3563 249C85.7883 249 86.1803 249.016 86.5323 249.048C86.5483 248.728 86.5563 248.32 86.5563 247.824C86.5723 247.312 86.5883 246.92 86.6043 246.648C86.6203 246.36 86.6363 246.016 86.6523 245.616C86.6843 245.216 86.7243 244.904 86.7723 244.68C86.8363 244.456 86.9163 244.208 87.0123 243.936C87.1083 243.648 87.2363 243.432 87.3963 243.288C87.5563 243.144 87.7403 243 87.9483 242.856C88.3163 242.584 88.9243 242.448 89.7723 242.448C90.6363 242.448 91.2683 242.664 91.6683 243.096C92.0843 243.512 92.4523 244.224 92.7723 245.232C92.5323 245.52 92.2523 245.664 91.9323 245.664C91.8203 245.664 91.7083 245.648 91.5963 245.616C91.3083 244.848 91.0443 244.328 90.8043 244.056C90.5803 243.784 90.2683 243.648 89.8683 243.648C89.4683 243.648 89.1643 243.72 88.9563 243.864C88.7643 244.008 88.6123 244.192 88.5003 244.416C88.2603 244.896 88.1403 246.056 88.1403 247.896C88.1403 247.976 88.1403 248.12 88.1403 248.328C88.1403 248.536 88.1403 248.728 88.1403 248.904L90.1803 248.712C90.9803 248.712 91.3803 248.896 91.3803 249.264C91.3803 249.504 91.1883 249.664 90.8043 249.744C90.4203 249.824 89.9323 249.872 89.3403 249.888C88.7643 249.904 88.3643 249.952 88.1403 250.032C88.1083 250.48 88.0923 251.072 88.0923 251.808C88.0923 252.528 88.1323 253.68 88.2123 255.264C88.2923 256.832 88.3323 258.032 88.3323 258.864C88.3323 259.696 88.2443 260.288 88.0683 260.64C87.9083 260.992 87.5643 261.168 87.0363 261.168ZM102.647 260.328C102.359 260.632 102.031 260.784 101.663 260.784C100.975 260.784 100.463 260.416 100.127 259.68C99.7912 258.944 99.5912 258.048 99.5272 256.992C99.4792 255.936 99.4472 254.88 99.4312 253.824C99.4152 252.768 99.3272 251.872 99.1672 251.136C99.0232 250.4 98.7432 250.032 98.3272 250.032C97.7672 250.032 97.2872 250.536 96.8872 251.544C96.5032 252.552 96.2312 253.672 96.0712 254.904C95.6232 258.344 95.1912 260.272 94.7752 260.688C94.4872 260.832 94.2392 260.904 94.0312 260.904C93.8232 260.904 93.6472 260.88 93.5032 260.832C93.1672 259.36 92.9512 256.824 92.8552 253.224C92.8232 251.432 92.7912 250.272 92.7592 249.744C93.0952 249.52 93.3832 249.408 93.6232 249.408C93.8632 249.408 94.0552 249.432 94.1992 249.48C94.2792 250.168 94.3192 251.576 94.3192 253.704C94.3352 255.832 94.3512 257.056 94.3672 257.376C94.4472 257.04 94.5432 256.496 94.6552 255.744C94.7832 254.992 94.8952 254.376 94.9912 253.896C95.0872 253.4 95.2392 252.824 95.4472 252.168C95.6552 251.512 95.8872 250.992 96.1432 250.608C96.3992 250.208 96.7512 249.872 97.1992 249.6C97.6472 249.312 98.1512 249.168 98.7112 249.168C99.4632 249.168 100.007 249.512 100.343 250.2C100.695 250.872 100.887 251.712 100.919 252.72C100.951 253.728 100.967 254.752 100.967 255.792C100.983 256.832 101.111 257.784 101.351 258.648C101.607 259.512 102.039 260.072 102.647 260.328ZM111.781 254.088L111.661 256.848C111.661 258.24 111.821 259.176 112.141 259.656C112.333 259.976 112.597 260.136 112.933 260.136C113.029 260.136 113.165 260.112 113.341 260.064C113.677 259.968 113.957 260.016 114.181 260.208C114.069 260.768 113.509 261.048 112.501 261.048C111.813 261.048 111.357 260.76 111.133 260.184C110.957 259.752 110.829 259.216 110.749 258.576C110.669 257.92 110.605 257.472 110.557 257.232C109.517 259.216 108.509 260.424 107.533 260.856C107.037 261.08 106.461 261.192 105.805 261.192C105.149 261.192 104.637 260.88 104.269 260.256C103.917 259.616 103.741 258.688 103.741 257.472C103.741 256.256 103.941 254.984 104.341 253.656C104.741 252.312 105.325 251.184 106.093 250.272C106.861 249.344 107.701 248.88 108.613 248.88C109.925 248.88 110.797 249.424 111.229 250.512C111.597 251.44 111.781 252.632 111.781 254.088ZM105.901 253.32C105.677 254.184 105.509 255.008 105.397 255.792C105.285 256.56 105.229 257.248 105.229 257.856C105.229 258.448 105.349 258.96 105.589 259.392C105.845 259.824 106.173 260.04 106.573 260.04C107.437 260.04 108.269 259.224 109.069 257.592C109.869 255.96 110.269 254.44 110.269 253.032C110.269 252.12 110.029 251.368 109.549 250.776C109.229 250.392 108.805 250.2 108.277 250.2C107.765 250.2 107.293 250.504 106.861 251.112C106.445 251.704 106.125 252.44 105.901 253.32ZM117.331 258.648L117.403 260.016C117.403 260.368 117.299 260.616 117.09 260.76C116.899 260.888 116.699 260.952 116.491 260.952C116.299 260.952 116.099 260.92 115.891 260.856C115.539 259 115.267 256.688 115.075 253.92C114.899 251.152 114.795 249.584 114.763 249.216C115.003 248.992 115.251 248.88 115.507 248.88C115.779 248.88 116.019 248.912 116.227 248.976C116.291 249.44 116.339 250.464 116.371 252.048C116.403 253.632 116.443 254.624 116.491 255.024C116.715 253.68 117.115 252.424 117.691 251.256C118.011 250.6 118.427 250.08 118.939 249.696C119.467 249.296 120.026 249.096 120.618 249.096C121.227 249.096 121.779 249.368 122.275 249.912C122.787 250.44 123.043 250.92 123.043 251.352C123.043 251.512 122.947 251.64 122.755 251.736C122.563 251.816 122.347 251.856 122.107 251.856C121.883 251.856 121.707 251.768 121.579 251.592C121.451 251.416 121.363 251.224 121.315 251.016C121.267 250.792 121.163 250.592 121.003 250.416C120.843 250.24 120.627 250.152 120.355 250.152C119.635 250.152 119.019 250.8 118.507 252.096C117.723 254.032 117.331 256.216 117.331 258.648ZM126.341 261.168C126.053 261.168 125.909 258.744 125.909 253.896C125.909 251.848 125.901 250.608 125.885 250.176H125.405C125.181 250.176 125.005 250.176 124.877 250.176C124.749 250.16 124.581 250.152 124.373 250.152C124.181 250.136 124.021 250.112 123.893 250.08C123.781 250.048 123.661 250.008 123.533 249.96C123.293 249.864 123.173 249.696 123.173 249.456C123.173 249.152 123.669 249 124.661 249C125.093 249 125.485 249.016 125.837 249.048C125.853 248.728 125.861 248.32 125.861 247.824C125.877 247.312 125.893 246.92 125.909 246.648C125.925 246.36 125.941 246.016 125.957 245.616C125.989 245.216 126.029 244.904 126.077 244.68C126.141 244.456 126.221 244.208 126.317 243.936C126.413 243.648 126.541 243.432 126.701 243.288C126.861 243.144 127.045 243 127.253 242.856C127.621 242.584 128.229 242.448 129.077 242.448C129.941 242.448 130.573 242.664 130.973 243.096C131.389 243.512 131.757 244.224 132.077 245.232C131.837 245.52 131.557 245.664 131.237 245.664C131.125 245.664 131.013 245.648 130.901 245.616C130.613 244.848 130.349 244.328 130.109 244.056C129.885 243.784 129.573 243.648 129.173 243.648C128.773 243.648 128.469 243.72 128.261 243.864C128.069 244.008 127.917 244.192 127.805 244.416C127.565 244.896 127.445 246.056 127.445 247.896C127.445 247.976 127.445 248.12 127.445 248.328C127.445 248.536 127.445 248.728 127.445 248.904L129.485 248.712C130.285 248.712 130.685 248.896 130.685 249.264C130.685 249.504 130.493 249.664 130.109 249.744C129.725 249.824 129.237 249.872 128.645 249.888C128.069 249.904 127.669 249.952 127.445 250.032C127.413 250.48 127.397 251.072 127.397 251.808C127.397 252.528 127.437 253.68 127.517 255.264C127.597 256.832 127.637 258.032 127.637 258.864C127.637 259.696 127.549 260.288 127.373 260.64C127.213 260.992 126.869 261.168 126.341 261.168ZM133.624 245.616C133.592 246.064 133.264 246.288 132.64 246.288C132.128 246.256 131.872 245.56 131.872 244.2C131.872 244.04 131.872 243.88 131.872 243.72C131.888 243.304 132.16 243.096 132.688 243.096C132.992 243.096 133.216 243.128 133.36 243.192C133.536 243.864 133.624 244.672 133.624 245.616ZM130.192 265.728C131.664 265.728 132.4 263.2 132.4 258.144C132.4 256.928 132.352 255.408 132.256 253.584C132.176 251.76 132.136 250.704 132.136 250.416C132.136 249.744 132.456 249.408 133.096 249.408C133.464 249.408 133.648 249.616 133.648 250.032L133.624 250.704C133.624 251.136 133.664 251.832 133.744 252.792C133.952 255.736 134.056 257.784 134.056 258.936C134.056 260.088 134 261.08 133.888 261.912C133.792 262.76 133.616 263.584 133.36 264.384C133.104 265.2 132.704 265.832 132.16 266.28C131.616 266.744 130.96 266.976 130.192 266.976C129.744 266.976 129.344 266.912 128.992 266.784C128.64 266.672 128.464 266.52 128.464 266.328C128.464 266.104 128.536 265.936 128.68 265.824C128.824 265.728 128.976 265.672 129.136 265.656C129.28 265.656 129.48 265.664 129.736 265.68C129.992 265.712 130.144 265.728 130.192 265.728ZM137.732 251.04C138.548 249.792 139.724 249.168 141.26 249.168C142.796 249.168 144.02 249.792 144.932 251.04C145.86 252.288 146.324 253.712 146.324 255.312C146.324 256.896 145.82 258.24 144.812 259.344C143.804 260.448 142.524 261 140.972 261C139.42 261 138.292 260.568 137.588 259.704C136.884 258.824 136.532 257.592 136.532 256.008C136.532 253.944 136.932 252.288 137.732 251.04ZM138.788 252.312C138.58 252.936 138.42 253.56 138.308 254.184C138.212 254.808 138.164 255.392 138.164 255.936C138.164 256.464 138.204 256.952 138.284 257.4C138.364 257.832 138.5 258.264 138.692 258.696C138.884 259.112 139.172 259.448 139.556 259.704C139.94 259.944 140.396 260.064 140.924 260.064C141.996 260.064 142.892 259.624 143.612 258.744C144.348 257.864 144.716 256.8 144.716 255.552C144.716 254.304 144.38 253.096 143.708 251.928C143.052 250.744 142.244 250.152 141.284 250.152C140.708 250.152 140.204 250.352 139.772 250.752C139.34 251.152 139.012 251.672 138.788 252.312ZM138.956 245.616C139.164 245.616 139.412 245.688 139.7 245.832C139.988 245.96 140.132 246.128 140.132 246.336C140.132 246.8 139.924 247.136 139.508 247.344C139.108 247.552 138.612 247.656 138.02 247.656C137.428 247.656 137.132 247.472 137.132 247.104C137.132 246.112 137.74 245.616 138.956 245.616ZM142.34 247.128C142.34 246.68 142.532 246.312 142.916 246.024C143.316 245.736 143.692 245.592 144.044 245.592C144.412 245.592 144.74 245.68 145.028 245.856C145.332 246.016 145.484 246.208 145.484 246.432C145.484 246.832 145.228 247.136 144.716 247.344C144.22 247.552 143.788 247.656 143.42 247.656C142.7 247.656 142.34 247.48 142.34 247.128ZM151.034 258.648L151.106 260.016C151.106 260.368 151.002 260.616 150.794 260.76C150.602 260.888 150.402 260.952 150.194 260.952C150.002 260.952 149.802 260.92 149.594 260.856C149.242 259 148.97 256.688 148.778 253.92C148.602 251.152 148.498 249.584 148.466 249.216C148.706 248.992 148.954 248.88 149.21 248.88C149.482 248.88 149.722 248.912 149.93 248.976C149.994 249.44 150.042 250.464 150.074 252.048C150.106 253.632 150.146 254.624 150.194 255.024C150.418 253.68 150.818 252.424 151.394 251.256C151.714 250.6 152.13 250.08 152.642 249.696C153.17 249.296 153.73 249.096 154.322 249.096C154.93 249.096 155.482 249.368 155.978 249.912C156.49 250.44 156.746 250.92 156.746 251.352C156.746 251.512 156.65 251.64 156.458 251.736C156.266 251.816 156.05 251.856 155.81 251.856C155.586 251.856 155.41 251.768 155.282 251.592C155.154 251.416 155.066 251.224 155.018 251.016C154.97 250.792 154.866 250.592 154.706 250.416C154.546 250.24 154.33 250.152 154.058 250.152C153.338 250.152 152.722 250.8 152.21 252.096C151.426 254.032 151.034 256.216 151.034 258.648ZM162.012 242.64C162.524 242.88 163.036 243.144 163.548 243.432C164.076 243.72 164.572 244.032 165.036 244.368L167.796 242.76L168.708 244.056L166.332 245.424C167.42 246.448 168.308 247.712 168.996 249.216C169.7 250.72 170.052 252.448 170.052 254.4C170.052 256.672 169.516 258.384 168.444 259.536C167.372 260.672 165.908 261.24 164.052 261.24C162.9 261.24 161.876 261.008 160.98 260.544C160.1 260.064 159.404 259.392 158.892 258.528C158.396 257.648 158.148 256.608 158.148 255.408C158.148 253.616 158.652 252.208 159.66 251.184C160.684 250.16 162.06 249.648 163.788 249.648C164.636 249.648 165.372 249.76 165.996 249.984C166.636 250.208 167.148 250.56 167.532 251.04L167.628 250.992C167.372 250.08 166.98 249.24 166.452 248.472C165.924 247.704 165.324 247.016 164.652 246.408L161.532 248.208L160.62 246.888L163.308 245.352C162.972 245.128 162.62 244.912 162.252 244.704C161.884 244.48 161.516 244.272 161.148 244.08L162.012 242.64ZM164.1 251.352C162.756 251.352 161.78 251.712 161.172 252.432C160.58 253.136 160.284 254.152 160.284 255.48C160.284 256.648 160.588 257.616 161.196 258.384C161.804 259.136 162.772 259.512 164.1 259.512C165.428 259.512 166.396 259.128 167.004 258.36C167.612 257.576 167.916 256.448 167.916 254.976C167.916 253.984 167.604 253.136 166.98 252.432C166.356 251.712 165.396 251.352 164.1 251.352ZM174.743 249.744C174.327 250.528 174.119 251.696 174.119 253.248C174.119 255.584 174.559 257.448 175.439 258.84C175.951 259.656 176.559 260.064 177.263 260.064C177.983 260.064 178.559 259.688 178.991 258.936C179.503 258.008 179.759 256.728 179.759 255.096C179.759 253.048 179.471 251.536 178.895 250.56C178.639 250.096 178.487 249.76 178.439 249.552C178.407 249.344 178.463 249.192 178.607 249.096C178.751 249 178.991 248.952 179.327 248.952C180.303 248.952 180.943 249.96 181.247 251.976C181.343 252.536 181.391 253.096 181.391 253.656C181.391 255.112 181.103 256.568 180.527 258.024C179.711 260.024 178.423 261.024 176.663 261.024C175.735 261.024 174.943 260.68 174.287 259.992C173.055 258.68 172.439 256.704 172.439 254.064C172.439 252.912 172.519 252.032 172.679 251.424C172.839 250.816 172.975 250.424 173.087 250.248C173.199 250.056 173.335 249.88 173.495 249.72C173.655 249.56 173.831 249.496 174.023 249.528C174.231 249.56 174.471 249.632 174.743 249.744ZM186.12 258.648L186.192 260.016C186.192 260.368 186.088 260.616 185.88 260.76C185.688 260.888 185.488 260.952 185.28 260.952C185.088 260.952 184.888 260.92 184.68 260.856C184.328 259 184.056 256.688 183.864 253.92C183.688 251.152 183.584 249.584 183.552 249.216C183.792 248.992 184.04 248.88 184.296 248.88C184.568 248.88 184.808 248.912 185.016 248.976C185.08 249.44 185.128 250.464 185.16 252.048C185.192 253.632 185.232 254.624 185.28 255.024C185.504 253.68 185.904 252.424 186.48 251.256C186.8 250.6 187.216 250.08 187.728 249.696C188.256 249.296 188.816 249.096 189.408 249.096C190.016 249.096 190.568 249.368 191.064 249.912C191.576 250.44 191.832 250.92 191.832 251.352C191.832 251.512 191.736 251.64 191.544 251.736C191.352 251.816 191.136 251.856 190.896 251.856C190.672 251.856 190.496 251.768 190.368 251.592C190.24 251.416 190.152 251.224 190.104 251.016C190.056 250.792 189.952 250.592 189.792 250.416C189.632 250.24 189.416 250.152 189.144 250.152C188.424 250.152 187.808 250.8 187.296 252.096C186.512 254.032 186.12 256.216 186.12 258.648Z" fill="#5B6460"/>
</g>
<defs>
<clipPath id="clip0">
<rect width="502" height="352" fill="white"/>
</clipPath>
</defs>
</svg>
