<svg width="49" height="30" viewBox="0 0 49 30" fill="none" xmlns="http://www.w3.org/2000/svg">
<path d="M33.933 0.716065C30.192 0.717065 26.782 2.13507 24.212 4.46407C21.64 2.13807 18.232 0.719065 14.495 0.719065C14.464 0.719065 14.432 0.719065 14.402 0.719065C6.444 0.771065 0 7.24507 0 15.2141C0 23.2151 6.494 29.7081 14.494 29.7081C18.231 29.7081 21.639 28.2911 24.21 25.9631C23.673 25.4781 23.187 24.9411 22.728 24.3791H25.721C25.27 24.9321 24.778 25.4501 24.249 25.9321H24.247C24.235 25.9451 24.222 25.9531 24.21 25.9641C26.783 28.2941 30.195 29.7141 33.938 29.7131C41.943 29.7101 48.43 23.2181 48.428 15.2141C48.428 15.2111 48.428 15.2091 48.428 15.2071C48.429 7.20307 41.938 0.714065 33.933 0.716065ZM22.894 5.96107H25.649C26.055 6.45307 26.432 6.97107 26.774 7.51307H21.859C22.176 6.99507 22.524 6.46207 22.894 5.96107ZM21.003 9.03506H27.61C27.845 9.53706 28.053 10.0561 28.235 10.5881H20.22C20.3 10.4381 20.58 9.83406 21.003 9.03506ZM5.917 18.9061L6.796 13.3641L4.813 18.9061H3.75L3.612 13.3641L2.673 18.9061H1.184L2.418 11.5561H4.67L4.749 16.0661L6.27 11.5561H8.713L7.496 18.9061H5.917ZM11.182 18.8941L11.233 18.3071C11.209 18.3101 10.739 19.0161 9.65 19.0161C9.08 19.0161 8.16 18.7051 8.16 17.3531C8.16 15.6341 9.562 15.0641 10.897 15.0641C11.107 15.0641 11.56 15.1021 11.56 15.1021C11.56 15.1021 11.611 14.9971 11.611 14.7131C11.611 14.2461 11.191 14.1821 10.616 14.1821C9.603 14.1821 8.934 14.4531 8.934 14.4531L9.158 13.1231C9.158 13.1231 9.97 12.7831 11.027 12.7831C11.574 12.7831 13.147 12.8411 13.147 14.6441L12.541 18.8941H11.182ZM16.925 17.0221C16.925 19.0731 14.938 18.9851 14.591 18.9851C13.296 18.9851 12.896 18.8061 12.859 18.7961L13.065 17.4461C13.067 17.4341 13.715 17.6811 14.436 17.6811C14.852 17.6811 15.392 17.6401 15.392 17.1431C15.392 16.3991 13.46 16.5771 13.46 14.8101C13.46 13.2511 14.618 12.7951 15.76 12.7951C16.642 12.7951 17.184 12.9161 17.184 12.9161L16.989 14.2781C16.989 14.2781 16.152 14.2091 15.935 14.2091C15.386 14.2091 15.087 14.3291 15.087 14.7131C15.086 15.4851 16.925 15.1071 16.925 17.0221ZM19.311 17.5601C19.448 17.5601 19.603 17.5131 19.709 17.5131L19.516 18.8241C19.361 18.8671 18.922 19.0231 18.359 19.0271C17.64 19.0331 17.129 18.6311 17.129 17.7191C17.129 17.1071 18.006 12.0641 18.04 12.0311H19.583L19.426 12.9331H20.196L19.999 14.3861H19.182L18.748 17.0631C18.715 17.2761 18.774 17.5601 19.311 17.5601ZM22.705 12.7631C24.399 12.7631 24.906 14.0031 24.906 15.0201C24.906 15.4271 24.702 16.4271 24.702 16.4271H21.566C21.566 16.4271 21.276 17.6621 22.933 17.6621C23.71 17.6621 24.572 17.2821 24.572 17.2821L24.3 18.7691C24.3 18.7691 23.802 19.0231 22.67 19.0231C21.443 19.0231 20.004 18.5041 20.004 16.3241C20.005 14.4351 21.153 12.7631 22.705 12.7631ZM26.792 22.8861H21.65C21.337 22.3861 21.045 21.8731 20.794 21.3341H27.637C27.385 21.8701 27.103 22.3881 26.792 22.8861ZM26.447 18.9171H24.863L25.826 12.9351H27.263L27.125 13.8021C27.125 13.8021 27.637 12.8591 28.328 12.8591C28.529 12.8591 28.626 12.8791 28.626 12.8791C28.421 13.2971 28.24 13.6801 28.052 14.6691C26.98 14.2891 26.898 16.3621 26.447 18.9171ZM32.482 18.8241C32.482 18.8241 31.652 19.0361 31.132 19.0361C29.29 19.0361 28.355 17.7651 28.355 15.8401C28.355 12.9371 30.088 11.3911 31.869 11.3911C32.674 11.3911 33.607 11.7691 33.607 11.7691L33.355 13.4041C33.355 13.4041 32.724 12.9631 31.939 12.9631C30.889 12.9631 29.947 13.9651 29.947 15.7861C29.947 16.6831 30.386 17.5191 31.482 17.5191C32.003 17.5191 32.758 17.1401 32.758 17.1401L32.482 18.8241ZM36.197 18.8971L36.249 18.3061C36.224 18.3091 35.754 19.0151 34.666 19.0151C34.096 19.0151 33.176 18.7041 33.176 17.3521C33.176 15.6331 34.578 15.0631 35.912 15.0631C36.122 15.0631 36.576 15.1011 36.576 15.1011C36.576 15.1011 36.628 14.9971 36.628 14.7131C36.628 14.2461 36.208 14.1821 35.632 14.1821C34.619 14.1821 33.951 14.4531 33.951 14.4531L34.175 13.1231C34.175 13.1231 34.987 12.7831 36.045 12.7831C36.591 12.7831 38.165 12.8411 38.164 14.6441L37.558 18.8941C37.557 18.8971 36.197 18.8971 36.197 18.8971ZM39.404 18.9171H37.82L38.783 12.9351H40.221L40.083 13.8021C40.083 13.8021 40.596 12.8591 41.287 12.8591C41.488 12.8591 41.584 12.8791 41.584 12.8791C41.38 13.2971 41.197 13.6801 41.01 14.6691C39.937 14.2891 39.855 16.3621 39.404 18.9171ZM44.133 18.9011L44.2 18.3501C44.2 18.3501 43.688 18.9961 42.762 18.9961C41.479 18.9961 40.85 17.7571 40.85 16.4911C40.85 14.5331 42.028 12.8261 43.442 12.8261C44.352 12.8281 44.933 13.6311 44.933 13.6311L45.267 11.5661L46.814 11.5631L45.634 18.9011H44.133ZM47.185 18.6941C47.144 18.7681 47.086 18.8251 47.012 18.8691C46.939 18.9101 46.861 18.9311 46.779 18.9311C46.699 18.9311 46.622 18.9101 46.548 18.8691C46.474 18.8251 46.416 18.7681 46.375 18.6941C46.333 18.6191 46.313 18.5431 46.313 18.4621C46.313 18.3801 46.334 18.3021 46.375 18.2281C46.416 18.1541 46.477 18.0941 46.55 18.0541C46.626 18.0131 46.701 17.9921 46.779 17.9921C46.859 17.9921 46.935 18.0131 47.009 18.0541C47.085 18.0951 47.143 18.1521 47.185 18.2281C47.228 18.3031 47.247 18.3811 47.247 18.4621C47.247 18.5431 47.227 18.6201 47.185 18.6941Z" fill="#E9ECE0"/>
</svg>
