<svg width="36" height="36" viewBox="0 0 36 36" fill="none" xmlns="http://www.w3.org/2000/svg">
<path d="M19.6994 13.5936H15.6213V9.5155C15.6213 9.14031 15.3168 8.83582 14.9416 8.83582C14.5664 8.83582 14.2619 9.14031 14.2619 9.5155V13.5936H10.1838C9.80865 13.5936 9.50415 13.8981 9.50415 14.2733C9.50415 14.6485 9.80865 14.9529 10.1838 14.9529H14.2619V19.031C14.2619 19.4062 14.5664 19.7107 14.9416 19.7107C15.3168 19.7107 15.6213 19.4062 15.6213 19.031V14.9529H19.6994C20.0746 14.9529 20.3791 14.6485 20.3791 14.2733C20.3791 13.8981 20.0746 13.5936 19.6994 13.5936Z" fill="white"/>
<path d="M35.1423 34.8493L25.0429 24.3462C27.6189 21.7627 29.2148 18.2012 29.2148 14.2733C29.2148 6.4026 22.8122 0 14.9415 0C7.07081 0 0.668213 6.4026 0.668213 14.2733C0.668213 22.144 7.07081 28.5466 14.9415 28.5466C18.3963 28.5466 21.5671 27.3116 24.0384 25.2624L34.1622 35.7913C34.2954 35.9307 34.4735 36 34.6523 36C34.8222 36 34.9914 35.9368 35.1233 35.8104C35.3938 35.5501 35.402 35.1198 35.1423 34.8493ZM2.02758 14.2733C2.02758 7.15229 7.8205 1.35936 14.9415 1.35936C22.0625 1.35936 27.8555 7.15229 27.8555 14.2733C27.8555 21.3943 22.0625 27.1873 14.9415 27.1873C7.8205 27.1873 2.02758 21.3943 2.02758 14.2733Z" fill="white"/>
</svg>
