<svg width="72" height="66" viewBox="0 0 72 66" fill="none" xmlns="http://www.w3.org/2000/svg">
<path d="M5.35548 62.757V61.8305H3.14548V62.6125H4.43748V62.9525C4.43748 63.1508 4.41482 63.3265 4.36948 63.4795C4.32415 63.6325 4.24482 63.7742 4.13148 63.9045C4.01248 64.0405 3.86798 64.1453 3.69798 64.219C3.52798 64.2927 3.34382 64.3295 3.14548 64.3295C2.96415 64.3295 2.79698 64.2983 2.64398 64.236C2.49098 64.168 2.36065 64.0773 2.25298 63.964C2.17932 63.8847 2.11698 63.7997 2.06598 63.709C2.02065 63.6127 1.98382 63.4965 1.95548 63.3605C1.93282 63.2188 1.91582 63.046 1.90448 62.842C1.89315 62.638 1.88748 62.383 1.88748 62.077C1.88748 61.771 1.89315 61.5188 1.90448 61.3205C1.91582 61.1165 1.93282 60.9465 1.95548 60.8105C1.98382 60.6688 2.02065 60.5527 2.06598 60.462C2.11698 60.3657 2.17932 60.2778 2.25298 60.1985C2.36065 60.0852 2.49098 59.9945 2.64398 59.9265C2.79698 59.8585 2.96415 59.8245 3.14548 59.8245C3.48548 59.8245 3.76315 59.918 3.97848 60.105C4.19382 60.2863 4.34115 60.5442 4.42048 60.8785H5.34698C5.30165 60.6178 5.22232 60.3742 5.10898 60.1475C4.99565 59.9208 4.84548 59.7225 4.65848 59.5525C4.47715 59.3825 4.25898 59.2493 4.00398 59.153C3.75465 59.051 3.46848 59 3.14548 59C2.82248 59 2.52782 59.0567 2.26148 59.17C2.00082 59.2777 1.76565 59.4363 1.55598 59.646C1.40865 59.7933 1.29532 59.9492 1.21598 60.1135C1.13665 60.2778 1.07715 60.4563 1.03748 60.649C1.00348 60.8417 0.983649 61.057 0.977982 61.295C0.972316 61.5273 0.969482 61.788 0.969482 62.077C0.969482 62.366 0.972316 62.6295 0.977982 62.8675C0.983649 63.0998 1.00348 63.3123 1.03748 63.505C1.07715 63.6977 1.13665 63.8762 1.21598 64.0405C1.29532 64.2048 1.40865 64.3607 1.55598 64.508C1.76565 64.7177 2.00365 64.8792 2.26998 64.9925C2.53632 65.1002 2.82815 65.154 3.14548 65.154C3.46848 65.154 3.76882 65.1002 4.04648 64.9925C4.32415 64.8848 4.57915 64.7092 4.81148 64.4655C5.00982 64.2502 5.14865 64.0093 5.22798 63.743C5.31298 63.4767 5.35548 63.148 5.35548 62.757Z" fill="white"/>
<path d="M11.309 65.103V64.2785H8.3935V59.051H7.4755V65.103H11.309Z" fill="white"/>
<path d="M17.5754 65.103L15.3569 59.051H14.6174L12.3989 65.103H13.3764L13.7929 63.8875H16.1814L16.5979 65.103H17.5754ZM15.9264 63.1055H14.0649L15.0084 60.4195L15.9264 63.1055Z" fill="white"/>
<path d="M22.9814 63.3775C22.9814 63.1168 22.9389 62.8817 22.8539 62.672C22.7745 62.4623 22.6527 62.2838 22.4884 62.1365C22.358 62.0232 22.2079 61.9325 22.0379 61.8645C21.8679 61.7908 21.6412 61.7313 21.3579 61.686L20.6694 61.584C20.3747 61.5387 20.148 61.4452 19.9894 61.3035C19.91 61.2298 19.8505 61.1477 19.8109 61.057C19.7769 60.9607 19.7599 60.8558 19.7599 60.7425C19.7599 60.4705 19.8534 60.2467 20.0404 60.071C20.233 59.8897 20.5079 59.799 20.8649 59.799C21.1199 59.799 21.355 59.833 21.5704 59.901C21.7914 59.9633 21.9954 60.0852 22.1824 60.2665L22.7689 59.6885C22.5082 59.4448 22.2305 59.2692 21.9359 59.1615C21.6412 59.0538 21.2927 59 20.8904 59C20.573 59 20.2897 59.0425 20.0404 59.1275C19.791 59.2125 19.5785 59.3343 19.4029 59.493C19.2329 59.6517 19.0997 59.8415 19.0034 60.0625C18.9127 60.2778 18.8674 60.5158 18.8674 60.7765C18.8674 61.2695 19.0147 61.6548 19.3094 61.9325C19.5814 62.1875 19.9639 62.349 20.4569 62.417L21.1709 62.519C21.3522 62.5473 21.4882 62.5785 21.5789 62.6125C21.6695 62.6465 21.7545 62.7003 21.8339 62.774C21.9925 62.9157 22.0719 63.1253 22.0719 63.403C22.0719 63.6977 21.9614 63.9272 21.7404 64.0915C21.525 64.2502 21.219 64.3295 20.8224 64.3295C20.5107 64.3295 20.2302 64.2898 19.9809 64.2105C19.7315 64.1255 19.4964 63.9725 19.2754 63.7515L18.6634 64.355C18.9524 64.6497 19.2669 64.8565 19.6069 64.9755C19.9469 65.0945 20.3464 65.154 20.8054 65.154C21.1227 65.154 21.4145 65.1143 21.6809 65.035C21.9472 64.9557 22.1767 64.8395 22.3694 64.6865C22.562 64.5335 22.7122 64.3465 22.8199 64.1255C22.9275 63.9045 22.9814 63.6552 22.9814 63.3775Z" fill="white"/>
<path d="M29.27 65.103V59.051H28.352V61.635H25.8955V59.051H24.9775V65.103H25.8955V62.4595H28.352V65.103H29.27Z" fill="white"/>
<path d="M35.4105 59.051H34.4075L33.141 61.7115L31.8745 59.051H30.8715L32.682 62.6125V65.103H33.6V62.6125L35.4105 59.051Z" fill="white"/>
<path d="M40.7225 59.8755V59.051H36.4725V59.8755H38.1385V65.103H39.0565V59.8755H40.7225Z" fill="white"/>
<path d="M46.2439 59.8755V59.051H41.9939V59.8755H43.6599V65.103H44.5779V59.8755H46.2439Z" fill="white"/>
<path d="M51.9182 65.103V64.2785H48.9687V62.4595H51.4847V61.6435H48.9687V59.8755H51.9182V59.051H48.0507V65.103H51.9182Z" fill="white"/>
<path d="M58.3488 65.103L56.9548 62.4255C57.2948 62.3292 57.581 62.1478 57.8133 61.8815C58.0456 61.6095 58.1618 61.2553 58.1618 60.819C58.1618 60.564 58.1165 60.3288 58.0258 60.1135C57.9408 59.8925 57.8161 59.7055 57.6518 59.5525C57.4875 59.3938 57.2891 59.272 57.0568 59.187C56.8301 59.0963 56.5723 59.051 56.2833 59.051H53.9373V65.103H54.8553V62.553H56.0028L57.2778 65.103H58.3488ZM57.2438 60.8275C57.2438 61.1278 57.1475 61.3602 56.9548 61.5245C56.7678 61.6888 56.5213 61.771 56.2153 61.771H54.8553V59.8755H56.2153C56.5213 59.8755 56.7678 59.9605 56.9548 60.1305C57.1475 60.2948 57.2438 60.5272 57.2438 60.8275Z" fill="white"/>
<path d="M64.8281 65.103V59.051H63.9101V63.301L61.1136 59.051H60.2721V65.103H61.1901V60.8445L63.9866 65.103H64.8281Z" fill="white"/>
<path d="M71.0389 65.103V64.2785H68.0894V62.4595H70.6054V61.6435H68.0894V59.8755H71.0389V59.051H67.1714V65.103H71.0389Z" fill="white"/>
<path fill-rule="evenodd" clip-rule="evenodd" d="M38.7281 45.1436L70.4795 49.9608V21.4259L38.0484 5.02082L17.895 0.839514L1.78719 13.8923V49.1202L38.7281 45.1436ZM1.00659 49.9893V13.5202L17.6911 0L38.3084 4.27753L71.2601 20.946V50.8687L38.711 45.9305L1.00659 49.9893Z" fill="white"/>
<path fill-rule="evenodd" clip-rule="evenodd" d="M67.6904 24.2088L61.1855 30.9739L60.6228 30.4329L67.1278 23.6677L67.6904 24.2088Z" fill="white"/>
<path fill-rule="evenodd" clip-rule="evenodd" d="M49.6941 32.7363L55.4184 37.1597L54.9412 37.7774L49.2168 33.354L49.6941 32.7363Z" fill="white"/>
<path fill-rule="evenodd" clip-rule="evenodd" d="M60.3884 49.1775L60.3884 8.19632L61.169 8.19632L61.169 49.1775L60.3884 49.1775Z" fill="white"/>
<path fill-rule="evenodd" clip-rule="evenodd" d="M54.7134 26.8202L54.7134 1.04081L55.494 1.0408L55.494 26.8202L54.7134 26.8202Z" fill="white"/>
<path fill-rule="evenodd" clip-rule="evenodd" d="M54.7134 54.9019L54.7134 24.0684L55.494 24.0684L55.494 54.9019L54.7134 54.9019Z" fill="white"/>
<path fill-rule="evenodd" clip-rule="evenodd" d="M68.45 27.9713H64.0266V27.1907H68.45V27.9713Z" fill="white"/>
<path fill-rule="evenodd" clip-rule="evenodd" d="M17.3989 47.7465V0.520508H18.1795V47.7465H17.3989Z" fill="white"/>
<path fill-rule="evenodd" clip-rule="evenodd" d="M37.9546 45.6648V4.68359H38.7352V45.6648H37.9546Z" fill="white"/>
</svg>
