<svg width="36" height="39" viewBox="0 0 36 39" fill="none" xmlns="http://www.w3.org/2000/svg">
<path d="M15.065 14.2289C13.6556 10.9557 12.0935 4.27817 7.29031 5.88832C2.93855 7.34713 0.696412 10.9713 1.35645 15.5908C2.19482 21.4584 5.32545 26.9081 8.89809 31.4946C11.6263 34.254 13.2706 35.3811 16.9554 37.658M14.6868 14.2073C16.6156 9.3616 18.7572 5.25835 23.3258 2.65529C24.6589 1.89574 27.481 0.957783 29.0894 1.23605C30.8426 1.53937 32.7767 3.03864 33.5912 4.51326C34.7335 6.58144 35.2004 8.15999 35.0261 10.5719C34.8302 13.2822 34.0003 15.8763 32.7783 18.2988C31.1414 21.544 28.61 24.4769 26.2745 27.2326C23.2559 30.7944 19.9404 34.0427 16.9841 37.655" stroke="#5B6460" stroke-linecap="round" stroke-linejoin="round"/>
</svg>
